<svg width="80" height="56" xmlns="http://www.w3.org/2000/svg" viewBox="0 0 274 193"><defs><clipPath id="a"><path d="M2063 1141h274v193h-274z"/></clipPath></defs><g clip-path="url(#a)" transform="translate(-2063 -1141)"><path d="M2063 1163.05c0-12.18 9.87-22.05 22.05-22.05h229.9c12.18 0 22.05 9.87 22.05 22.05v148.9c0 12.18-9.87 22.05-22.05 22.05h-229.9c-12.18 0-22.05-9.87-22.05-22.05z" fill="#778C9C" fill-rule="evenodd"/><path d="M2085.17 1141h229.66c12.24 0 22.17 9.93 22.17 22.17V1201h-274v-37.83c0-12.24 9.93-22.17 22.17-22.17z" fill="#4A687D" fill-rule="evenodd"/><path d="M2079 1170c0-8.28 6.72-15 15-15h113c8.28 0 15 6.72 15 15 0 8.28-6.72 15-15 15h-113c-8.28 0-15-6.72-15-15z" fill="#EFF3F5" fill-rule="evenodd"/><path d="M2248 1169c0-8.84 7.16-16 16-16s16 7.16 16 16-7.16 16-16 16-16-7.16-16-16z" fill="#FDDB75" fill-rule="evenodd"/><path d="M2287 1169c0-8.84 7.16-16 16-16s16 7.16 16 16-7.16 16-16 16-16-7.16-16-16z" fill="#EC7965" fill-rule="evenodd"/><path fill="#EFF3F5" d="M2080 1213h240v104h-240z"/><path d="M2091 1234c0-6.07 4.93-11 11-11h44c6.07 0 11 4.93 11 11v59c0 6.07-4.93 11-11 11h-44c-6.07 0-11-4.93-11-11z" fill="#2BB2E2" fill-rule="evenodd"/><path d="M2173 1227.5c0-1.93 1.57-3.5 3.5-3.5h100c1.93 0 3.5 1.57 3.5 3.5v14c0 1.93-1.57 3.5-3.5 3.5h-100c-1.93 0-3.5-1.57-3.5-3.5zM2173 1256.5c0-1.93 1.57-3.5 3.5-3.5h126c1.93 0 3.5 1.57 3.5 3.5v14c0 1.93-1.57 3.5-3.5 3.5h-126c-1.93 0-3.5-1.57-3.5-3.5zM2173 1284.67c0-2.03 1.64-3.67 3.67-3.67h36.66c2.03 0 3.67 1.64 3.67 3.67v14.66c0 2.03-1.64 3.67-3.67 3.67h-36.66c-2.03 0-3.67-1.64-3.67-3.67z" fill="#DDDEE2" fill-rule="evenodd"/></g></svg>