<svg width="2477" height="1530" xmlns="http://www.w3.org/2000/svg" overflow="hidden"><defs><clipPath id="a"><path d="M1169 445h2477v1530H1169z"/></clipPath></defs><g clip-path="url(#a)" transform="translate(-1169 -445)"><text font-family="Arial,Arial_MSFontService,sans-serif" font-weight="700" font-size="128" transform="translate(2056.77 609)">2016</text><path stroke="#FFF" stroke-width="4.583" stroke-miterlimit="8" fill="#66ABD4" d="M1296.5 978.5h165v165h-165z"/><text fill="#FFF" font-family="Arial,Arial_MSFontService,sans-serif" font-weight="700" font-size="50" transform="translate(1336.68 1056)">WA<tspan font-size="37" x="5.156" y="54">16%</tspan></text><path stroke="#FFF" stroke-width="4.583" stroke-miterlimit="8" fill="#82BBDB" d="M1296.5 1143.5h165v165h-165z"/><text fill="#FFF" font-family="Arial,Arial_MSFontService,sans-serif" font-weight="700" font-size="50" transform="translate(1340.97 1221)">OR<tspan font-size="37" x=".848" y="54">11%</tspan></text><path stroke="#FFF" stroke-width="4.583" stroke-miterlimit="8" fill="#2B7BBA" d="M1296.5 1308.5h165v165h-165z"/><text fill="#FFF" font-family="Arial,Arial_MSFontService,sans-serif" font-weight="700" font-size="50" transform="translate(1342.13 1386)">CA<tspan font-size="37" x="-.298" y="54">30%</tspan></text><path stroke="#FFF" stroke-width="4.583" stroke-miterlimit="8" fill="#2272B6" d="M1296.5 1803.5h165v165h-165z"/><text fill="#FFF" font-family="Arial,Arial_MSFontService,sans-serif" font-weight="700" font-size="50" transform="translate(1353.59 1881)">HI<tspan font-size="37" x="-11.756" y="54">32%</tspan></text><path stroke="#FFF" stroke-width="4.583" stroke-miterlimit="8" fill="#CC191E" d="M1461.5 978.5h165v165h-165z"/><text fill="#FFF" font-family="Arial,Arial_MSFontService,sans-serif" font-weight="700" font-size="50" transform="translate(1518.59 1056)">ID<tspan font-size="37" x="-11.756" y="54">32%</tspan></text><path stroke="#FFF" stroke-width="4.583" stroke-miterlimit="8" fill="#B2D2E8" d="M1461.5 1143.5h165v165h-165z"/><text fill="#FFF" font-family="Arial,Arial_MSFontService,sans-serif" font-weight="700" font-size="50" transform="translate(1508.55 1221)">NV<tspan font-size="37" x="8.594" y="54">2%</tspan></text><path stroke="#FFF" stroke-width="4.583" stroke-miterlimit="8" fill="#F75B40" d="M1461.5 1308.5h165v165h-165z"/><text fill="#FFF" font-family="Arial,Arial_MSFontService,sans-serif" font-weight="700" font-size="50" transform="translate(1509.99 1386)">UT<tspan font-size="37" x="-3.162" y="54">18%</tspan></text><path stroke="#FFF" stroke-width="4.583" stroke-miterlimit="8" fill="#FC9D7F" d="M1461.5 1473.5h165v165h-165z"/><text fill="#FFF" font-family="Arial,Arial_MSFontService,sans-serif" font-weight="700" font-size="50" transform="translate(1509.98 1551)">AZ<tspan font-size="37" x="7.15" y="54">4%</tspan></text><path stroke="#FFF" stroke-width="4.583" stroke-miterlimit="8" fill="#F34A36" d="M1626.5 978.5h165v165h-165z"/><text fill="#FFF" font-family="Arial,Arial_MSFontService,sans-serif" font-weight="700" font-size="50" transform="translate(1672.4 1056)">MT<tspan font-size="37" x="-.573" y="54">21%</tspan></text><path stroke="#FFF" stroke-width="4.583" stroke-miterlimit="8" fill="#820711" d="M1626.5 1143.5h165v165h-165z"/><text fill="#FFF" font-family="Arial,Arial_MSFontService,sans-serif" font-weight="700" font-size="50" transform="translate(1668.11 1221)">WY<tspan font-size="37" x="3.713" y="54">46%</tspan></text><path stroke="#FFF" stroke-width="4.583" stroke-miterlimit="8" fill="#A4CCE3" d="M1626.5 1308.5h165v165h-165z"/><text fill="#FFF" font-family="Arial,Arial_MSFontService,sans-serif" font-weight="700" font-size="50" transform="translate(1670.97 1386)">CO<tspan font-size="37" x="11.16" y="54">5%</tspan></text><path stroke="#FFF" stroke-width="4.583" stroke-miterlimit="8" fill="#94C4DF" d="M1626.5 1473.5h165v165h-165z"/><text fill="#FFF" font-family="Arial,Arial_MSFontService,sans-serif" font-weight="700" font-size="50" transform="translate(1669.54 1551)">NM<tspan font-size="37" x="12.604" y="54">8%</tspan></text><path stroke="#FFF" stroke-width="4.583" stroke-miterlimit="8" fill="#BC141A" d="M1791.5 978.5h165v165h-165z"/><text fill="#FFF" font-family="Arial,Arial_MSFontService,sans-serif" font-weight="700" font-size="50" transform="translate(1837.13 1056)">ND<tspan font-size="37" x="-.298" y="54">36%</tspan></text><path stroke="#FFF" stroke-width="4.583" stroke-miterlimit="8" fill="#D52221" d="M1791.5 1143.5h165v165h-165z"/><text fill="#FFF" font-family="Arial,Arial_MSFontService,sans-serif" font-weight="700" font-size="50" transform="translate(1838.55 1221)">SD<tspan font-size="37" x="-1.719" y="54">30%</tspan></text><path stroke="#FFF" stroke-width="4.583" stroke-miterlimit="8" fill="#EA362A" d="M1791.5 1308.5h165v165h-165z"/><text fill="#FFF" font-family="Arial,Arial_MSFontService,sans-serif" font-weight="700" font-size="50" transform="translate(1838.55 1386)">NE<tspan font-size="37" x="-1.719" y="54">25%</tspan></text><path stroke="#FFF" stroke-width="4.583" stroke-miterlimit="8" fill="#F34A36" d="M1791.5 1473.5h165v165h-165z"/><text fill="#FFF" font-family="Arial,Arial_MSFontService,sans-serif" font-weight="700" font-size="50" transform="translate(1838.55 1551)">KS<tspan font-size="37" x="-1.719" y="54">21%</tspan></text><path stroke="#FFF" stroke-width="4.583" stroke-miterlimit="8" fill="#BC141A" d="M1791.5 1638.5h165v165h-165z"/><text fill="#FFF" font-family="Arial,Arial_MSFontService,sans-serif" font-weight="700" font-size="50" transform="translate(1835.97 1716)">OK<tspan font-size="37" x=".848" y="54">36%</tspan></text><path stroke="#FFF" stroke-width="4.583" stroke-miterlimit="8" fill="#B2D2E8" d="M1956.5 978.5h165v165h-165z"/><text fill="#FFF" font-family="Arial,Arial_MSFontService,sans-serif" font-weight="700" font-size="50" transform="translate(1999.54 1056)">MN<tspan font-size="37" x="12.604" y="54">2%</tspan></text><path stroke="#FFF" stroke-width="4.583" stroke-miterlimit="8" fill="#FC8565" d="M1956.5 1143.5h165v165h-165z"/><text fill="#FFF" font-family="Arial,Arial_MSFontService,sans-serif" font-weight="700" font-size="50" transform="translate(2013.59 1221)">IA<tspan font-size="37" x="-1.444" y="54">9%</tspan></text><path stroke="#FFF" stroke-width="4.583" stroke-miterlimit="8" fill="#F6553C" d="M1956.5 1308.5h165v165h-165z"/><text fill="#FFF" font-family="Arial,Arial_MSFontService,sans-serif" font-weight="700" font-size="50" transform="translate(1998.39 1386)">MO<tspan font-size="37" x="3.438" y="54">19%</tspan></text><path stroke="#FFF" stroke-width="4.583" stroke-miterlimit="8" fill="#E22E27" d="M1956.5 1473.5h165v165h-165z"/><text fill="#FFF" font-family="Arial,Arial_MSFontService,sans-serif" font-weight="700" font-size="50" transform="translate(2002.13 1551)">AR<tspan font-size="37" x="-.298" y="54">27%</tspan></text><path stroke="#FFF" stroke-width="4.583" stroke-miterlimit="8" fill="#F44F39" d="M1956.5 1638.5h165v165h-165z"/><text fill="#FFF" font-family="Arial,Arial_MSFontService,sans-serif" font-weight="700" font-size="50" transform="translate(2004.99 1716)">LA<tspan font-size="37" x="-3.163" y="54">20%</tspan></text><path stroke="#FFF" stroke-width="4.583" stroke-miterlimit="8" fill="#FC8565" d="M1956.5 1803.5h165v165h-165z"/><text fill="#FFF" font-family="Arial,Arial_MSFontService,sans-serif" font-weight="700" font-size="50" transform="translate(2006.41 1881)">TX<tspan font-size="37" x="5.729" y="54">9%</tspan></text><path stroke="#FFF" stroke-width="4.583" stroke-miterlimit="8" fill="#61A7D2" d="M2121.5 978.5h165v165h-165z"/><text fill="#FFF" font-family="Arial,Arial_MSFontService,sans-serif" font-weight="700" font-size="50" transform="translate(2181.45 1056)">IL<tspan font-size="37" x="-14.621" y="54">17%</tspan></text><path stroke="#FFF" stroke-width="4.583" stroke-miterlimit="8" fill="#F6553C" d="M2121.5 1143.5h165v165h-165z"/><text fill="#FFF" font-family="Arial,Arial_MSFontService,sans-serif" font-weight="700" font-size="50" transform="translate(2178.59 1221)">IN<tspan font-size="37" x="-11.756" y="54">19%</tspan></text><path stroke="#FFF" stroke-width="4.583" stroke-miterlimit="8" fill="#D52221" d="M2121.5 1308.5h165v165h-165z"/><text fill="#FFF" font-family="Arial,Arial_MSFontService,sans-serif" font-weight="700" font-size="50" transform="translate(2168.55 1386)">KY<tspan font-size="37" x="-1.719" y="54">30%</tspan></text><path stroke="#FFF" stroke-width="4.583" stroke-miterlimit="8" fill="#E53228" d="M2121.5 1473.5h165v165h-165z"/><text fill="#FFF" font-family="Arial,Arial_MSFontService,sans-serif" font-weight="700" font-size="50" transform="translate(2169.99 1551)">TN<tspan font-size="37" x="-3.163" y="54">26%</tspan></text><path stroke="#FFF" stroke-width="4.583" stroke-miterlimit="8" fill="#F75B40" d="M2121.5 1638.5h165v165h-165z"/><text fill="#FFF" font-family="Arial,Arial_MSFontService,sans-serif" font-weight="700" font-size="50" transform="translate(2165.97 1716)">MS<tspan font-size="37" x=".848" y="54">18%</tspan></text><path stroke="#FFF" stroke-width="4.583" stroke-miterlimit="8" fill="#FCAB8F" d="M2286.5 978.5h165v165h-165z"/><text fill="#FFF" font-family="Arial,Arial_MSFontService,sans-serif" font-weight="700" font-size="50" transform="translate(2338.13 1056)">WI<tspan font-size="37" x="4.011" y="54">1%</tspan></text><path stroke="#FFF" stroke-width="4.583" stroke-miterlimit="8" fill="#FC8A6A" d="M2286.5 1143.5h165v165h-165z"/><text fill="#FFF" font-family="Arial,Arial_MSFontService,sans-serif" font-weight="700" font-size="50" transform="translate(2330.97 1221)">OH<tspan font-size="37" x="11.16" y="54">8%</tspan></text><path stroke="#FFF" stroke-width="4.583" stroke-miterlimit="8" fill="#9F0E14" d="M2286.5 1308.5h165v165h-165z"/><text fill="#FFF" font-family="Arial,Arial_MSFontService,sans-serif" font-weight="700" font-size="50" transform="translate(2328.11 1386)">WV<tspan font-size="37" x="3.713" y="54">42%</tspan></text><path stroke="#FFF" stroke-width="4.583" stroke-miterlimit="8" fill="#FC9D7F" d="M2286.5 1473.5h165v165h-165z"/><text fill="#FFF" font-family="Arial,Arial_MSFontService,sans-serif" font-weight="700" font-size="50" transform="translate(2332.12 1551)">NC<tspan font-size="37" x="10.015" y="54">4%</tspan></text><path stroke="#FFF" stroke-width="4.583" stroke-miterlimit="8" fill="#DD2A25" d="M2286.5 1638.5h165v165h-165z"/><text fill="#FFF" font-family="Arial,Arial_MSFontService,sans-serif" font-weight="700" font-size="50" transform="translate(2334.99 1716)">AL<tspan font-size="37" x="-3.163" y="54">28%</tspan></text><path stroke="#FFF" stroke-width="4.583" stroke-miterlimit="8" fill="#FCAF93" d="M2451.5 978.5h165v165h-165z"/><text fill="#FFF" font-family="Arial,Arial_MSFontService,sans-serif" font-weight="700" font-size="50" transform="translate(2506 1056)">MI<tspan font-size="37" x="1.146" y="54">0%</tspan></text><path stroke="#FFF" stroke-width="4.583" stroke-miterlimit="8" fill="#FCAB8F" d="M2451.5 1143.5h165v165h-165z"/><text fill="#FFF" font-family="Arial,Arial_MSFontService,sans-serif" font-weight="700" font-size="50" transform="translate(2498.55 1221)">PA<tspan font-size="37" x="8.594" y="54">1%</tspan></text><path stroke="#FFF" stroke-width="4.583" stroke-miterlimit="8" fill="#A4CCE3" d="M2451.5 1308.5h165v165h-165z"/><text fill="#FFF" font-family="Arial,Arial_MSFontService,sans-serif" font-weight="700" font-size="50" transform="translate(2498.55 1386)">VA<tspan font-size="37" x="8.594" y="54">5%</tspan></text><path stroke="#FFF" stroke-width="4.583" stroke-miterlimit="8" fill="#FB6E4E" d="M2451.5 1473.5h165v165h-165z"/><text fill="#FFF" font-family="Arial,Arial_MSFontService,sans-serif" font-weight="700" font-size="50" transform="translate(2498.55 1551)">SC<tspan font-size="37" x="-1.719" y="54">14%</tspan></text><path stroke="#FFF" stroke-width="4.583" stroke-miterlimit="8" fill="#FC9879" d="M2451.5 1638.5h165v165h-165z"/><text fill="#FFF" font-family="Arial,Arial_MSFontService,sans-serif" font-weight="700" font-size="50" transform="translate(2495.97 1716)">GA<tspan font-size="37" x="11.161" y="54">5%</tspan></text><path stroke="#FFF" stroke-width="4.583" stroke-miterlimit="8" fill="#4191C6" d="M2616.5 978.5h165v165h-165z"/><text fill="#FFF" font-family="Arial,Arial_MSFontService,sans-serif" font-weight="700" font-size="50" transform="translate(2663.55 1056)">NY<tspan font-size="37" x="-1.719" y="54">24%</tspan></text><path stroke="#FFF" stroke-width="4.583" stroke-miterlimit="8" fill="#71B1D7" d="M2616.5 1143.5h165v165h-165z"/><text fill="#FFF" font-family="Arial,Arial_MSFontService,sans-serif" font-weight="700" font-size="50" transform="translate(2666.41 1221)">NJ<tspan font-size="37" x="-4.583" y="54">14%</tspan></text><path stroke="#FFF" stroke-width="4.583" stroke-miterlimit="8" fill="#3989C1" d="M2616.5 1308.5h165v165h-165z"/><text fill="#FFF" font-family="Arial,Arial_MSFontService,sans-serif" font-weight="700" font-size="50" transform="translate(2659.54 1386)">MD<tspan font-size="37" x="2.292" y="54">26%</tspan></text><path stroke="#FFF" stroke-width="4.583" stroke-miterlimit="8" fill="#08306B" d="M2616.5 1473.5h165v165h-165z"/><text fill="#FFF" font-family="Arial,Arial_MSFontService,sans-serif" font-weight="700" font-size="50" transform="translate(2662.13 1551)">DC<tspan font-size="37" x="-.298" y="54">86%</tspan></text><path stroke="#FFF" stroke-width="4.583" stroke-miterlimit="8" fill="#FCAB8F" d="M2616.5 1803.5h165v165h-165z"/><text fill="#FFF" font-family="Arial,Arial_MSFontService,sans-serif" font-weight="700" font-size="50" transform="translate(2667.85 1881)">FL<tspan font-size="37" x="4.286" y="54">1%</tspan></text><path stroke="#FFF" stroke-width="4.583" stroke-miterlimit="8" fill="#66ABD4" d="M2781.5 978.5h165v165h-165z"/><text fill="#FFF" font-family="Arial,Arial_MSFontService,sans-serif" font-weight="700" font-size="50" transform="translate(2838.59 1056)">RI<tspan font-size="37" x="-11.756" y="54">16%</tspan></text><path stroke="#FFF" stroke-width="4.583" stroke-miterlimit="8" fill="#71B1D7" d="M2781.5 1143.5h165v165h-165z"/><text fill="#FFF" font-family="Arial,Arial_MSFontService,sans-serif" font-weight="700" font-size="50" transform="translate(2829.99 1221)">CT<tspan font-size="37" x="-3.163" y="54">14%</tspan></text><path stroke="#FFF" stroke-width="4.583" stroke-miterlimit="8" fill="#82BBDB" d="M2781.5 1308.5h165v165h-165z"/><text fill="#FFF" font-family="Arial,Arial_MSFontService,sans-serif" font-weight="700" font-size="50" transform="translate(2828.55 1386)">DE<tspan font-size="37" x="-1.719" y="54">11%</tspan></text><path stroke="#FFF" stroke-width="4.583" stroke-miterlimit="8" fill="#3989C1" d="M2781.5 813.5h165v165h-165z"/><text fill="#FFF" font-family="Arial,Arial_MSFontService,sans-serif" font-weight="700" font-size="50" transform="translate(2831.41 891)">VT<tspan font-size="37" x="-4.583" y="54">26%</tspan></text><path stroke="#FFF" stroke-width="4.583" stroke-miterlimit="8" fill="#3686C0" d="M2946.5 978.5h165v165h-165z"/><text fill="#FFF" font-family="Arial,Arial_MSFontService,sans-serif" font-weight="700" font-size="50" transform="translate(2989.54 1056)">MA<tspan font-size="37" x="2.292" y="54">27%</tspan></text><path stroke="#FFF" stroke-width="4.583" stroke-miterlimit="8" fill="#BAD6EB" d="M2946.5 813.5h165v165h-165z"/><text fill="#FFF" font-family="Arial,Arial_MSFontService,sans-serif" font-weight="700" font-size="50" transform="translate(2992.12 891)">NH<tspan font-size="37" x="10.015" y="54">0%</tspan></text><path stroke="#FFF" stroke-width="4.583" stroke-miterlimit="8" fill="#FB694A" d="M1296.5 813.5h165v165h-165z"/><text fill="#FFF" font-family="Arial,Arial_MSFontService,sans-serif" font-weight="700" font-size="50" transform="translate(1342.13 891)">AK<tspan font-size="37" x="-.298" y="54">15%</tspan></text><path stroke="#FFF" stroke-width="4.583" stroke-miterlimit="8" fill="#ADD0E6" d="M2946.5 648.5h165v165h-165z"/><text fill="#FFF" font-family="Arial,Arial_MSFontService,sans-serif" font-weight="700" font-size="50" transform="translate(2990.97 726)">ME<tspan font-size="37" x="11.16" y="54">3%</tspan></text><path stroke="#FFF" stroke-width="4.583" stroke-miterlimit="8" fill="#BAD6EB" d="M3053.5 1685.5h58v66h-58z"/><text font-family="Arial,Arial_MSFontService,sans-serif" font-weight="400" font-size="37" transform="translate(3144.28 1732)">0%</text><path stroke="#FFF" stroke-width="4.583" stroke-miterlimit="8" fill="#89BEDC" d="M3053.5 1756.5h58v66h-58z"/><text font-family="Arial,Arial_MSFontService,sans-serif" font-weight="400" font-size="37" transform="translate(3144.28 1803)">10%</text><path stroke="#FFF" stroke-width="4.583" stroke-miterlimit="8" fill="#539ECD" d="M3053.5 1827.5h58v66h-58z"/><text font-family="Arial,Arial_MSFontService,sans-serif" font-weight="400" font-size="37" transform="translate(3144.28 1874)">20%</text><path stroke="#FFF" stroke-width="4.583" stroke-miterlimit="8" fill="#08306B" d="M3053.5 1898.5h58v66h-58z"/><text font-family="Arial,Arial_MSFontService,sans-serif" font-weight="400" font-size="37" transform="translate(3144.28 1945)">50%</text><path stroke="#FFF" stroke-width="4.583" stroke-miterlimit="8" fill="#FCAF93" d="M3401.5 1685.5h59v66h-59z"/><text font-family="Arial,Arial_MSFontService,sans-serif" font-weight="400" font-size="37" transform="translate(3492.83 1732)">0%</text><path stroke="#FFF" stroke-width="4.583" stroke-miterlimit="8" fill="#FC8161" d="M3401.5 1756.5h59v66h-59z"/><text font-family="Arial,Arial_MSFontService,sans-serif" font-weight="400" font-size="37" transform="translate(3492.83 1803)">10%</text><path stroke="#FFF" stroke-width="4.583" stroke-miterlimit="8" fill="#F44F39" d="M3401.5 1827.5h59v66h-59z"/><text font-family="Arial,Arial_MSFontService,sans-serif" font-weight="400" font-size="37" transform="translate(3492.83 1874)">20%</text><path stroke="#FFF" stroke-width="4.583" stroke-miterlimit="8" fill="#67000D" d="M3401.5 1898.5h59v66h-59z"/><text font-family="Arial,Arial_MSFontService,sans-serif" font-weight="400" font-size="37" transform="translate(3492.83 1945)">50%<tspan font-weight="700" x="-439.243" y="-293">Democratic</tspan><tspan font-weight="700" x="-92.592" y="-293">Republican</tspan></text></g></svg>