<svg width="2477" height="1530" xmlns="http://www.w3.org/2000/svg" overflow="hidden"><defs><clipPath id="a"><path d="M1169 445h2477v1530H1169z"/></clipPath></defs><g clip-path="url(#a)" transform="translate(-1169 -445)"><text font-family="Arial,Arial_MSFontService,sans-serif" font-weight="700" font-size="128" transform="translate(2021.82 609)">YEAR</text><path stroke="#FFF" stroke-width="4.583" stroke-miterlimit="8" fill="#1762DB" d="M1296.5 978.5h165v165h-165z"/><text fill="#FFF" font-family="Arial,Arial_MSFontService,sans-serif" font-weight="700" font-size="48" transform="translate(1338.68 1081)">WA</text><path stroke="#FFF" stroke-width="4.583" stroke-miterlimit="8" fill="#1762DB" d="M1296.5 1143.5h165v165h-165z"/><text fill="#FFF" font-family="Arial,Arial_MSFontService,sans-serif" font-weight="700" font-size="48" transform="translate(1342.69 1246)">OR</text><path stroke="#FFF" stroke-width="4.583" stroke-miterlimit="8" fill="#1762DB" d="M1296.5 1308.5h165v165h-165z"/><text fill="#FFF" font-family="Arial,Arial_MSFontService,sans-serif" font-weight="700" font-size="48" transform="translate(1343.84 1411)">CA</text><path stroke="#FFF" stroke-width="4.583" stroke-miterlimit="8" fill="#1762DB" d="M1296.5 1803.5h165v165h-165z"/><text fill="#FFF" font-family="Arial,Arial_MSFontService,sans-serif" font-weight="700" font-size="48" transform="translate(1354.72 1906)">HI</text><path stroke="#FFF" stroke-width="4.583" stroke-miterlimit="8" fill="#1762DB" d="M1461.5 978.5h165v165h-165z"/><text fill="#FFF" font-family="Arial,Arial_MSFontService,sans-serif" font-weight="700" font-size="48" transform="translate(1519.72 1081)">ID</text><path stroke="#FFF" stroke-width="4.583" stroke-miterlimit="8" fill="#1762DB" d="M1461.5 1143.5h165v165h-165z"/><text fill="#FFF" font-family="Arial,Arial_MSFontService,sans-serif" font-weight="700" font-size="48" transform="translate(1510.27 1246)">NV</text><path stroke="#FFF" stroke-width="4.583" stroke-miterlimit="8" fill="#1762DB" d="M1461.5 1308.5h165v165h-165z"/><text fill="#FFF" font-family="Arial,Arial_MSFontService,sans-serif" font-weight="700" font-size="48" transform="translate(1511.7 1411)">UT</text><path stroke="#FFF" stroke-width="4.583" stroke-miterlimit="8" fill="#1762DB" d="M1461.5 1473.5h165v165h-165z"/><text fill="#FFF" font-family="Arial,Arial_MSFontService,sans-serif" font-weight="700" font-size="48" transform="translate(1511.7 1576)">AZ</text><path stroke="#FFF" stroke-width="4.583" stroke-miterlimit="8" fill="#1762DB" d="M1626.5 978.5h165v165h-165z"/><text fill="#FFF" font-family="Arial,Arial_MSFontService,sans-serif" font-weight="700" font-size="48" transform="translate(1674.12 1081)">MT</text><path stroke="#FFF" stroke-width="4.583" stroke-miterlimit="8" fill="#1762DB" d="M1626.5 1143.5h165v165h-165z"/><text fill="#FFF" font-family="Arial,Arial_MSFontService,sans-serif" font-weight="700" font-size="48" transform="translate(1670.11 1246)">WY</text><path stroke="#FFF" stroke-width="4.583" stroke-miterlimit="8" fill="#1762DB" d="M1626.5 1308.5h165v165h-165z"/><text fill="#FFF" font-family="Arial,Arial_MSFontService,sans-serif" font-weight="700" font-size="48" transform="translate(1672.69 1411)">CO</text><path stroke="#FFF" stroke-width="4.583" stroke-miterlimit="8" fill="#1762DB" d="M1626.5 1473.5h165v165h-165z"/><text fill="#FFF" font-family="Arial,Arial_MSFontService,sans-serif" font-weight="700" font-size="48" transform="translate(1671.26 1576)">NM</text><path stroke="#FFF" stroke-width="4.583" stroke-miterlimit="8" fill="#1762DB" d="M1791.5 978.5h165v165h-165z"/><text fill="#FFF" font-family="Arial,Arial_MSFontService,sans-serif" font-weight="700" font-size="48" transform="translate(1838.84 1081)">ND</text><path stroke="#FFF" stroke-width="4.583" stroke-miterlimit="8" fill="#1762DB" d="M1791.5 1143.5h165v165h-165z"/><text fill="#FFF" font-family="Arial,Arial_MSFontService,sans-serif" font-weight="700" font-size="48" transform="translate(1840.27 1246)">SD</text><path stroke="#FFF" stroke-width="4.583" stroke-miterlimit="8" fill="#1762DB" d="M1791.5 1308.5h165v165h-165z"/><text fill="#FFF" font-family="Arial,Arial_MSFontService,sans-serif" font-weight="700" font-size="48" transform="translate(1840.27 1411)">NE</text><path stroke="#FFF" stroke-width="4.583" stroke-miterlimit="8" fill="#1762DB" d="M1791.5 1473.5h165v165h-165z"/><text fill="#FFF" font-family="Arial,Arial_MSFontService,sans-serif" font-weight="700" font-size="48" transform="translate(1840.27 1576)">KS</text><path stroke="#FFF" stroke-width="4.583" stroke-miterlimit="8" fill="#1762DB" d="M1791.5 1638.5h165v165h-165z"/><text fill="#FFF" font-family="Arial,Arial_MSFontService,sans-serif" font-weight="700" font-size="48" transform="translate(1837.69 1741)">OK</text><path stroke="#FFF" stroke-width="4.583" stroke-miterlimit="8" fill="#1762DB" d="M1956.5 978.5h165v165h-165z"/><text fill="#FFF" font-family="Arial,Arial_MSFontService,sans-serif" font-weight="700" font-size="48" transform="translate(2001.26 1081)">MN</text><path stroke="#FFF" stroke-width="4.583" stroke-miterlimit="8" fill="#1762DB" d="M1956.5 1143.5h165v165h-165z"/><text fill="#FFF" font-family="Arial,Arial_MSFontService,sans-serif" font-weight="700" font-size="48" transform="translate(2014.72 1246)">IA</text><path stroke="#FFF" stroke-width="4.583" stroke-miterlimit="8" fill="#1762DB" d="M1956.5 1308.5h165v165h-165z"/><text fill="#FFF" font-family="Arial,Arial_MSFontService,sans-serif" font-weight="700" font-size="48" transform="translate(2000.11 1411)">MO</text><path stroke="#FFF" stroke-width="4.583" stroke-miterlimit="8" fill="#1762DB" d="M1956.5 1473.5h165v165h-165z"/><text fill="#FFF" font-family="Arial,Arial_MSFontService,sans-serif" font-weight="700" font-size="48" transform="translate(2003.84 1576)">AR</text><path stroke="#FFF" stroke-width="4.583" stroke-miterlimit="8" fill="#1762DB" d="M1956.5 1638.5h165v165h-165z"/><text fill="#FFF" font-family="Arial,Arial_MSFontService,sans-serif" font-weight="700" font-size="48" transform="translate(2006.7 1741)">LA</text><path stroke="#FFF" stroke-width="4.583" stroke-miterlimit="8" fill="#1762DB" d="M1956.5 1803.5h165v165h-165z"/><text fill="#FFF" font-family="Arial,Arial_MSFontService,sans-serif" font-weight="700" font-size="48" transform="translate(2008.13 1906)">TX</text><path stroke="#FFF" stroke-width="4.583" stroke-miterlimit="8" fill="#1762DB" d="M2121.5 978.5h165v165h-165z"/><text fill="#FFF" font-family="Arial,Arial_MSFontService,sans-serif" font-weight="700" font-size="48" transform="translate(2182.59 1081)">IL</text><path stroke="#FFF" stroke-width="4.583" stroke-miterlimit="8" fill="#1762DB" d="M2121.5 1143.5h165v165h-165z"/><text fill="#FFF" font-family="Arial,Arial_MSFontService,sans-serif" font-weight="700" font-size="48" transform="translate(2179.72 1246)">IN</text><path stroke="#FFF" stroke-width="4.583" stroke-miterlimit="8" fill="#1762DB" d="M2121.5 1308.5h165v165h-165z"/><text fill="#FFF" font-family="Arial,Arial_MSFontService,sans-serif" font-weight="700" font-size="48" transform="translate(2170.27 1411)">KY</text><path stroke="#FFF" stroke-width="4.583" stroke-miterlimit="8" fill="#1762DB" d="M2121.5 1473.5h165v165h-165z"/><text fill="#FFF" font-family="Arial,Arial_MSFontService,sans-serif" font-weight="700" font-size="48" transform="translate(2171.7 1576)">TN</text><path stroke="#FFF" stroke-width="4.583" stroke-miterlimit="8" fill="#1762DB" d="M2121.5 1638.5h165v165h-165z"/><text fill="#FFF" font-family="Arial,Arial_MSFontService,sans-serif" font-weight="700" font-size="48" transform="translate(2167.69 1741)">MS</text><path stroke="#FFF" stroke-width="4.583" stroke-miterlimit="8" fill="#1762DB" d="M2286.5 978.5h165v165h-165z"/><text fill="#FFF" font-family="Arial,Arial_MSFontService,sans-serif" font-weight="700" font-size="48" transform="translate(2339.57 1081)">WI</text><path stroke="#FFF" stroke-width="4.583" stroke-miterlimit="8" fill="#1762DB" d="M2286.5 1143.5h165v165h-165z"/><text fill="#FFF" font-family="Arial,Arial_MSFontService,sans-serif" font-weight="700" font-size="48" transform="translate(2332.69 1246)">OH</text><path stroke="#FFF" stroke-width="4.583" stroke-miterlimit="8" fill="#1762DB" d="M2286.5 1308.5h165v165h-165z"/><text fill="#FFF" font-family="Arial,Arial_MSFontService,sans-serif" font-weight="700" font-size="48" transform="translate(2330.11 1411)">WV</text><path stroke="#FFF" stroke-width="4.583" stroke-miterlimit="8" fill="#1762DB" d="M2286.5 1473.5h165v165h-165z"/><text fill="#FFF" font-family="Arial,Arial_MSFontService,sans-serif" font-weight="700" font-size="48" transform="translate(2333.84 1576)">NC</text><path stroke="#FFF" stroke-width="4.583" stroke-miterlimit="8" fill="#1762DB" d="M2286.5 1638.5h165v165h-165z"/><text fill="#FFF" font-family="Arial,Arial_MSFontService,sans-serif" font-weight="700" font-size="48" transform="translate(2336.7 1741)">AL</text><path stroke="#FFF" stroke-width="4.583" stroke-miterlimit="8" fill="#1762DB" d="M2451.5 978.5h165v165h-165z"/><text fill="#FFF" font-family="Arial,Arial_MSFontService,sans-serif" font-weight="700" font-size="48" transform="translate(2507.14 1081)">MI</text><path stroke="#FFF" stroke-width="4.583" stroke-miterlimit="8" fill="#1762DB" d="M2451.5 1143.5h165v165h-165z"/><text fill="#FFF" font-family="Arial,Arial_MSFontService,sans-serif" font-weight="700" font-size="48" transform="translate(2500.27 1246)">PA</text><path stroke="#FFF" stroke-width="4.583" stroke-miterlimit="8" fill="#1762DB" d="M2451.5 1308.5h165v165h-165z"/><text fill="#FFF" font-family="Arial,Arial_MSFontService,sans-serif" font-weight="700" font-size="48" transform="translate(2500.27 1411)">VA</text><path stroke="#FFF" stroke-width="4.583" stroke-miterlimit="8" fill="#1762DB" d="M2451.5 1473.5h165v165h-165z"/><text fill="#FFF" font-family="Arial,Arial_MSFontService,sans-serif" font-weight="700" font-size="48" transform="translate(2500.27 1576)">SC</text><path stroke="#FFF" stroke-width="4.583" stroke-miterlimit="8" fill="#1762DB" d="M2451.5 1638.5h165v165h-165z"/><text fill="#FFF" font-family="Arial,Arial_MSFontService,sans-serif" font-weight="700" font-size="48" transform="translate(2497.69 1741)">GA</text><path stroke="#FFF" stroke-width="4.583" stroke-miterlimit="8" fill="#1762DB" d="M2616.5 978.5h165v165h-165z"/><text fill="#FFF" font-family="Arial,Arial_MSFontService,sans-serif" font-weight="700" font-size="48" transform="translate(2665.27 1081)">NY</text><path stroke="#FFF" stroke-width="4.583" stroke-miterlimit="8" fill="#1762DB" d="M2616.5 1143.5h165v165h-165z"/><text fill="#FFF" font-family="Arial,Arial_MSFontService,sans-serif" font-weight="700" font-size="48" transform="translate(2667.85 1246)">NJ</text><path stroke="#FFF" stroke-width="4.583" stroke-miterlimit="8" fill="#1762DB" d="M2616.5 1308.5h165v165h-165z"/><text fill="#FFF" font-family="Arial,Arial_MSFontService,sans-serif" font-weight="700" font-size="48" transform="translate(2661.26 1411)">MD</text><path stroke="#FFF" stroke-width="4.583" stroke-miterlimit="8" fill="#1762DB" d="M2616.5 1473.5h165v165h-165z"/><text fill="#FFF" font-family="Arial,Arial_MSFontService,sans-serif" font-weight="700" font-size="48" transform="translate(2663.84 1576)">DC</text><path stroke="#FFF" stroke-width="4.583" stroke-miterlimit="8" fill="#1762DB" d="M2616.5 1803.5h165v165h-165z"/><text fill="#FFF" font-family="Arial,Arial_MSFontService,sans-serif" font-weight="700" font-size="48" transform="translate(2669.57 1906)">FL</text><path stroke="#FFF" stroke-width="4.583" stroke-miterlimit="8" fill="#1762DB" d="M2781.5 978.5h165v165h-165z"/><text fill="#FFF" font-family="Arial,Arial_MSFontService,sans-serif" font-weight="700" font-size="48" transform="translate(2839.72 1081)">RI</text><path stroke="#FFF" stroke-width="4.583" stroke-miterlimit="8" fill="#1762DB" d="M2781.5 1143.5h165v165h-165z"/><text fill="#FFF" font-family="Arial,Arial_MSFontService,sans-serif" font-weight="700" font-size="48" transform="translate(2831.7 1246)">CT</text><path stroke="#FFF" stroke-width="4.583" stroke-miterlimit="8" fill="#1762DB" d="M2781.5 1308.5h165v165h-165z"/><text fill="#FFF" font-family="Arial,Arial_MSFontService,sans-serif" font-weight="700" font-size="48" transform="translate(2830.27 1411)">DE</text><path stroke="#FFF" stroke-width="4.583" stroke-miterlimit="8" fill="#1762DB" d="M2781.5 813.5h165v165h-165z"/><text fill="#FFF" font-family="Arial,Arial_MSFontService,sans-serif" font-weight="700" font-size="48" transform="translate(2833.13 916)">VT</text><path stroke="#FFF" stroke-width="4.583" stroke-miterlimit="8" fill="#1762DB" d="M2946.5 978.5h165v165h-165z"/><text fill="#FFF" font-family="Arial,Arial_MSFontService,sans-serif" font-weight="700" font-size="48" transform="translate(2991.26 1081)">MA</text><path stroke="#FFF" stroke-width="4.583" stroke-miterlimit="8" fill="#1762DB" d="M2946.5 813.5h165v165h-165z"/><text fill="#FFF" font-family="Arial,Arial_MSFontService,sans-serif" font-weight="700" font-size="48" transform="translate(2993.84 916)">NH</text><path stroke="#FFF" stroke-width="4.583" stroke-miterlimit="8" fill="#1762DB" d="M1296.5 813.5h165v165h-165z"/><text fill="#FFF" font-family="Arial,Arial_MSFontService,sans-serif" font-weight="700" font-size="48" transform="translate(1343.84 916)">AK</text><path stroke="#FFF" stroke-width="4.583" stroke-miterlimit="8" fill="#1762DB" d="M2946.5 648.5h165v165h-165z"/><text fill="#FFF" font-family="Arial,Arial_MSFontService,sans-serif" font-weight="700" font-size="48" transform="translate(2992.69 751)">ME</text><path stroke="#FFF" stroke-width="4.583" stroke-miterlimit="8" fill="#6D9FF0" d="M3053.5 1685.5h58v66h-58z"/><text font-family="Arial,Arial_MSFontService,sans-serif" font-weight="400" font-size="37" transform="translate(3144.28 1732)">0%</text><path stroke="#FFF" stroke-width="4.583" stroke-miterlimit="8" fill="#1762DB" d="M3053.5 1756.5h58v66h-58z"/><text font-family="Arial,Arial_MSFontService,sans-serif" font-weight="400" font-size="37" transform="translate(3144.28 1803)">10%</text><path stroke="#FFF" stroke-width="4.583" stroke-miterlimit="8" fill="#114AA4" d="M3053.5 1827.5h58v66h-58z"/><text font-family="Arial,Arial_MSFontService,sans-serif" font-weight="400" font-size="37" transform="translate(3144.28 1874)">20%</text><path stroke="#FFF" stroke-width="4.583" stroke-miterlimit="8" fill="#0C316D" d="M3053.5 1898.5h58v66h-58z"/><text font-family="Arial,Arial_MSFontService,sans-serif" font-weight="400" font-size="37" transform="translate(3144.28 1945)">50%</text><path stroke="#FFF" stroke-width="4.583" stroke-miterlimit="8" fill="#6D9FF0" d="M3401.5 1685.5h59v66h-59z"/><text font-family="Arial,Arial_MSFontService,sans-serif" font-weight="400" font-size="37" transform="translate(3492.83 1732)">0%</text><path stroke="#FFF" stroke-width="4.583" stroke-miterlimit="8" fill="#1762DB" d="M3401.5 1756.5h59v66h-59z"/><text font-family="Arial,Arial_MSFontService,sans-serif" font-weight="400" font-size="37" transform="translate(3492.83 1803)">10%</text><path stroke="#FFF" stroke-width="4.583" stroke-miterlimit="8" fill="#114AA4" d="M3401.5 1827.5h59v66h-59z"/><text font-family="Arial,Arial_MSFontService,sans-serif" font-weight="400" font-size="37" transform="translate(3492.83 1874)">20%</text><path stroke="#FFF" stroke-width="4.583" stroke-miterlimit="8" fill="#0C316D" d="M3401.5 1898.5h59v66h-59z"/><text font-family="Arial,Arial_MSFontService,sans-serif" font-weight="400" font-size="37" transform="translate(3492.83 1945)">50%<tspan font-weight="700" x="-439.243" y="-293">Democratic</tspan><tspan font-weight="700" x="-92.592" y="-293">Republican</tspan></text></g></svg>