<svg xmlns="http://www.w3.org/2000/svg" preserveAspectRatio="xMidYMin slice" width="500" height="600" viewBox="0 0 500 600" style="overflow:visible">
    <g transform=" translate(250,300) scale(1) translate(-250,-300) translate(0,0)">
        <svg xmlns="http://www.w3.org/2000/svg" preserveAspectRatio="xMidYMin slice" width="500" height="600" viewBox="0 0 500 600" style="overflow:visible">
    <g transform=" translate(250,300) scale(1) translate(-250,-300) translate(0,0)">
      <svg xmlns="http://www.w3.org/2000/svg" viewBox="0 0 500 600"><path d="M250,221c11.8,0,23.3-11,29.4-23.2,3.6-7.1,4.6-12.6,4.6-21.8,0-14.4-4.1-22.4-11.3-29.8-3.2-3.3-10.9-6.2-15.3-8.7-2.7-1.6-1.9-3.5-4.9-3.5s-3.4,2.8-6.9,4.6c-5.1,2.6-12.5,4.6-15.2,5.9-4.6,2.2-3.2,4.2-5.4,7.1-3.8,5.2-7.9,9.4-7.9,21.2,0,3.5,3.1,10.4,3.7,13.7,2.3,13.3,9,23.7,16.9,29.5C241.7,218.9,244.7,221,250,221Z" fill="#fff" fill-rule="evenodd"/><path d="M243.1,157.2l-.8.4-.2.3a.9.9,0,0,0-.7.3,1,1,0,0,0,0,1.4l1,1.1a6.4,6.4,0,0,1,.8,1.4,6.5,6.5,0,0,1,.5,2,28.3,28.3,0,0,1,.2,2.9,14.3,14.3,0,0,1-.3,2.9,11.6,11.6,0,0,1-.4,1.8,10.7,10.7,0,0,1-.7,1.9l-.6,1.5a1.4,1.4,0,0,0-.2.6,2.2,2.2,0,0,0-.1.8,1.9,1.9,0,0,0,1,1,2.7,2.7,0,0,0,2.3-.8,3.4,3.4,0,0,0,.9-.8,4.4,4.4,0,0,0,.8-1.1,3,3,0,0,0,.4-.8,11.7,11.7,0,0,0,.5-1.1,8.5,8.5,0,0,0,.4-1.7,12,12,0,0,0,.3-2c.1-.6.1-1.2.2-1.7v-1.8c0-.3-.1-.6-.1-.9a4.7,4.7,0,0,0-.3-1.7l-.3-1.1-.6-1.4a15.3,15.3,0,0,0-1.4-2.1l-.5-.6-.6-.5a2,2,0,0,0-1.1-.3h-.4" fill-rule="evenodd" opacity="0.2"/><path d="M273.6,156a1,1,0,0,0,.6,1.1l.6.2.7.3.3.7a11.7,11.7,0,0,1,.5,1.1c.1.4.3.8.4,1.3s.1.3.1.5v.6a4.9,4.9,0,0,1-.1,1.2,7.8,7.8,0,0,1-.2,1.4,6.1,6.1,0,0,1-.3,1.3,25.8,25.8,0,0,1-.8,2.6l-.8,1.4-.3.6a3.7,3.7,0,0,0-.5,1.1,2.2,2.2,0,0,0,.1,2.1l.3.5h.1c.2.3.4.3.7.4l.7.2h.8l.5-.3.8-.5a5.2,5.2,0,0,0,1-1.1,8.3,8.3,0,0,0,1.1-1.5,15.4,15.4,0,0,0,.8-1.9c.2-.6.3-1.2.5-1.7l.3-1.7c0-.5.1-1,.1-1.5v-1l-.3-1.5a3.2,3.2,0,0,0-.3-.9l-.6-1.6c-.1-.4-.3-.8-.4-1.1a5.2,5.2,0,0,0-.6-1.3.8.8,0,0,0-.5-.5,1.2,1.2,0,0,0-1-.2,1.6,1.6,0,0,0-.8.6l-.4-.5-.7-.4-1.3-.5h-.2a1,1,0,0,0-.9.7" fill-rule="evenodd" opacity="0.2"/><path d="M236.2,151.7H234a19.8,19.8,0,0,0-3.3.8l-1.6.5-.7.2a2.5,2.5,0,0,0-.9.4c-.2.1-.4.4-.3.6a.6.6,0,0,0,.7.4l.8-.2.9-.3.8-.3h.1l1.6-.4,1.5-.3,1.4-.2h6.7a.9.9,0,0,0,.7-.1l.3-.3a.7.7,0,0,0-.1-.5l-.2-.3h-.5l-.4-.2h-5.3" fill-rule="evenodd"/><path d="M265,149.4h-1.6l-1.5.2-1.5.2-3.9.7-.5.5a.6.6,0,0,0-.1.7.8.8,0,0,0,.4.6h.7l2.1-.4,2-.4h6.2l1.2.2,1.1.3,1.2.2a3.6,3.6,0,0,0,1.4.2h.3a1.3,1.3,0,0,0,.5-.6,1,1,0,0,0-.3-1,1.3,1.3,0,0,0-.9-.4l-.6-.2-1.5-.3-1.5-.3-1.6-.2H265" fill-rule="evenodd"/><path d="M237.6,152a27.4,27.4,0,0,0-5,.3l-1.1.2-.5.2h-.5l-.6.2h-.4l-1.3.5H228l-.3.3a1.3,1.3,0,0,0-.1.6.8.8,0,0,0,.4.4.6.6,0,0,0,.6.1l1.3-.5.6-.2h.5l1.1-.3,1.1-.2,1.8-.2h2.1a24.2,24.2,0,0,1,3.8.2l.8.2h.5a1.3,1.3,0,0,0,.7-.4v-.4c0-.1-.1-.1-.1-.2a.7.7,0,0,0-.4-.5h-.3l-1-.4h-3.6" fill-rule="evenodd"/><path d="M222.1,166.3h0m3.3-6.9h0m17-3h-1.7c-2.4,0-4.8.2-7.1.4l-4.3.3-2.1.2-2.7.3c-.2,0-.4.2-.6.4a2.2,2.2,0,0,0-.1.8l.5.6h1l1.7-.2h1.8l3.5-.2,7.3-.3h4.7l.8.2.5.3.4.3a8.3,8.3,0,0,1,.7,1.3,11.6,11.6,0,0,1,.4,1.8,26.4,26.4,0,0,1,.2,2.8v3.1l-.3,3.2a24.4,24.4,0,0,1-.1,2.7.4.4,0,0,1-.1.3h0l-.5.3-2.5.9-1.4.3-1.2.2-7,.7-3.5.2-3.5.4h-3.4a6.7,6.7,0,0,1-.6-1.2l-.4-.7a18,18,0,0,1-.5-1.9,15.5,15.5,0,0,1-.4-2.1c-.1-.5-.1-1-.2-1.5a5.7,5.7,0,0,1,.1-1.3,1.3,1.3,0,0,1,.1-.6c0-.4.1-.8.1-1.2a2.8,2.8,0,0,0,.1-.9h0a1.2,1.2,0,0,0-.6-1.4.7.7,0,0,0-.6-.2,1.3,1.3,0,0,0-1,.4c-.1.2-.3.3-.4.6l-.2.5c0,.2-.1.5-.1.7s-.1,1-.2,1.6a6.1,6.1,0,0,0-.1,1.4,12.3,12.3,0,0,0,.2,1.9,7.6,7.6,0,0,0,.3,1.6c.1.5.3,1,.4,1.6a5.7,5.7,0,0,0,.4,1.4,3.1,3.1,0,0,0,.6,1.3c.2.4.5.8.7,1.3l1,1,.9.3h3.8l3.5-.3,7.1-.6,3.6-.4,2-.3,1.6-.4,1.6-.6a6.9,6.9,0,0,0,1.5-.7,2.8,2.8,0,0,0,1-.9,3.2,3.2,0,0,0,.3-.9c.1-.3.1-.7.2-1v-2.5c.1-1.3.2-2.5.2-3.7v-1.6a12.1,12.1,0,0,0-.1-1.9,8.8,8.8,0,0,0-.2-1.6,14.2,14.2,0,0,0-.4-2,6.9,6.9,0,0,0-.4-1,1.7,1.7,0,0,0-.2-.5l-.4-.5-.7-.9-.7-.6-.8-.4a5.9,5.9,0,0,0-1.9-.5h-1.6" fill-rule="evenodd"/><path d="M232.1,161.8a19.9,19.9,0,0,0-3.4.5l-1.4.5-.8.2-1,.5h-.3l-.3.3a1.1,1.1,0,0,0-.1.8,1,1,0,0,0,.4.5.8.8,0,0,0,.8.1l1.4-.5,1-.4,1.9-.4h3.8l2.6.6a11.7,11.7,0,0,1,2.4.9l.4.2h0l.4.3a1.4,1.4,0,0,0,1.1,0,1.2,1.2,0,0,0,.5-.9c0-1.4-1.5-1.8-2.5-2.1l-1.6-.6-1.6-.3-2-.3h-1.7" fill-rule="evenodd"/><path d="M234.8,168h0m-.1,0h0m.3-.1h0m0,0h0m-.3,0h0m.9-.4h0m-.7-.6.5.2.2.3h-.3l-.3.2v.2h-.2v-.2h.1c.1-.2.2-.5,0-.7h.1m-.3-2.8-1.4.5a3.9,3.9,0,0,0-1,.8l-.4.6-.2.2c-.1.2-.1.3-.2.4a5.8,5.8,0,0,0-.2,2.5c0,.3.2.5.3.8l.3.6c.2.2.3.4.5.5l.3.3.4.3.7.3.9.2,1.5-.2,1-.6.6-.4.3-.4c.1-.1.1-.3.2-.5a5,5,0,0,0,.3-1.3v-1.4c-.1-.2-.1-.3-.2-.4s-.1-.4-.2-.5a4.5,4.5,0,0,0-1-1.4l-.6-.4-.5-.3h-.3a1.5,1.5,0,0,0-.9-.2h-.2" fill-rule="evenodd"/><path d="M233.7,171.3h-1.8l-2.9.4c-.3,0-.5.3-.6.5a.6.6,0,0,0-.1.7.7.7,0,0,0,.4.6h.3a.4.4,0,0,0,.5,0h.3l3.9-.4h4.1a1,1,0,0,0,.4-.5,1,1,0,0,0-1.1-1.2h-3.4" fill-rule="evenodd"/><path d="M255.7,156.7h0m9.2-1.1h3.5l3.8.3h.8l1.3.2,3,.9h.3a1,1,0,0,0,.4.5h.3l.2.3.3.4.4.7c.1.3.1.6.2.9s.1.6.1.8v1.2c0,.4.1.7.1,1.1v1.2a31,31,0,0,1-.2,4.3,5.8,5.8,0,0,1-.3,1.4l-.4.8-.5.7-.3.3h0l-.5.3-1.2.3-2.9.2h-6.9l-3.6-.2h-2.1l-1.9-.2a10.6,10.6,0,0,1-2.3-.5l-.3-.2h-.1l-.3-.5a12.4,12.4,0,0,1-.4-1.6,21.1,21.1,0,0,1-.2-2.5v-2.7c0-1-.1-1.9-.1-2.9a24.4,24.4,0,0,1,.1-2.7c0-.3.1-.6.1-.9l.3-.7.3-.6.2-.2h.9l1-.2a39.8,39.8,0,0,1,6.9-.1m-3.3-2.2-3.9.3-1.6.3a3.3,3.3,0,0,0-1.3.7,7,7,0,0,0-1.5,2.3,5.8,5.8,0,0,0-.4,1.9,9.1,9.1,0,0,0-.1,1.7c-.1,1.2,0,2.4-.1,3.6a8.6,8.6,0,0,1-.1,1.6v3.4a10.8,10.8,0,0,0,.3,1.9,4.1,4.1,0,0,0,2,2.9l.5.2h-.3l.9.4h.9a6.3,6.3,0,0,0,1.9.3l3.5.2,3.6.2h3.4l3.6.2,3.2-.2,1.7-.3.7-.3.5-.2.6-.5.6-.4.4-.5a8.5,8.5,0,0,0,1.5-2.8,10.6,10.6,0,0,0,.4-1.9c0-.5.1-1.1.1-1.6v-3.4c0-.6-.1-1.1-.1-1.7s-.1-1.3-.2-1.9a7.5,7.5,0,0,0-.5-1.6,1.8,1.8,0,0,0-.5-.7l-.7-.9-.3-.2a2,2,0,0,0-1.4-.8h-.2a13.9,13.9,0,0,0-4.4-1.3l-2-.4-3.7-.4h-7" fill-rule="evenodd"/><path d="M252.2,165.6h-.7l-1.5.2h-1a.4.4,0,0,0-.1.3c0,.2.2.5.4.4l3.5-.2a.5.5,0,0,0,.5-.3c0-.2,0-.3-.1-.4a.2.2,0,0,0-.2-.2h-.8" fill-rule="evenodd"/><path d="M252.5,166.1h-.1l-2.4.3h-.3a.5.5,0,0,0-.2.4l.2.3c0,.1.1.1.2.1h2.7a.5.5,0,0,0,.5-.3v-.2c0-.1.1-.3,0-.4l-.2-.3h-.4" fill-rule="evenodd"/><path d="M254,188.3h0m-.5-13.7h0m-1.7-7.4c-.1.1-.1.2-.1.4s-.1.5-.1.7a2,2,0,0,0,.1.7v.6c0,.4.1.8.1,1.2a4.9,4.9,0,0,0,.1,1.2,4.9,4.9,0,0,0,.1,1.2c0,.8.1,1.6.1,2.3l.3,2.4a12.3,12.3,0,0,0,.2,1.9,3.8,3.8,0,0,0,.1,1,2.8,2.8,0,0,0,.1.9c.1,1.3.4,2.6.6,3.8l.3,1.6c0,.3.1.5.1.8v.3c0,.1,0,.1.1.2l-.3.4-.2.3-.3.2H253a.8.8,0,0,0-.8.2h-.1l-1.2.8-.8.4-.2.2-.5.3a.8.8,0,0,0-.2,1c.1.2.2.2.4.3l.4.2h.4l.6-.2.4-.3.5-.2.9-.6.9-.6,1-.8.8-.9a1.9,1.9,0,0,0,.3-1,.9.9,0,0,0-.1-.5,5,5,0,0,0-.2-1.2c-.1-.8-.3-1.5-.4-2.3a18.5,18.5,0,0,1-.4-2.3c-.1-.8-.3-1.6-.4-2.3s-.3-1.5-.4-2.3l-.3-1.9c0-.2-.1-.4-.1-.7s-.1-1.1-.2-1.7a10.1,10.1,0,0,1-.3-1.7c-.1-.5-.1-.9-.2-1.4a2.5,2.5,0,0,0-.1-.8v-1.5c.1-.3-.2-.5-.5-.5h-.4" fill-rule="evenodd"/><path d="M258.5,196.2a3.3,3.3,0,0,0-1.3.4l-.3.2h-.3l-.6.3-1.1.4-1.3.2h-2.1l-2-.2-.9-.2-.8-.3-1.7-.5h-.2a.8.8,0,0,0-.7.5.6.6,0,0,0,.1.4h-.1a3.9,3.9,0,0,0-.2.6h0a.4.4,0,0,1,.1.3,1.1,1.1,0,0,1,.1.5h0l.3,1.2c0,.2.1.3.1.5a1.4,1.4,0,0,1,.2.6l.3.8.4.5,1.2,1.2.8.6.3.2.8.4.9.4h1.4a9.3,9.3,0,0,0,2.6-.3,5.9,5.9,0,0,0,1.4-.6,5.8,5.8,0,0,0,1.2-1l.5-.6h.1l.3-.5.5-1.2h0a.4.4,0,0,0,.1-.3l.3-.9c.1-.4.1-.8.2-1.1h0c0-.3.1-.6.1-.8h0a.7.7,0,0,0,.1-.5h0c0-.2.1-.5-.1-.7s-.4-.5-.7-.5" fill-rule="evenodd"/><path d="M258.5,196.2a3.3,3.3,0,0,0-1.3.4l-.3.2h-.3l-.6.3-1.1.4-1.3.2h-2.1l-2-.2-.9-.2-.8-.3-1.7-.5h-.2a.8.8,0,0,0-.7.5.6.6,0,0,0,.1.4h-.1a3.9,3.9,0,0,0-.2.6h0a.4.4,0,0,1,.1.3,1.1,1.1,0,0,1,.1.5h0l.3,1.2c0,.2.1.3.1.5a1.4,1.4,0,0,1,.2.6l.3.8.4.5,1.2,1.2.8.6.3.2.8.4.9.4h1.4a9.3,9.3,0,0,0,2.6-.3,5.9,5.9,0,0,0,1.4-.6,5.8,5.8,0,0,0,1.2-1l.5-.6h.1l.3-.5.5-1.2h0a.4.4,0,0,0,.1-.3l.3-.9c.1-.4.1-.8.2-1.1h0c0-.3.1-.6.1-.8h0a.7.7,0,0,0,.1-.5h0c0-.2.1-.5-.1-.7s-.4-.5-.7-.5" fill-rule="evenodd"/><path d="M265.6,159.1h-1.8l-.9.2h-1.4l-.7.2-.7.2-.7.2-1,.5-.9.6-.3.3c-.1.2,0,.4,0,.5a.7.7,0,0,0,.9.2l.6-.4.6-.3a3.5,3.5,0,0,1,1.1-.3l.7-.2,1.6-.3h5.2l1.8.4,1.6.5.6.3.2.2.3.2h.6a1,1,0,0,0,.4-.5c0-.1,0-.4-.1-.5l-.3-.4-.3-.2-.4-.3-1.2-.4-2.1-.6-1.2-.2h-2.2" fill-rule="evenodd"/><path d="M265.8,160l-3.3.2-2.1.4-1.3.5-1.3.7c-.2.1-.3.3-.1.6s.4.2.6.1l1-.6,1.2-.4,1.2-.2h4.7l1.4.2h1l1.1.4,1.8.7h.1l.4.2h.3c.2-.1.3-.2.3-.4v-.2c0-.2-.1-.3-.1-.4l-.4-.3-.6-.2-.8-.3-1.7-.5a5.8,5.8,0,0,0-1.9-.3h-1.6" fill-rule="evenodd"/><path d="M262.5,164.5v-.2h0v.2m3.2,3.6h0m.1,0h0m.1,0h0m.5-2.9h0m-.5-.8h0m.1-.1h0m.7-.1h.1a1.9,1.9,0,0,0-.2.7l-.2.3h0a.1.1,0,0,0-.1.1h-.5a.9.9,0,0,1,.1-.5v-.2h.8m-.3-3.8-.9.2-1.2.7-.6.5-.2.2h0l-.3.4-.2.3c-.2.2-.2.4-.3.6a.9.9,0,0,1-.1.5h0v.4a.8.8,0,0,0-.1.4,1.5,1.5,0,0,0,.1.7v.2l.2.3.2.5.4.4.3.3.7.6.5.2.8.2h1.9l1-.2.4-.2h.2l.3-.2a3.6,3.6,0,0,0,.7-1,.8.8,0,0,0,.2-.5,1.4,1.4,0,0,0,.2-.6V164c.1-.2,0-.5,0-.7s-.1-.3-.1-.5l-.5-1c0-.1-.1-.2-.2-.4a1,1,0,0,0-.6-.5H269l-.5-.2-.9-.2h-1.2" fill-rule="evenodd"/><path d="M268.6,167.5h-1l-1.9.2-4.4.3a1,1,0,0,0-1,1,1.1,1.1,0,0,0,.3.7,1.1,1.1,0,0,0,.7.3c1.4-.2,2.9-.2,4.3-.3h2.9c.7-.1,1.9-.2,1.9-1.2a.9.9,0,0,0-.1-.5l-.6-.4h-1.1" fill-rule="evenodd"/><path d="M277.7,203.6h0" fill-rule="evenodd"/><path d="M219,174c1.2,8.4,2.5,14.7,4,19a69.8,69.8,0,0,0,8,15l5.3,5.3a.4.4,0,0,1,0,.6h-.6a1.1,1.1,0,0,1-1-.6" fill="none" stroke="#000" stroke-width="2"/><path d="M282,167q1.3,14.1,0,21c-.9,4.6-3.6,10.6-8,18" fill="none" stroke="#000" stroke-width="2"/><path d="M294.5,213.5c.7-2.8.8-5.7,1.3-8.5-.6.1.6-2.3.5-3.1v.2c2.8-5.8,2.9-13.6,4.5-18.9h.7c2-10.3-1.2-20.5-2.7-31,1.8-2.4-5.5-7.5-1.5-7,1.7.4,1.7,5.8,3.4,2.5-3.2-22.3-17.7-16.3-15.8-24.2,6.2-15.4-18.5-15.9-25.2-25.2-16.7,5.1-11.1-3.9-18.2,6.5-13.3-3.3-29.1,22.6-36.5,32.9-5.3,1.7-7.5,8.6-.5,7.6-5.7.9-6.2,12-3.8,16.4-3.1,2.3-5,9.1-4.3,13.1-.8,1.7,2.3,4.3,2.3,1.5,3,1.5-2.4,6.7-2.1,9.9,4,3,4.2,4,5.1,9.7-1.2,8.3,2.2,13.2,3.7,19.9-6.2,6.9,5.2,9,2.5,15.5-1.4,8.2,4.8,7.2,6.3,1.6-1.8-2.8-.3-.9,1.2.4-6.5,16.6,6.9,6.7,5.5,15.8,2.7,2.8,1.1-3.4,3.4-3.3,7.1-4.1,1.5-13.6,7.8-14.6,1.5-.1.4,4.6,2,5.8s4.2-3.6,2.5-5.1,1.5-7.8,3-11.9c-2.8-5.6-7.2-10.5-11.1-14.6-2.2-1.2-.3-6-3.9-5.6.9-2.4-1.9-4.4-2.5-4.4-.8-2.4,2.1-5-.1-7.1-5-2.2-1.1-1.5-1.4-4.4-7.4-12.5,1.1-27.2,9.2-38.3,5.5-4.6,18.6-4.5,19.7-10.2.6,1.1,2,2.2,2.4.4,9.9,3.3,18.2,6.2,25.3,14.9-2.6,2.5.4,6.6,3.6,6,5.9,13.9,0,29.5-2.5,43.3-1.7,8.8-21.9,15.2-10.3,26.8,7.6,7.4,9.4,28.1,17,5.3C290.3,228.2,294.9,220.7,294.5,213.5Zm-58.9,6.1a5.8,5.8,0,0,0-2.3,2.1C232.8,220.4,235.7,219.3,235.6,219.6Zm32.2-3.9c1.2-1.5.4.6.4,1.7C268.1,216.8,267.4,216.3,267.8,215.7Zm.5,2.9c.3,1.3,1.3,2.4,1.3,3.5C267,225.5,268.3,221.1,268.3,218.6Zm8.1-3.1c.4.4.5,1.6-.2,1.5S276.3,216,276.4,215.5Zm-2.2,4.7c1.2.2-.2,1.2-.8,1.1A4.4,4.4,0,0,0,274.2,220.2Zm-2.4-3.1c1-2.1,1.7,1.6,0,1.7S271.5,217.6,271.8,217.1Zm.8,10.3a1.8,1.8,0,0,1-1.6.2C270.9,226.2,273.2,226.3,272.6,227.4Zm-1.2-3.9c.4-1.7,5.2,1.2,1.6,1.3C272.1,224.7,271.5,224.4,271.4,223.5Zm2.9,6a7.1,7.1,0,0,0,1.5,3.4C273.2,235.3,274.4,226.7,274.3,229.5Zm2.2-6.3c-.6,1.2-.3-2,.3-1.8S276.6,223,276.5,223.2Zm18.2-43.1c.3-.3.4-.9.7-.9S295.1,179.9,294.7,180.1Zm6.4.8a2.4,2.4,0,0,0-1.1.6C300.1,180.7,301.2,179.7,301.1,180.9Zm-1.1-9.2c.1.7.5,2-.6,1.3A2.5,2.5,0,0,0,300,171.7Zm-1.1-4.6c-1,.4-1-1.8-.1-2.7A12,12,0,0,1,298.9,167.1Zm-1-6.5a5.9,5.9,0,0,0-.2-1.4C298.7,156.7,299,162.6,297.9,160.6Zm-1.4,15.3c-.9.1-1.4-1.6-.5-2S297.3,174.7,296.5,175.9Zm-2.4-29c.4.4,2.6,1.9,1.2,1.6S293.8,148.1,294.1,146.9Zm-.1,15.5c.4.6,1.1.8.7,1.6S293.7,163.2,294,162.4Zm-.6,3.2c1,.6,1.5,3.7-.5,2.3S292.5,164,293.4,165.6Zm-.2,10.2c-.1,1.2-1.2,2.9-.8.8C292.6,176.2,293.5,174.8,293.2,175.8Zm-1.1-20.6a3.8,3.8,0,0,1,.3-1C292.8,154.9,293.1,155.5,292.1,155.2Zm.4-19.5c-.1-.1-.8-.4-.5-.9S293,135.2,292.5,135.7Zm-2.2,40.4c-.2.2-.1-1.5.1-1.7S289.9,175.3,290.3,176.1Zm.9,6c-.9,1.3-1.1,3.1-1.1.5A1.2,1.2,0,0,0,291.2,182.1Zm-.7-16.4a18.8,18.8,0,0,0,1.3,5.9C290.5,172.3,289.3,166.4,290.5,165.7Zm-1.3-1.6c-.2-1.3,1.6.6,1.4,1.1S289.8,164.3,289.2,164.1Zm1.5-24.4c-.9,0-1.2.1-1-1C290,139.3,291.8,139.5,290.7,139.7Zm-1.4-8.4c1,0-.1.7-.5.4Zm-1.4,41.2a3.7,3.7,0,0,0-1.3,1.2C286.5,172.4,286.6,171.9,287.9,172.5Zm0,11.2c-.8.4-1.3.6-1.3-.3A1.1,1.1,0,0,0,287.9,183.7Zm-2.7-52.4c.1-.3.8-1,.7-.2S284.9,131.9,285.2,131.3Zm-.3,34.7a1.7,1.7,0,0,0,1.6.7C286.6,169.8,284.7,168.3,284.9,166Zm1.4,34.8c-1.5.4-1.6.3-.9-1.1S286.2,200.3,286.3,200.8Zm-2.4-65.5c-.7-.1-1.3-1.2-.8-1.6A3,3,0,0,0,283.9,135.3Zm-2.8-20.2c.8-1.6,3.5,2,.8,1.1C281.7,115.7,280.3,115.4,281.1,115.1Zm-1.7,6.6a3.7,3.7,0,0,1,.5,1.8C278.8,123.3,279.6,122.5,279.4,121.7Zm-.1-7.7c.4,1.3.4,2.4-1.1,3S279.6,115.4,279.3,114Zm-2.4,15.7a3.5,3.5,0,0,1,.3,1.2C276.3,130.9,276.8,130.3,276.9,129.7Zm-.8,7.4c.9,2-.4,1.2-1.9,1.2A2.3,2.3,0,0,1,276.1,137.1Zm-1.4-28.5c-2.4,1.7-4.8,1.3-4.9-1.5C270.5,110.3,272.5,108.4,274.7,108.6Zm-8.2-1.3a1.9,1.9,0,0,1,1.7,1.2C267.7,108.1,265.9,108,266.5,107.3Zm-.1,4.5a2.8,2.8,0,0,0,1.8.2C268,112.8,264.4,112.2,266.4,111.8Zm1.7,4.1c-1,.7-.6-.9-1-1.6S268.5,115.6,268.1,115.9ZM266,131.2c0-.6-.4-1.3.3-1.8C266.8,131,267.9,133.8,266,131.2Zm-6.7-29.1c1.4-.4-.8,1.7-1,.7S258.8,102.1,259.3,102.1Zm-.6,4.9a5.1,5.1,0,0,0-2.7,2.5C255,108.3,257.6,107.4,258.7,107Zm-1.5,6.7c-1.2-.4-2.3.4-1.2-1C256.3,113.2,257.3,112.9,257.2,113.7Zm-3-9.9c.2-2.2,2.4.7,1,1.6S254,104.6,254.2,103.8Zm-4-1.3c1.5-.6.4.2,0,1A3.4,3.4,0,0,0,250.2,102.5Zm-5.2,4.2c-1-.5-3.4,1.2-3.3.7S244.6,104.8,245,106.7Zm-1,3-1.2-.4C243.8,108.6,244.8,108.3,244,109.7Zm-4.4-4.8a2.3,2.3,0,0,1,.1,1.8C239,105.9,238.4,105.8,239.6,104.9Zm-.3,4.3c1.8.6-1,1.4-1.4,2.5C237.1,110,238.4,110.3,239.3,109.2Zm-5.4,17.5c-.3.1-.6.3-.9.1S233.4,126.3,233.9,126.7Zm-6-4.9c.1.5.1.5-.3.3Zm-11,8.7c.1.2.3.2.5.3S216.8,131.4,216.9,130.5Zm0,84.2c-.4-.5-1-1.8-.6-1.9S217.6,214,216.9,214.7Zm-.8-78.2c-.1,1.6-.6-1.1-1.4-1.5C217.1,132.2,216.3,134.1,216.1,136.5Zm-2.4-5.5c.5-1.5.3.1,0,.8S213.7,131.3,213.7,131Zm2.5,8c-.2,1.8-1.9,2.7-2.9,1.3S215.4,138.9,216.2,139Zm-.6,52.6c0,.5.4,1.3,0,1.6A1.5,1.5,0,0,1,215.6,191.6Zm-.7-47.6c.3.3.7.5.8.9C214.8,148.1,212.6,142.1,214.9,144Zm-3.6,68.4c.2.8,1.6,2.1.8,2.7A3.4,3.4,0,0,1,211.3,212.4Zm-1.9-65.9a4.1,4.1,0,0,0,1.6,1.8C210.4,149.6,208.8,147.4,209.4,146.5Zm1.4,48.4c-1.4-.2-.6-1.5-.7-2.5C211.1,192.9,210.6,193.9,210.8,194.9Zm-2.6,2.6c.4-1.2.3-.1.8.4S207.7,198.5,208.2,197.5Zm-.3-5.4c-.4-.4-.4-.5-.1-1S208.2,193.2,207.9,192.1Zm.9,18.1c.1-1.3,1.5,2.7,0,1.4A1.1,1.1,0,0,0,208.8,210.2Zm.2-42.1c-.7-1.4-1.1-1.9.5-2.5S209,167.1,209,168.1Zm1.2,50.5c-.3-1.4-.3-3.8-2.5-3.7C209.5,212.7,211.1,216.5,210.2,218.6Zm.6-56.8c-.8,2-2.2-2.5-1.8-3.1C212.8,158.1,209.1,159.9,210.8,161.8Zm-1.7-22.4c.3.8-.6,1.6-1,2.3C207.6,140.4,208,140,209.1,139.4Zm-1.6,11.8c2.6-1.6,3.7,3.3,2,2.1C210.1,150,205.4,154.5,207.5,151.2Zm-.4,19.3c-.1-.7-1.6-.6-1-1.4A2.1,2.1,0,0,1,207.1,170.5Zm-.6-13.7c.8-.2-.4,2.4-1.6,2S204.9,156.6,206.5,156.8Zm-1,6.6a1.7,1.7,0,0,0,.1,1C206.7,167.6,203.4,162.9,205.5,163.4Zm-2.9-20.1c-1-1.3.6-3.7,2.1-2.5S203.9,142.7,202.6,143.3Zm1,7.2c.8.4,1.4-.5,1.3-1.2C206.9,151.7,201.2,153.7,203.6,150.5Zm-.4,10.1c1.2,1.3-.5,1.7-.5,3C202.3,162.7,202.9,161.6,203.2,160.6Zm-2.5,22.9c-1.4.4-.8,3-1.9,2.7C198.5,183.8,201.8,179.5,200.7,183.5Zm1.1-15.1c-3.6,5-1.1-4.3-1-2.2S202.8,167.4,201.8,168.4Zm.8,6.5c-.2-.3-.3-.7.1-.9S202.9,174.5,202.6,174.9Zm4.6-3.8c-.2,2.8-2.2,1.1-3.8.9C202.4,168.9,206.9,173.5,207.2,171.1Zm-1,22.2a3.7,3.7,0,0,0-1.1,1.9C203.9,194.8,205.5,192.2,206.2,193.3Zm-2.4,6.2a3.4,3.4,0,0,1,.4-1.2C205.1,198.9,204.9,199.7,203.8,199.5Zm2,21.7a2.5,2.5,0,0,1-.1-1.9C206.1,219.9,205.8,220.5,205.8,221.2Zm.4-9.9a10.1,10.1,0,0,1-1.3-1.6C205,209.5,207.2,212.2,206.2,211.3Zm0-3.3c-2.7-2.8-1.2-2.8,1.6-1.4C208.8,209,206.9,206.1,206.2,208Zm1.3,8.9a.7.7,0,0,1,.6.7C207.3,217.9,207.4,217.6,207.5,216.9Zm.4,5.9a1.9,1.9,0,0,1,1.1-2.6A1.6,1.6,0,0,1,207.9,222.8Zm2.8,12.9c-2.6-.9.8-6.4.7-3.2A3,3,0,0,0,210.7,235.7Zm1.4-9.3c-2.6,1.8.2-2.1-.2-3.7C213.8,223.5,212.1,225,212.1,226.4Zm.5-55.5c-.2-.3-.9-.5-.6-1S213.3,170.2,212.6,170.9Zm-.2-3.7a13.4,13.4,0,0,1,.7-1.8C214.5,166.6,213.2,170.1,212.4,167.2Zm1.3,43.4c.6-2.8-1.6-2.2-.4-4.6C213.3,207.4,214.4,209.4,213.7,210.6Zm0-61.2c-.7.3,1.6-1.7,1.6-1.2A3.6,3.6,0,0,0,213.7,149.4Zm1.7,78.7c3-1.5.9-1.2,1,1.7S215.1,229.3,215.4,228.1Zm1.8,10.7c0-.3-.4-1-.3-1.1S217.2,238.3,217.2,238.8Zm0-35.6c-.1-.3.1-.5.4-.5S218,203,217.2,203.2Zm1.3,28.3c-.4-.8.4-1,1.1-.9S219,231.3,218.5,231.5Zm4.3,10.5a9.1,9.1,0,0,0,1.1,1.6C222.6,245.1,222.5,243.1,222.8,242Zm1.2-19.6c.4.1.6,1,.3,1S224,222.9,224,222.4Zm.3,3.7c0-.9,1-.7,1.4-1.3S224.8,227,224.3,226.1Zm1.3,6.4a8.6,8.6,0,0,1,0-1.6C226.1,231.4,226.5,232.3,225.6,232.5Zm.2,8.3a1.3,1.3,0,0,0-.4-1C226.3,239.9,226.2,239.9,225.8,240.8Zm.3-6.3c.5-.5.8-.2.7.3A.9.9,0,0,1,226.1,234.5Zm5.1-12.9c-1.2-1,0-1.6-.2-2.9C231.8,219.5,231.2,220.6,231.2,221.6ZM229.1,209c.4-.3,1.4.6,1.8,1S228.7,210.1,229.1,209Zm1,6.6c-.3-.1-1-1.3-.5-.7ZM229,222c.6.5,1.2,1.8-.1,1.5A2.6,2.6,0,0,0,229,222Zm.8,7.5c-.6.1-.8.9-1.7.7S231.8,225.7,229.8,229.5Zm-2.4-15.3c.5,2.4.6,1.8-1.6,1.7C226.2,215.4,227.1,214.9,227.4,214.2Zm-3.8-9.8c.6,1.2,2,.6,2.5,1.3C225,207.9,222.2,203.3,223.6,204.4Zm-.9,5c.3.3.3.6.3,1.1S222.8,210.1,222.7,209.4Zm.6,22.4c.6,1.5.9,7.4-1.4,4.5A4.7,4.7,0,0,0,223.3,231.8Zm-1.4-19c-.3.4-.3.8-.9.8S221.4,212.8,221.9,212.8Zm-.9,6.7c-.2.1-.6.4-.5,0Zm-.3-28.2a2.8,2.8,0,0,0-.5-2A1.5,1.5,0,0,1,220.7,191.3Zm.7,48.9c-1,4.9-3.1.1-1.6-2.5C220.8,238.2,221.9,239.3,221.4,240.2Zm-2.6-48.3c.6.9,1.8.3.3.8C217.3,195.3,217.3,189,218.8,191.9Zm-.8-47c-.5.4,0-2.2.5-.6Zm1.7-9.4c-2.5,2.5-1.1-1.4,1.1-1.3C222.6,136.6,222.1,135.9,219.7,135.5Zm1.9-6.2c-1.8.5,0-.6.1-1.6A8.1,8.1,0,0,0,221.6,129.3Zm-4.2-6.9c.5-1.6,4.2.8,5.1,1.1C218.8,126.5,220.8,122.5,217.4,122.4Zm5.1-5.1a8,8,0,0,1,2.1-2C225.2,117.2,224.5,118,222.5,117.3Zm2.3,29c-.6-.9.1-.9.7-1.4S225.3,146.1,224.8,146.3Zm-.1-16.9c0-.6.9-.9,1.3-1.4S225,129.4,224.7,129.4Zm2.7,13.4c.4.1,1-.1,1.2,0S226.5,144,227.4,142.8Zm0-18.5c.3-.1,1.1.6,1.7.8S228.1,125.1,227.4,124.3Zm2.1-7.2a1.3,1.3,0,0,0-1.3.2C227.6,117.2,229.8,116.7,229.5,117.1Zm-.4-2.8c1.6-.6,3.1-1,2.1,1.2C230.4,114.7,228.5,115.5,229.1,114.3Zm1.8,24.7c.6-.8,2.8-2.7,2.8-.8S232,138.6,230.9,139Zm2.7-4.3c-.5.1-.2-.9-.1-1.2S234.5,134.4,233.6,134.7Zm.7-26.3c1.5-1.3,1.8,2.1,0,2.6S233,108.9,234.3,108.4Zm.3,14.3c.3-.4.9.4,1.4.5A2.7,2.7,0,0,1,234.6,122.7Zm2.4,2.1a2.7,2.7,0,0,0-.7-1.4C236.3,123.5,238.9,124.2,237,124.8Zm-.1,4.6c.9-.4,2.3-1.2,1.7.4C238.1,129.7,237.5,129.3,236.9,129.4Zm.5,5.6c-.3-.4,1.3.4,1.7.3C238.4,136.8,237.5,136.6,237.4,135Zm2.3-22.4a4.2,4.2,0,0,0,.9,1.6C238.7,114.8,238.3,114.1,239.7,112.6Zm.6,7.6c-.8-.4.1-1.5.7-.4S240.5,120,240.3,120.2Zm1.2-8.9a1.7,1.7,0,0,1,1.8.5C242.5,112.7,241.1,113.1,241.5,111.3Zm2.7,23.1c-2,.6-1-1.2-.1-2S244.4,133.7,244.2,134.4Zm.5-18.7c.4,0,1-.7,1.1-.1S245.2,116.4,244.7,115.7Zm1.3,15.8c-.2-.5-1.3-.7-.9-1.1S247.6,130.8,246,131.5Zm.3-27.9a1.3,1.3,0,0,1,1-1.1C249.3,102.3,247.4,104.9,246.3,103.6Zm1.1,25.2c1-.6,1.5.5,2.1,1.1S248.2,129,247.4,128.8Zm1.3-4.3c-.2-.4.6.3.9,0C251.4,124.7,248.2,126.3,248.7,124.5Zm1.3-9.1c-.9-1.3.8-1,1.6-.6S250.8,116.7,250,115.4Zm.6-2.9c.6-.4.9-.5,1.1.3Zm1.5-8.3a3.1,3.1,0,0,0,.7,2.7C249.7,107.4,250.7,106,252.1,104.2Zm1.8,12.6c.3-.2.6-.1,1,0S253.3,117.5,253.9,116.8Zm.3,16.3c-.2-.2.1-.6.2-.9S254.2,132.8,254.2,133.1Zm.3-14h0l2.2-.9a1,1,0,0,1,.2.9Zm2.4,14.8c.3,0,.5.9.9,1.1S255.4,134,256.9,133.9Zm.8-22.8c-.6.2,1-2.4,1.9-2.2S258.1,110.2,257.7,111.1Zm1,11.3c.5-.1,1,.6,1.6.6C261,126.2,257.6,123.6,258.7,122.4Zm1.7-5.6a5.4,5.4,0,0,1,.5,4.3C258.8,120.6,261.3,118.3,260.4,116.8Zm-1.9,14.8c-.3-1.1,1.6-4.2,1.4-2.1C262.3,132,260.9,129.3,258.5,131.6Zm.6-18.3c-.1-1,1.2-1.3,1.6-2.2C263,111.9,260.8,113.2,259.1,113.3Zm3.6,24.1h.7C263.2,137.6,263,137.7,262.7,137.4Zm.6-18.2a3.6,3.6,0,0,0,.8-1.2C264.7,118.4,264.2,119.7,263.3,119.2Zm1.1,8.4c-.3-.3.1-.4.3-.7S265.1,127.9,264.4,127.6Zm-.6-3.7a1.9,1.9,0,0,1,1.1-.9C264.6,123.4,264.4,124.1,263.8,123.9Zm.4-8.3c-.1-.5-.7-.8-.3-1.2S266.4,115.9,264.2,115.6Zm1-6.1c.4,0,.4.1.3.4S264.4,109.2,265.2,109.5Zm.5,25.1c-.5.3-.2-.7-.3-1.1S266.7,134.1,265.7,134.6Zm3.1,5.5c.3-.4,1-1.5,1-.5A.9.9,0,0,1,268.8,140.1Zm-.8-4.4c-3.2,4.3-1.4,1.2.1-1.2C271.2,133.7,270.9,135.7,268,135.7Zm2.1-20.9c-.7-2.1,1.9-1.7,2.2,0S270.6,115.9,270.1,114.8Zm.6,6.1a5.1,5.1,0,0,0-.2-1.3C271.3,119.1,271.1,120.6,270.7,120.9Zm.1,2.6c-.5-.8,0-.6.6-.8S270.9,123.2,270.8,123.5Zm.9,16.7c.9-.2.6.8.4,1.3C272.2,144.1,271.5,141.4,271.7,140.2Zm1.9-5.5a2.5,2.5,0,0,1-1.4-.8C273.1,134.2,274.2,133.4,273.6,134.7Zm-1.1-4.8c-.3-.9.6-1,1.2-1.2C274.4,130.1,273.8,130.8,272.5,129.9Zm2.1,10.5c.5-.4,1.8.3,2.5.6S273.1,141.6,274.6,140.4Zm.4,3.4c0-.2,0-.5.2-.6S275.8,143.9,275,143.8Zm3.1-.9c-.7.9.1,3.4-1.6,2.5C278.1,145,277.2,142,278.1,142.9Zm-.8,5.1c-1.7-1.7,2,.8,2.7,1.6C278.8,149.8,278.4,148.4,277.3,148Zm1.3,5.7c-.8-3,.9.1,1.9.9A1.8,1.8,0,0,1,278.6,153.7Zm1.1-9.1c-.2-.9,1.5-1.3,1.4-.4A.9.9,0,0,0,279.7,144.6Zm1.6-7c1.1-.3,1.7-.5,1.2.8S281.9,137.7,281.3,137.6Zm.8,8.7c.3-.6.7-.4,1.2-.6S283,146.5,282.1,146.3Zm1.8,10.9c-.9-.3-1.5-1.3-.6-1.8S284.2,157.3,283.9,157.2Zm-.2-7.2c-.5-.3-.9-.3-.4-.9S284.6,149.7,283.7,150Zm-.1-31.1a4.2,4.2,0,0,0,.4-1.5C284.6,118.4,285.1,119.1,283.6,118.9Zm1.1,59.6c1,0,1,.5.3,1.1S284.6,179.1,284.7,178.5Zm.5,28.6c-.1-.6-1-.9-1.1-1.3S286.1,207.3,285.2,207.1Zm-1.1,11c.4,1.9-.9.2-.9-.9S283.7,218,284.1,218.1Zm-1.2-33.7c.5.9,0,1.4-.4,2.2A3.5,3.5,0,0,1,282.9,184.4Zm-2.7,16.5c.2-.8.3,0,.6.4S279.9,201.7,280.2,200.9ZM277.9,211c.9-.2,1.4-1.2.8.1S277.4,210.9,277.9,211Zm.1,7.3c3.2-2.6,2.8-2.9.9.6C279.4,221.4,275.8,219.2,278,218.3Zm.1,7.2a.6.6,0,1,1,.7-.9A.8.8,0,0,0,278.1,225.5Zm1.2,9.9a.7.7,0,0,0-.4-.6C279.6,232.7,279.3,234.2,279.3,235.4Zm.1.2a1.3,1.3,0,0,0,.1.6C278.5,237.4,279.4,236.4,279.4,235.6Zm.6-6c-1.1.3-2.3-4-.1-3.1C277.4,227.4,281.7,229.2,280,229.6Zm-.2-21.4c1-1.6,0-5,1.6-3.3C280.8,205.6,279.7,209.5,279.8,208.2Zm1.7-16.5c.9-1.9.6.9.9,1.8C281,194.6,281,192.8,281.5,191.7Zm3.1,34.6c-2.2,2.8-3.9-2.9-1.4-5.5C282.2,226,285.4,223.7,284.6,226.3Zm2.2-9.7c-1.2.8-.3-1.4.1-1.4S287,216.2,286.8,216.6Zm-1.1-5.1c-2.8.7,1.7-1.3.4-2.3C288.8,209.1,286,210.2,285.7,211.5Zm1.8-4.8c-.3-1-1-1.7.3-.9S287.9,206.4,287.5,206.7Zm1.2-56.4c.5.6.1,1.3-.5.5A1.2,1.2,0,0,0,288.7,150.3Zm.8,48.8c-.1,1.3.6,1.5-1.2,1.7C288.1,200.2,289.1,198.8,289.5,199.1Zm1.1,18c-.7,2.6-.2,2.3-2.2.7C290.2,214.3,290.6,210.9,290.6,217.1Zm1.9-12.2c-1.2,1.8.3-.8-1.9-1.2C289.7,201.3,294,204.5,292.5,204.9Zm-.7-17.3c1.6-.2,2-.2,2.1,1.3S291.5,189,291.8,187.6Zm1.6-17.4c.6.2,1.9-.5.8.3S293.5,170.6,293.4,170.2Z" fill-rule="evenodd"/><path d="M244.1,127.2l-.2.2C244,127.3,244,127.1,244.1,127.2Z" fill-rule="evenodd"/><path d="M226,121.3Z" fill-rule="evenodd"/><path d="M241.3,135.4c-.1.2,0,.1,0,0S241.4,135.6,241.3,135.4Z" fill-rule="evenodd"/><path d="M222.6,218.9c0,.3-.1.4-.3.4Z" fill-rule="evenodd"/><path d="M218,155.8Z" fill-rule="evenodd"/><path d="M227.6,145.5v-.2C227.7,145.4,227.7,145.5,227.6,145.5Z" fill-rule="evenodd"/><path d="M263.6,131a1.3,1.3,0,0,1,.1-.6C263.7,130.6,263.7,130.9,263.6,131Z" fill-rule="evenodd"/><path d="M248.4,123.5v.3C248.2,123.7,248.1,123.6,248.4,123.5Z" fill-rule="evenodd"/><path d="M246.2,124.6v.2C246.1,124.7,246.1,124.6,246.2,124.6Z" fill-rule="evenodd"/><path d="M234.8,229.9c-1.8-11.7-13.5,4.7-7.3,11.2,3.8,3.9-2.7,1.4-2.6,5.2-4.8,5.3,11.4-1.6,3.9-7C239.6,246.2,230.8,229.7,234.8,229.9Zm-5.2,3.3a6.9,6.9,0,0,1,.3-2C230.7,232.4,231.4,232.9,229.6,233.2Zm-1.7,1.5c.9,1.2.4,2.3.5,3.7A9.2,9.2,0,0,1,227.9,234.7Zm4.2,4.2c-3.9-.7.9-2.5.7.1A.8.8,0,0,1,232.1,238.9Zm0-9.9c-2.4-.3,1.5-1.8,1-.1C232.9,229.1,232.3,229,232.1,229Z"/><path d="M291.2,210.9c-4.3-1.5-13.3,13-16.2,5.6.7-1-1.1-2-1.8-1-1.3,10.8,13.8,1.1,16.8-3,6.5,7-6.9,6.7-4.3,9.4,6.7,3.8-6.5,10.7-2.5,16.4,1.3,2.6-3,2.8-.8,4.6,5.8-.2.3-8.7,4-11.8C288.5,224.4,296.8,217.6,291.2,210.9Z"/><path d="M276.6,203.1h0m5.1-10.3h0m-30.6-57.3h0m.1-.2h0m.9,0c-5.6,5.7-16.4,5.4-23,10.4-8.4,11.7-12.1,20-12.3,34.6a7.9,7.9,0,0,1,2.3-3.1c1.3-18.3,2.9-14.8,10.6-29.8,6.1-5.4,15.8-5.4,22.3-10.3,61.5,21,18.9,111.3-22,71.2,10.2,20.4,35.8,10.9,46.4-4h0c8.7-9.6,9.1-14.7,7.6-26.9,2.8-9.3-2.4-17-6.3-24.9-.5-3-3.6-3.8-5.5-5.7-2.8-7.8-13.1-6-18.2-10.8.4-1.3-1.5-2-1.9-.7" fill-rule="evenodd"/><path d="M293.8,165.9a1.1,1.1,0,0,0-1.8.7c-1-6-2.6-13.2-10.4-12.3-.4-3.6-4.6-4.5-6.8-6.8-4.5-6.6-13.1-8.5-19.7-12.6-7.7.5,16.7,8.7,19.5,15.1,8,3.7,3,6.3,6.1,6.5a6.5,6.5,0,0,1,8.3,5.3C288.2,171,299.7,173.7,293.8,165.9Z"/><path d="M251.1,135.8c-.9.2-4.2-.7-4.1,1S255,137.6,251.1,135.8Z"/></svg>
    </g>
  </svg>
  <svg xmlns="http://www.w3.org/2000/svg" preserveAspectRatio="xMidYMin slice" width="500" height="600" viewBox="0 0 500 600" style="overflow:visible">
    <g transform=" translate(250,300) scale(1) translate(-250,-300) translate(0,0)">
      <svg xmlns="http://www.w3.org/2000/svg" viewBox="0 0 500 600"><path d="M233.9,236.9c1.7,10.1,11.6,8.3,19,10.6,6-1.4,20.2-4.2,22.9-11,7.4.5,21.4-1.6,26.2,6.4l4.2,41.4c-2.2,1.2-19.4,1.6-22.2,1.7l-1.4,11.4a236.5,236.5,0,0,0-1.4,31.5l5.2,34.8-7.2,4c-10.5-.4-51.5,4.9-58.8-5.6-.9-5.5,3.6-24,4.8-29.6-2.2-15.8-2.5-37.2-2.2-53L218.2,293c-4.3-7-9.2-19.3-16.3-23.9C217.5,236.5,203.3,237.9,233.9,236.9Z" fill="#fff" fill-rule="evenodd"/><path d="M158,192.5c-4.7,16.9-3.1,19.8,6,35.5q6.5,42.6,14.3,63.3c19.3,43.7,22.4,25.6,38.7-2.3l-15-20-6.4,14-19.9-59.5c5.8-5.3,12.2-8.8,8.1-16-8.3,21.9-16.3-7.3,0-1.5.6-.2,1.1-1.2,1.6-3.1-3.9-9-5.9-7.1-14.4-2.1-.4-8.3-1.2-30-6-16.3C158.9,181,159.8,185.7,158,192.5Z" fill="#fff" fill-rule="evenodd"/><path d="M283.5,286c-.4,7-2.3,27.5-3,34.8,0,14.1,5.4,36.7,6.7,50.7-4.1,12.1-6.8,25,8.3,30.2,8.2-5.7,8.1-18.6,4.1-26.8l-1.1-29.3c-.1-14.8.1-44.9.5-59.6Z" fill="#fff" fill-rule="evenodd"/><path d="M242,219.7c-1.2,3.9-2.9,17.2-8.2,18.2,2.3,8.5,14.2,8.3,20.9,10,4.8-1.8,18.5-6.5,22-10.4-8.8-2.5-14.3-10.8-15-19.7L242.9,220" fill="#fff" fill-rule="evenodd"/><polygon points="284 286 284 293 299 293 299 286 284 286" fill-rule="evenodd" opacity="0.2" style="isolation:isolate"/><path d="M232,239l-18,44-12-14c1.8-5.4,9.7-24.4,12-30C217.9,236.1,227.7,238.1,232,239Z" fill-rule="evenodd" opacity="0.2" style="isolation:isolate"/><path d="M242,219l20-2,2,11c1.2.8,8.1,9.4,10,8C262.2,256,242.8,232.7,242,219Z" fill-rule="evenodd" opacity="0.2" style="isolation:isolate"/><path d="M211.1,290.6c.1-.2.4-.4.1-.5a4.3,4.3,0,0,0-.1.5" fill-rule="evenodd"/><path d="M302,272.6v-.1h0" fill-rule="evenodd"/><path d="M303.9,281.9c0,.1.1.2.1.3v-.5c0,.1-.1.1-.1.2" fill-rule="evenodd"/><path d="M303.3,288.5c-.4,0,.1.6.3,0h-.3" fill-rule="evenodd"/><path d="M299.6,321.1v0" fill-rule="evenodd"/><path d="M262.6,213.3c1.2,3.9-.3,10.5,3.1,14.7a13.3,13.3,0,0,0,7.2,6.6,14.8,14.8,0,0,0,5,1l3.1.2h12.3c14.6-.6,11.9,37.8,13,48.5a5.4,5.4,0,0,1-3.3,1.8h-.4a7,7,0,0,0-1.4.3c-.2-.3-.7-.1-1.2-.2-.3,20.7-1.6,44.1-.5,65.2-.7,5.1,3.9,31-.9,26.3-.1-15.6-1.5-31.2-1.2-47.1a241.1,241.1,0,0,1,.9-32.9c-.5-3.5,1.9-11-1.7-11.5H285.5c-.2.1-1.1,0-1,.3a83.9,83.9,0,0,1-1.1,15.9c-3.9,20.2.6,40.4,3.9,60.1,2.9,7.3-2,13.3-2.8,20.8.1,5.6-1,12.5,1.6,17.4,2.1,1.2,3.4-1.3,4-3,.9,3.9,3.7,8.5,6.9,3.1,2.1,48.2-5.1,96.9-1.7,145.2-1.2,7.8,1.1,16.1-1.1,23.7-2.9,3.7,3.4,3.9,5.4,6.5l1.6,1.4,2,1.9a70.4,70.4,0,0,1,5.4,6.6c8.1,12.8-13,13.2-20.1,7.6a11.4,11.4,0,0,1-2.2-1.2l-3-1.9-1.5-1c-.9-.8-2-1.5-2.9-2.4a56.2,56.2,0,0,1-5.4-5.5,19.8,19.8,0,0,1-1.9-3.1c-4-33.2-7.6-69-11.6-103-2.5-27.3-.9-55.2-4.9-82.4-5.6,46.4-1.9,93.3-9.7,139.7-.9,10,.3,20.6.8,30.8,1.3,8.3,7.5,13.3-3.8,19.9l-2.5,1.5-3.1,1.7-3,1.5c-.9.4-2,1-2.9,1.3l-3.4,1.3-1.4.4-2,.6a29.7,29.7,0,0,1-4.3.7l-1.7.2-2.1.2-1.7.2h-2.5c-5.6.3-10-5-6.3-9.9a25.6,25.6,0,0,1,3.9-4.8,17.3,17.3,0,0,1,2.8-2.6c1.2-.9,2.6-1.7,3.9-2.5-1-45.5-3.3-97.5,0-145,1.6-18.1,2.7-35.8,3.5-54.2.4-10.5-.4-21.2,2.4-31.8,4.2-19.4-2.5-39.1.3-58.5-1.5,3.2-1.6,7.3-3.6,10.1a1.5,1.5,0,0,1-2.1-.6h0c-.2,1.2-1.4,3.1-.8,1.1l-1.5,2.1c-.7.5,0,1.6-.8,1.2-6,5.7-9.4,23.6-17.5,22,9.4-6.3,12.7-19.3,17.9-29.4.5-5.4-4.8-11.6-7.8-16.3l-1.4-1.7a15.7,15.7,0,0,0-1.8-1.9c-.1-.2-.3-.3-.5-.5s-.1.8-.1,1.1c-.7-3-.1-4.7.7-8.8h0c2.9-7.4,5-15.3,8.8-22.3,1.5-2.7,4.5-4.8,7.8-4.1l2.4.2a49.5,49.5,0,0,0,7.7-.2c11.1,1.2,7.7-13.2,12.6-18,1.2,4.7-.8,16.5-5.8,19.5a20.4,20.4,0,0,1-7.4,1.5h-3a12.7,12.7,0,0,1-2.8-.2h-1.1c-3.1-.5-6.5-1.1-8,2.2-4,7.9-5.9,17-9.7,25-.4,1.1-2.2,2.5-.7,3.3l2.7,2.9.3.4c4.6,5.3,7.4,11.4,10.8,17.7,7.2-20,12.5-37.2,6.1-2.8-.7,18.1,5.2,35.8,1.4,53.9.6,6.2-6.9,16.8-1.7,20.8,3.1,2.6,7.3,3.6,11.1,4.5l1.4.3a27.5,27.5,0,0,0,5.7.5c2.9.1,6,.2,9.1.1H258l7.6-.5h1.1l4.8-.5h.1l3.1-.5a23.8,23.8,0,0,0,3.7-.6l1.8-.4a11.1,11.1,0,0,0,3-1.2l.6-.3c.7-.5,1.4-.5.8-1.4a197.7,197.7,0,0,1-4.3-26.5c-3-18.4,3.2-36.4,1.6-54.8.3-5.3-3.6-11.9-2.6-16.7,2.3,1.7,2.3,6.8,3.5,9.7s.2,9.9,2.7,10.6h.6l4.1-.2h6.1c1.3.1,2.6,0,3.9.2l1,.2a3.3,3.3,0,0,0,2.7-.7h0c1.1-.1.2-4.8.2-6.4a8.6,8.6,0,0,1-.1,1.7c-.5-8.2-1-16.5-1.9-24.2s-1.8-19.1-12.4-16.7h-1.1c-5.4-.2-11.1.2-16.4-1.5l-1-.5L269,235C262.9,231,259,219.5,262.6,213.3Zm26.4,362a29.5,29.5,0,0,1-8.3,1.4s-.2,0-.2-.1a27.7,27.7,0,0,0,9.4,5.9c1.9,1.1,7.6,1.6,4.5-1.8a20.3,20.3,0,0,0-4.8-4.9A1.5,1.5,0,0,1,289,575.3Zm-65.7-1a9,9,0,0,1-2.4,1.2c-4.9,1.2-8.8,8.2-.8,6.7a35.5,35.5,0,0,0,6.4-1.7,55.5,55.5,0,0,0,7-3.2l1.9-1,.3-.2c-4.2-.2-8-1.5-12.3-1.8Z" fill-rule="evenodd"/><path d="M199.6,315.5c-1.3.6-.5,1.1.1,0h-.1" fill-rule="evenodd"/><path d="M181.7,305.3c.7,2.8.1.4-.2-.9.1.3.1.6.2.9" fill-rule="evenodd"/><path d="M221.5,476.9h0M217.6,435c.8,4.7.6,10.8.8,16-.3-5.1-1.6-11.5-.8-16m-.1-24.9c-.1,1.5-.1,3-.1,4.5,0-1.5,0-3,.1-4.5m2.9-45.6h0m-.1-5.3c-.8,5.9-2,11.7-2.8,17.6a.1.1,0,0,0,.1-.1c-3.4,33.3-5.6,69.8,3.2,101.8-2.8-34.9.8-76.6-1-109.4.1-.5.1-1,.2-1.5h0c-.4-2.1,2.4-8.7.3-8.5" fill-rule="evenodd"/><path d="M187.1,260.4h0" fill="#fff" fill-rule="evenodd"/><path d="M183.8,234.4a12.1,12.1,0,0,1,.5,1.4c-.1-.4.4-1.7-.5-1.4" fill-rule="evenodd"/><path d="M185.3,238.3h0" fill-rule="evenodd"/><path d="M274,236.5c-9.6,10.4-33.5,14.5-39.8.2-6.2,10.5,16.3,14.4,23.9,12.2,4.8-.2,25.2-8.9,15.9-12.4" fill-rule="evenodd"/><path d="M194.3,320.2h0" fill-rule="evenodd"/><path d="M286.9,391.9h0m-.9-32.4c1,7.3.7,15.8-2.6,23.3-2.6,4.9,1.6,17.2,6.5,8.4.5-2.7-2.4-1.4-2.8.4-5.7-7.7,7.3-23.7-1.1-32.1" fill-rule="evenodd"/><path d="M301.7,377.3v0m-3.1-4.9c5.3,8.6-1,41.8-9.7,20.6-.9-2.3-2.1.5-1.7,1.8,5.7,19.4,20.9-3,15.8-14-1.6-1.8-1.8-11.4-4.4-8.4" fill-rule="evenodd"/><path d="M298.6,373.1c-.5,3.7.3,8,2.6,10.8-.9-2.7-1.9-9.4-2.6-10.8" fill-rule="evenodd"/><path d="M289.3,396.1h0m.3-.1h0m2.7-4.5a8,8,0,0,1-3.8,5.1c1.7,2.6,6.4-6,3.8-5.1" fill-rule="evenodd"/><path d="M296,391.8c-1.7,2.9-3.1,6-6.1,7.3,2.4,3.5,8.6-6,6.1-7.3" fill-rule="evenodd"/><path d="M297.8,393.9c-.5,2.9-2.9,5.2-3.8,7.4,2.4,1.9,6.9-9,3.8-7.4" fill-rule="evenodd"/><path d="M289,401.8h0m.1-.4h0m-2.6-7.4h0m-2-.5a1,1,0,0,0-.1.9c-2.3-.1.5,2-.2,2.4-2.4,4.1,2.9,9,6.4,6.3,3.3,5.3,10.4-1.3,3.4-.9-1.5-.3-3.2-2.4-4.6-1.5.1-2.5-1.5-8.4-4.9-7.2" fill-rule="evenodd"/><path d="M281.9,292.5c-13.7,8.6-27.9,8-40.6,12.4,13,3.8,34.5,4.4,41-9.9" fill-rule="evenodd" opacity="0.2" style="isolation:isolate"/><path d="M277.5,330.3c-.5.3-.4.9-.5,1.4-6.3,6.8-6.4,23.1-13.1,32.1,2.5,8.6,18.2-32,13.6-33.5" fill-rule="evenodd" opacity="0.2" style="isolation:isolate"/><path d="M280.1,342.9c-1.4,2-14.7,27.4-7.8,19.3,2.8,3,14.2-17.7,8.5-17.1,0-.7.8-3.6-.7-2.2" fill-rule="evenodd" opacity="0.2" style="isolation:isolate"/><path d="M276.4,363.4h0m4-9.3c-1.4,3.4-6,8.1-4,10.6,2.4-.9,7.7-10.8,4-10.6" fill-rule="evenodd" opacity="0.2" style="isolation:isolate"/><path d="M171.6,204.6v0m-1.3-1.7h0m8-4.6h0m-12.1-17.6h0m.3-.1h0m-.2-1.6c-2.9.9-2.9,7.8-1.7,9.8,1.4-1,.3-3.9,1-5.6,0,.1,0,.1-.1.2,4.2-11.3,1.1,26.6,5.9,21.8v.2c2.7-8.7,8.8-7,14.7-4.2-2.3-7.6-12.1-6.3-15,.2-.9-6.8,1.5-18.2-4.7-22.4" fill-rule="evenodd"/><path d="M160.4,182.1c-5.5,2.5-.4,26.3,2.7,22.7v.2c-.7-6.6-2.3-13.2-1.7-19.8,3.9,7.6,4.8-4.4-1-3.1" fill-rule="evenodd"/><path d="M167.2,178c-6.9,5.7-1.8,21.4-.9,29,1.6-7.1-3-19.2,1-26.4C172.8,231.7,175.2,184.7,167.2,178Z" fill-rule="evenodd"/><path d="M158.9,194.4h0m-1.2-3.4c-8.2,8.3-2.4,31.4,5.7,37.8-.4-6.2-6.1-13.9-6.1-21.3v.2c-3.3-5.4,5.8-15.1.4-16.7" fill-rule="evenodd"/><path d="M185.2,207c-6.5-1.3-4.6,8.3-10.2,8.9,6.2,6,6.4-12.4,11-6.5-.2-.8.2-2.7-.8-2.4" fill-rule="evenodd"/><path d="M183.4,207c-1.8,1.3.9,1.4,1.3,2.3,2.1,8.2-8.9,8.9-9.7,14.8,1.4,2.8,2.1-1.2,2.8-2.2,6.4-.4,14.2-12.9,5.6-14.9" fill-rule="evenodd"/><path d="M176.6,205h0m-.1,0h0m.2,9.6h0m6.6-15.5c1.3,11.8.3,3.4-6.7,5.9-4.7,1.3-2.4,14.5,1.4,9.7-5-4.2-1.6-10.6,6.2-7,4.6-.3,2.9-8.9-.9-8.6" fill-rule="evenodd"/><path d="M164,228c9.3,44.8,8.9,66.2,32.5,92.1" fill="none" stroke="#000" stroke-width="2"/><path d="M175.7,223.5c7.8,23.6,19.2,54.2,22,66Q197.7,293,175.7,223.5Z" fill="none" stroke="#000" stroke-width="2"/><line x1="204.6" y1="260.6" x2="197.3" y2="283" fill="none" stroke="#000" stroke-width="2"/><path d="M223,574.3c-1.5.9-3,1.7-4.4,2.7a11.4,11.4,0,0,0-2.5,1.8c-.6.6-1.2,1.5-.9,2.3a2,2,0,0,0,2.1,1.4,15.6,15.6,0,0,0,4.8-.8l6.5-1.9c2-.7,4-1.3,6-2.1a1.5,1.5,0,0,0,0-2.9,9.3,9.3,0,0,0-3.3-.3c-1.5,0-2.9.2-4.4.3l-4.3.7c-1,.3-2.3.7-2.6,1.8s2.3,2.4,3.7,2.6a1.5,1.5,0,0,0,1.5-1.5,1.5,1.5,0,0,0-1.5-1.5c-.4,0,.3.1,0,0h-.6l-.7-.2c-.2,0-.5-.2.1.1h-.2a1.3,1.3,0,0,1,.4,1.8c.1-.1-.3.4-.1.2s-.3.2-.2.1.2,0,.2-.1h-.1l1.3-.4,1.7-.3h.7c.3,0-.3.1-.1,0h1.1l3.9-.3h2.2c.4,0-.3-.1,0,0h.5v-2.9a108.7,108.7,0,0,1-11,3.6l-2.7.7-1.3.3h-.5c0,.1-.1.1-.2.1s.4-.1.1,0h-1c-.2,0,0-.1.3,0h-.1c-.2,0-.3-.1.2.1h-.1l.5.4a1.7,1.7,0,0,1,.1,1c.1-.3-.2.4-.1.1s-.3.3,0,.1l.8-.7h-.1v-.2l.3-.2.8-.5,4.6-2.8a1.5,1.5,0,1,0-1.5-2.6Z" fill="#fff"/><path d="M282.4,578.8h5a4,4,0,0,1,1.5.3l1.3.4c.1.1-.4-.1-.2-.1a.1.1,0,0,0,.1.1h.3l.5.3.4.3h.2l.6.6c.1.1.1.2-.1-.1a.1.1,0,0,1,.1.1l.2.3h0c-.1-.3,0-.1,0,0a.4.4,0,0,0,.1.3c-.1-.1-.1-.5-.1-.3v.2c.1.2.1-.5,0-.2s.2-.3.1-.1.2-.3.1,0h-.1s.3-.2.1-.1h-.2c.3-.1,0,0-.1,0h-.7c-.2-.1.4,0,.2,0l-1.1-.3-.8-.2-.4-.2c.4.3,0,0-.1-.1a7.6,7.6,0,0,1-1.8-.9l-2-1.3-1.1-.8-1.1-.8-1,2.6h.3l.6.2,1,.2,1.8.8,3.9,2a1.6,1.6,0,0,0,2.1-.6,1.5,1.5,0,0,0-.6-2c-3-1.5-5.7-3.3-9.1-3.6a1.4,1.4,0,0,0-1.4.9,1.7,1.7,0,0,0,.3,1.7,28.9,28.9,0,0,0,8.1,4.8c1.4.6,3.4,1,4.8.1a3,3,0,0,0,.7-4.1,8,8,0,0,0-4.2-3,18.4,18.4,0,0,0-9-.6,1.6,1.6,0,0,0-1.1,1.9,1.6,1.6,0,0,0,1.9,1Z" fill="#fff"/></svg>
    </g>
  </svg>

    </g>
  </svg>