<svg id="Layer_1" data-name="Layer 1" xmlns="http://www.w3.org/2000/svg" viewBox="0 0 150 150"><defs><style>.cls-1{fill:#fee55a;}.cls-2{fill:#bced6b;}.cls-3{fill:#43cb8e;}.cls-4{fill:#ffd301;}.cls-5{fill:#98d829;}.cls-6{fill:#00ba66;}.cls-7{fill:#ffc20c;}.cls-8{fill:#8cc825;}.cls-9{fill:#00a855;}.cls-10{fill:#2670bf;}</style></defs><path class="cls-1" d="M104.67,26.66l-21-16.94a1.86,1.86,0,0,0-3,1.45v5.22a1,1,0,0,1-1,.95h-15a20.56,20.56,0,0,1,0,21.52h15a1,1,0,0,1,1,1V45a1.86,1.86,0,0,0,3,1.45l21-16.94A1.85,1.85,0,0,0,104.67,26.66Z"/><path class="cls-2" d="M121.87,76,100.92,59a1.86,1.86,0,0,0-3,1.45V65.7a1,1,0,0,1-1,1H64.72a20.56,20.56,0,0,1,0,21.52H96.94a1,1,0,0,1,1,1v5.22a1.86,1.86,0,0,0,3,1.45l21-16.94a1.85,1.85,0,0,0,0-2.88Z"/><path class="cls-3" d="M139.07,125.27l-20.95-16.93a1.85,1.85,0,0,0-3,1.45V115a1,1,0,0,1-.95.95H64.72a20.56,20.56,0,0,1,0,21.52h49.43a1,1,0,0,1,.94,1v5.22a1.86,1.86,0,0,0,3,1.44l20.95-16.93a1.86,1.86,0,0,0,0-2.89Z"/><path class="cls-4" d="M65.56,17.34H45.67a20.56,20.56,0,0,1,0,21.52H65.56a20.56,20.56,0,0,0,0-21.52Z"/><path class="cls-5" d="M65.56,66.65H45.67a20.56,20.56,0,0,1,0,21.52H65.56a20.56,20.56,0,0,0,0-21.52Z"/><path class="cls-6" d="M65.56,116H45.67a20.56,20.56,0,0,1,0,21.52H65.56a20.56,20.56,0,0,0,0-21.52Z"/><path class="cls-7" d="M56.07,17.34H45.67a20.56,20.56,0,0,1,0,21.52h10.4a20.56,20.56,0,0,0,0-21.52Z"/><path class="cls-8" d="M56.07,66.65H45.67a20.56,20.56,0,0,1,0,21.52h10.4a20.56,20.56,0,0,0,0-21.52Z"/><path class="cls-9" d="M56.07,116H45.67a20.56,20.56,0,0,1,0,21.52h10.4a20.56,20.56,0,0,0,0-21.52Z"/><circle class="cls-10" cx="29.3" cy="28.1" r="20.54"/><circle class="cls-10" cx="29.3" cy="77.41" r="20.54"/><circle class="cls-10" cx="29.3" cy="126.72" r="20.54"/><path class="cls-4" d="M29.53,38.27a2.11,2.11,0,0,1-2.11-2.1V23.37a2.12,2.12,0,0,1-2.49-1.11,2.09,2.09,0,0,1,1-2.81l2.7-1.31a2.09,2.09,0,0,1,2,.11,2.13,2.13,0,0,1,1,1.79V36.17A2.11,2.11,0,0,1,29.53,38.27Z"/><path class="cls-5" d="M34.22,87.65H24.37a2.11,2.11,0,0,1-1.53-3.55l7.61-8a3.28,3.28,0,0,0,.93-2.43,2.52,2.52,0,0,0-1-1.79,2.2,2.2,0,0,0-1.86-.39,3.52,3.52,0,0,0-2.32,1.73,2.11,2.11,0,1,1-3.71-2,7.69,7.69,0,0,1,5.18-3.87A6.36,6.36,0,0,1,33,68.54a6.7,6.7,0,0,1,2.54,4.73,7.49,7.49,0,0,1-2,5.62l0,0-4.26,4.51h4.95a2.11,2.11,0,1,1,0,4.21Z"/><path class="cls-6" d="M37,122.65a6.18,6.18,0,0,0-6.18-6.17h-4.2a2.11,2.11,0,1,0,0,4.21h4.2a2,2,0,0,1,0,3.92h-4.2a2.11,2.11,0,1,0,0,4.22h4.2a2,2,0,1,1,0,3.91h-4.2a2.11,2.11,0,1,0,0,4.22h4.2a6.17,6.17,0,0,0,4.65-10.24A6.17,6.17,0,0,0,37,122.65Z"/></svg>