<svg id="Layer_1" data-name="Layer 1" xmlns="http://www.w3.org/2000/svg" viewBox="0 0 150 150"><defs><style>.cls-1{fill:#e7ebef}.cls-3{fill:#fdd5a6}.cls-4{fill:#fdcc93}.cls-5{fill:#68b1fc}.cls-6{fill:#fc6067}.cls-8{fill:#4fa4fb}.cls-10{fill:#fb4f56}</style></defs><g id="layer1"><path id="path22342" class="cls-1" d="M14.94 14.11a6.7 6.7 0 0 0-6.66 6.68v71.12a6.69 6.69 0 0 0 6.66 6.66h111.11a6.71 6.71 0 0 0 6.68-6.66V20.79a6.72 6.72 0 0 0-6.68-6.68z"/><path id="path22434" d="M117.16 14.11a6.72 6.72 0 0 1 6.68 6.68v66.67a6.7 6.7 0 0 1-6.68 6.66H14.94a6.68 6.68 0 0 1-6.66-6.66v4.45a6.69 6.69 0 0 0 6.66 6.66h111.11a6.71 6.71 0 0 0 6.68-6.66V20.79a6.73 6.73 0 0 0-6.68-6.68z" style="fill:#dbe1e7"/><path id="path22307" class="cls-3" d="M28.29 103a11.14 11.14 0 0 0-11.12 11.11v2.23a11.12 11.12 0 0 0 22.23 0v-2.23A11.13 11.13 0 0 0 28.29 103z"/><path id="path22311" class="cls-3" d="M121.6 103a11.13 11.13 0 0 0-11.1 11.11v2.23a11.12 11.12 0 0 0 22.23 0v-2.23A11.15 11.15 0 0 0 121.6 103z"/><path id="path22324" class="cls-4" d="M28.29 103a11 11 0 0 0-4.45.95 11.13 11.13 0 0 1 6.67 10.16v2.23a11.13 11.13 0 0 1-6.67 10.16 11.07 11.07 0 0 0 15.56-10.15v-2.23A11.13 11.13 0 0 0 28.29 103z"/><path id="path22326" class="cls-4" d="M121.62 103a11.06 11.06 0 0 0-4.45.95 11.13 11.13 0 0 1 6.67 10.16v2.23a11.13 11.13 0 0 1-6.67 10.16 11.07 11.07 0 0 0 15.56-10.16v-2.23A11.13 11.13 0 0 0 121.62 103z"/><path id="path22303" class="cls-3" d="M74.93 103a11.14 11.14 0 0 0-11.12 11.11v2.23a11.12 11.12 0 0 0 22.23 0v-2.23A11.13 11.13 0 0 0 74.93 103z"/><path id="path22313" class="cls-4" d="M74.93 103a11.06 11.06 0 0 0-4.45.95 11.11 11.11 0 0 1 6.67 10.16v2.23a11.11 11.11 0 0 1-6.67 10.16A11.07 11.07 0 0 0 86 116.35v-2.23A11.13 11.13 0 0 0 74.93 103z"/><path id="path22338" class="cls-5" d="M19.38 23a2.23 2.23 0 0 0-2.23 2.22v62.24a2.21 2.21 0 0 0 2.23 2.21H121.6a2.21 2.21 0 0 0 2.23-2.21V25.23a2.22 2.22 0 0 0-2.21-2.23H19.38z"/><path id="path22291" class="cls-6" d="M21.61 123a13.35 13.35 0 0 0-13.33 13.35v4.44a2.21 2.21 0 0 0 2.21 2.21h35.57a2.22 2.22 0 0 0 2.23-2.21v-4.46A13.36 13.36 0 0 0 35 123z"/><path id="path22295" class="cls-5" d="M81.61 123A13.36 13.36 0 0 1 95 136.35v4.44a2.22 2.22 0 0 1-2.27 2.21H57.16a2.22 2.22 0 0 1-2.23-2.21v-4.46A13.36 13.36 0 0 1 68.27 123z"/><path id="path22299" d="M128.3 123a13.35 13.35 0 0 1 13.32 13.34v4.44a2.22 2.22 0 0 1-2.22 2.22h-35.55a2.22 2.22 0 0 1-2.23-2.21v-4.46A13.36 13.36 0 0 1 115 123z" style="fill:#59e78b"/><path id="path22315" class="cls-8" d="M83.83 138.58H57.17a2.23 2.23 0 0 1-2.24-2.23v4.44a2.24 2.24 0 0 0 2.24 2.21h35.55a2.23 2.23 0 0 0 2.28-2.21v-4.44A13.36 13.36 0 0 0 81.61 123h-8.89a13.36 13.36 0 0 1 13.34 13.34 2.23 2.23 0 0 1-2.23 2.24z"/><path id="path22328" d="M130.5 138.58h-26.66a2.21 2.21 0 0 1-2.23-2.23v4.44a2.22 2.22 0 0 0 2.23 2.24h35.55a2.23 2.23 0 0 0 2.23-2.24v-4.44A13.36 13.36 0 0 0 128.28 123h-8.89a13.36 13.36 0 0 1 13.34 13.34 2.23 2.23 0 0 1-2.23 2.23z" style="fill:#41e37a"/><path id="path22330" class="cls-10" d="M37.17 138.58H10.51a2.21 2.21 0 0 1-2.23-2.23v4.44a2.22 2.22 0 0 0 2.23 2.21h35.55a2.23 2.23 0 0 0 2.23-2.24v-4.44A13.36 13.36 0 0 0 35 123h-8.94a13.36 13.36 0 0 1 13.34 13.35 2.23 2.23 0 0 1-2.23 2.23z"/><path id="path22429" class="cls-8" d="M19.38 23a2.23 2.23 0 0 0-2.23 2.24v62.22a2.23 2.23 0 0 0 2.23 2.22h8.89A2.23 2.23 0 0 1 26 87.46V29.68a2.22 2.22 0 0 1 2.23-2.23h93.37a2.23 2.23 0 0 1 2.24 2.23v-4.44A2.24 2.24 0 0 0 121.6 23z"/><path id="path22417" class="cls-6" d="M77.16 9.68a6.7 6.7 0 0 0-6.66 6.66v35.55a6.71 6.71 0 0 0 6.66 6.68h2.22v11.1a2.22 2.22 0 0 0 2.21 2.24 2.25 2.25 0 0 0 1.46-.54L98 58.57h37a6.72 6.72 0 0 0 6.68-6.68V16.34A6.71 6.71 0 0 0 135 9.68z"/><path id="path22427" class="cls-1" d="M95 23v22.23a2.22 2.22 0 0 0 3.39 1.89L116.12 36a2.22 2.22 0 0 0 0-3.77L98.34 21.12A2.21 2.21 0 0 0 95 23z"/><path id="path22439" class="cls-10" d="M126.05 9.68a6.71 6.71 0 0 1 6.68 6.66v31.11a6.73 6.73 0 0 1-6.68 6.68H98L83.05 66.92a2.22 2.22 0 0 1-3.67-1.69v4.44a2.22 2.22 0 0 0 3.67 1.7L98 58.57h37a6.72 6.72 0 0 0 6.68-6.68V16.34A6.71 6.71 0 0 0 135 9.68z"/><path id="path9871-9-6" d="M39.38 71.91A13.35 13.35 0 0 0 26 85.23v4.44h49v-4.44a13.35 13.35 0 0 0-13.39-13.32z" style="fill:#fcbc60"/><path id="path22408" d="M52.72 71.91a13.34 13.34 0 0 1 13.33 13.32v4.44h8.89v-4.44a13.34 13.34 0 0 0-13.33-13.32z" style="fill:#fbb04f"/><path id="path9878-9-3" class="cls-3" d="M41.61 63v11.13a2.94 2.94 0 0 0 0 .51 8.3 8.3 0 0 0 1.71 3.16 9.31 9.31 0 0 0 7.13 3 9.27 9.27 0 0 0 7.12-3 8.3 8.3 0 0 0 1.71-3.16 2.21 2.21 0 0 0 .05-.51V63z"/><path id="path9906-3-7" class="cls-4" d="M41.61 63v8.7a17.52 17.52 0 0 0 17.77 0V63z"/><path id="path9864-2-1" class="cls-3" d="M37.17 47.45v8.89a13.33 13.33 0 1 0 26.66 0v-8.89z"/><path id="path9895-7-4" class="cls-4" d="M54.94 47.45v8.89a13.36 13.36 0 0 1-8.88 12.56 13.08 13.08 0 0 0 4.44.78 13.35 13.35 0 0 0 13.33-13.34v-8.89z"/><path id="path9857-2-7" d="M48.27 31.9a13.36 13.36 0 0 0-13.34 13.34v6.66a2.23 2.23 0 0 0 2.24 2.23h6.65c5.68 0 11.54-2.9 13-3.85L60 53.47a2.2 2.2 0 0 0 1.57.66h2.22a2.23 2.23 0 0 0 2.23-2.23v-6.66a13.36 13.36 0 0 0-13.3-13.34z" style="fill:#5a626e"/><path id="path9893-8-1" d="M48.27 31.9a13.57 13.57 0 0 0-2.22.2 13.36 13.36 0 0 1 11.12 13.14v5.37L60 53.47a2.2 2.2 0 0 0 1.57.66h2.22a2.23 2.23 0 0 0 2.23-2.23v-6.66a13.36 13.36 0 0 0-13.3-13.34z" style="fill:#515663"/></g></svg>