<svg id="Layer_1" data-name="Layer 1" xmlns="http://www.w3.org/2000/svg" viewBox="0 0 150 150"><defs><style>.cls-1{fill:#e7ebef;}.cls-2{fill:#dbe1e7;}.cls-3{fill:#fdd5a6;}.cls-4{fill:#fdcc93;}.cls-5{fill:#68b1fc;}.cls-6{fill:#fc6067;}.cls-7{fill:#59e78b;}.cls-8{fill:#4fa4fb;}.cls-9{fill:#41e37a;}.cls-10{fill:#fb4f56;}.cls-11{fill:#fcbc60;}.cls-12{fill:#fbb04f;}.cls-13{fill:#5a626e;}.cls-14{fill:#515663;}</style></defs><g id="layer1"><path id="path22342" class="cls-1" d="M14.94,14.11a6.7,6.7,0,0,0-6.66,6.68V91.91a6.69,6.69,0,0,0,6.66,6.66H126.05a6.71,6.71,0,0,0,6.68-6.66V20.79a6.72,6.72,0,0,0-6.68-6.68Z"/><path id="path22434" class="cls-2" d="M117.16,14.11a6.72,6.72,0,0,1,6.68,6.68V87.46a6.7,6.7,0,0,1-6.68,6.66H14.94a6.68,6.68,0,0,1-6.66-6.66v4.45a6.69,6.69,0,0,0,6.66,6.66H126.05a6.71,6.71,0,0,0,6.68-6.66V20.79a6.73,6.73,0,0,0-6.68-6.68Z"/><path id="path22307" class="cls-3" d="M28.29,103a11.14,11.14,0,0,0-11.12,11.11v2.23a11.12,11.12,0,0,0,22.23,0v-2.23A11.13,11.13,0,0,0,28.29,103Z"/><path id="path22311" class="cls-3" d="M121.6,103a11.13,11.13,0,0,0-11.1,11.11v2.23a11.12,11.12,0,0,0,22.23,0v-2.23A11.15,11.15,0,0,0,121.6,103Z"/><path id="path22324" class="cls-4" d="M28.29,103a11,11,0,0,0-4.45.95,11.13,11.13,0,0,1,6.67,10.16v2.23a11.13,11.13,0,0,1-6.67,10.16A11.07,11.07,0,0,0,39.4,116.35v-2.23A11.13,11.13,0,0,0,28.29,103Z"/><path id="path22326" class="cls-4" d="M121.62,103a11.06,11.06,0,0,0-4.45.95,11.13,11.13,0,0,1,6.67,10.16v2.23a11.13,11.13,0,0,1-6.67,10.16,11.07,11.07,0,0,0,15.56-10.16v-2.23A11.13,11.13,0,0,0,121.62,103Z"/><path id="path22303" class="cls-3" d="M74.93,103a11.14,11.14,0,0,0-11.12,11.11v2.23a11.12,11.12,0,0,0,22.23,0v-2.23A11.13,11.13,0,0,0,74.93,103Z"/><path id="path22313" class="cls-4" d="M74.93,103a11.06,11.06,0,0,0-4.45.95,11.11,11.11,0,0,1,6.67,10.16v2.23a11.11,11.11,0,0,1-6.67,10.16A11.07,11.07,0,0,0,86,116.35v-2.23A11.13,11.13,0,0,0,74.93,103Z"/><path id="path22338" class="cls-5" d="M19.38,23a2.23,2.23,0,0,0-2.23,2.22h0V87.46a2.21,2.21,0,0,0,2.23,2.21H121.6a2.21,2.21,0,0,0,2.23-2.21h0V25.23A2.22,2.22,0,0,0,121.62,23H19.38Z"/><path id="path22291" class="cls-6" d="M21.61,123A13.35,13.35,0,0,0,8.28,136.35v4.44A2.21,2.21,0,0,0,10.49,143H46.06a2.22,2.22,0,0,0,2.23-2.21v-4.46A13.36,13.36,0,0,0,35,123Z"/><path id="path22295" class="cls-5" d="M81.61,123A13.36,13.36,0,0,1,95,136.35v4.44A2.22,2.22,0,0,1,92.73,143H57.16a2.22,2.22,0,0,1-2.23-2.21v-4.46A13.36,13.36,0,0,1,68.27,123Z"/><path id="path22299" class="cls-7" d="M128.3,123a13.35,13.35,0,0,1,13.32,13.34v4.44A2.22,2.22,0,0,1,139.4,143H103.85a2.22,2.22,0,0,1-2.23-2.21v-4.46A13.36,13.36,0,0,1,115,123Z"/><path id="path22315" class="cls-8" d="M83.83,138.58H57.17a2.23,2.23,0,0,1-2.24-2.23v4.44A2.24,2.24,0,0,0,57.17,143H92.72A2.23,2.23,0,0,0,95,140.79v-4.44A13.36,13.36,0,0,0,81.61,123H72.72a13.36,13.36,0,0,1,13.34,13.34A2.23,2.23,0,0,1,83.83,138.58Z"/><path id="path22328" class="cls-9" d="M130.5,138.58H103.84a2.21,2.21,0,0,1-2.23-2.23v4.44a2.22,2.22,0,0,0,2.23,2.24h35.55a2.23,2.23,0,0,0,2.23-2.24v-4.44A13.36,13.36,0,0,0,128.28,123h-8.89a13.36,13.36,0,0,1,13.34,13.34,2.23,2.23,0,0,1-2.23,2.23Z"/><path id="path22330" class="cls-10" d="M37.17,138.58H10.51a2.21,2.21,0,0,1-2.23-2.23v4.44A2.22,2.22,0,0,0,10.51,143H46.06a2.23,2.23,0,0,0,2.23-2.24v-4.44A13.36,13.36,0,0,0,35,123H26.06A13.36,13.36,0,0,1,39.4,136.35,2.23,2.23,0,0,1,37.17,138.58Z"/><path id="path22429" class="cls-8" d="M19.38,23a2.23,2.23,0,0,0-2.23,2.24V87.46a2.23,2.23,0,0,0,2.23,2.22h8.89A2.23,2.23,0,0,1,26,87.46V29.68a2.22,2.22,0,0,1,2.23-2.23H121.6a2.23,2.23,0,0,1,2.24,2.23V25.24A2.24,2.24,0,0,0,121.6,23Z"/><path id="path22417" class="cls-6" d="M77.16,9.68a6.7,6.7,0,0,0-6.66,6.66V51.89a6.71,6.71,0,0,0,6.66,6.68h2.22v11.1a2.22,2.22,0,0,0,2.21,2.24,2.25,2.25,0,0,0,1.46-.54L98,58.57h37a6.72,6.72,0,0,0,6.68-6.68V16.34a6.71,6.71,0,0,0-6.68-6.66Z"/><path id="path22427" class="cls-1" d="M95,23V45.23a2.22,2.22,0,0,0,3.39,1.89L116.12,36a2.22,2.22,0,0,0,0-3.77L98.34,21.12A2.21,2.21,0,0,0,95,23Z"/><path id="path22439" class="cls-10" d="M126.05,9.68a6.71,6.71,0,0,1,6.68,6.66V47.45a6.73,6.73,0,0,1-6.68,6.68H98L83.05,66.92a2.22,2.22,0,0,1-3.67-1.69v4.44a2.22,2.22,0,0,0,3.67,1.7L98,58.57h37a6.72,6.72,0,0,0,6.68-6.68V16.34a6.71,6.71,0,0,0-6.68-6.66Z"/><path id="path9871-9-6" class="cls-11" d="M39.38,71.91A13.35,13.35,0,0,0,26,85.23v4.44H75V85.23A13.35,13.35,0,0,0,61.61,71.91Z"/><path id="path22408" class="cls-12" d="M52.72,71.91A13.34,13.34,0,0,1,66.05,85.23v4.44h8.89V85.23A13.34,13.34,0,0,0,61.61,71.91Z"/><path id="path9878-9-3" class="cls-3" d="M41.61,63V74.13a2.94,2.94,0,0,0,0,.51,8.3,8.3,0,0,0,1.71,3.16,9.31,9.31,0,0,0,7.13,3,9.27,9.27,0,0,0,7.12-3,8.3,8.3,0,0,0,1.71-3.16,2.21,2.21,0,0,0,.05-.51V63Z"/><path id="path9906-3-7" class="cls-4" d="M41.61,63V71.7a17.52,17.52,0,0,0,17.77,0V63Z"/><path id="path9864-2-1" class="cls-3" d="M37.17,47.45v8.89a13.33,13.33,0,1,0,26.66,0V47.45Z"/><path id="path9895-7-4" class="cls-4" d="M54.94,47.45v8.89A13.36,13.36,0,0,1,46.06,68.9a13.08,13.08,0,0,0,4.44.78A13.35,13.35,0,0,0,63.83,56.34V47.45Z"/><path id="path9857-2-7" class="cls-13" d="M48.27,31.9A13.36,13.36,0,0,0,34.93,45.24V51.9a2.23,2.23,0,0,0,2.24,2.23h6.65c5.68,0,11.54-2.9,13-3.85L60,53.47a2.2,2.2,0,0,0,1.57.66h2.22a2.23,2.23,0,0,0,2.23-2.23V45.24A13.36,13.36,0,0,0,52.72,31.9Z"/><path id="path9893-8-1" class="cls-14" d="M48.27,31.9a13.57,13.57,0,0,0-2.22.2A13.36,13.36,0,0,1,57.17,45.24v5.37L60,53.47a2.2,2.2,0,0,0,1.57.66h2.22a2.23,2.23,0,0,0,2.23-2.23V45.24A13.36,13.36,0,0,0,52.72,31.9Z"/></g></svg>