<svg id="Layer_1" data-name="Layer 1" xmlns="http://www.w3.org/2000/svg" viewBox="0 0 150 150"><defs><style>.cls-1{fill:#445ea0;}.cls-2{fill:#2e4c89;}.cls-3{fill:#293d7c;}.cls-4{fill:#1a2b63;}.cls-5{fill:#eef6ff;}.cls-6{fill:#ffaf10;}.cls-7{fill:#ff9518;}.cls-8{fill:#c3ddf4;}.cls-9{fill:#ef8318;}.cls-10{fill:#69cdff;}.cls-11{fill:#5dc1d8;}.cls-12{fill:#28a5a5;}.cls-13{fill:#52bbef;}.cls-14{fill:#1e99d6;}</style></defs><rect class="cls-1" x="53.04" y="111.58" width="30.84" height="13.19"/><rect class="cls-2" x="53.04" y="111.58" width="5.67" height="13.19"/><path class="cls-3" d="M98.31,131.62a1.43,1.43,0,0,1-1.43,1.43H40.05a1.44,1.44,0,0,1-1.43-1.43v-5.71a1.44,1.44,0,0,1,1.43-1.43H96.88a1.43,1.43,0,0,1,1.43,1.43Z"/><path class="cls-4" d="M44.29,131.62v-5.71a1.43,1.43,0,0,1,1.43-1.43H40.05a1.44,1.44,0,0,0-1.43,1.43v5.71a1.44,1.44,0,0,0,1.43,1.43h5.67A1.43,1.43,0,0,1,44.29,131.62Z"/><path class="cls-3" d="M3.17,109A2.87,2.87,0,0,0,6,111.87H91.75V92.75H3.17Z"/><path class="cls-4" d="M8.84,109V92.75H3.17V109A2.87,2.87,0,0,0,6,111.87H11.7A2.87,2.87,0,0,1,8.84,109Z"/><path class="cls-1" d="M91.75,85.07a1.16,1.16,0,0,1,1.15-1.15h40.86V22.09A3.15,3.15,0,0,0,130.62,19H6.31a3.15,3.15,0,0,0-3.14,3.14V93H91.75Z"/><path class="cls-5" d="M91.75,85.07a1.16,1.16,0,0,1,1.15-1.15h34.58V26.66a1.43,1.43,0,0,0-1.43-1.43H10.88a1.43,1.43,0,0,0-1.43,1.43V85.33a1.43,1.43,0,0,0,1.43,1.42H91.75V85.07Z"/><circle class="cls-1" cx="68.47" cy="102.55" r="3.97"/><path class="cls-6" d="M122.08,62.05a1.43,1.43,0,0,1-1.43,1.42H75.4A1.43,1.43,0,0,1,74,62.05V41.28a1.43,1.43,0,0,1,1.43-1.43h45.25a1.43,1.43,0,0,1,1.43,1.43V62.05Z"/><path class="cls-7" d="M79.64,62.05V41.28a1.43,1.43,0,0,1,1.43-1.43H75.4A1.43,1.43,0,0,0,74,41.28V62.05a1.43,1.43,0,0,0,1.43,1.42h5.67A1.43,1.43,0,0,1,79.64,62.05Z"/><path class="cls-8" d="M88.64,71.68H76.33a2.14,2.14,0,1,1,0-4.28H88.64a2.14,2.14,0,0,1,0,4.28Z"/><path class="cls-8" d="M88.64,78.19H76.33a2.14,2.14,0,1,1,0-4.28H88.64a2.14,2.14,0,0,1,0,4.28Z"/><path class="cls-8" d="M103.49,71.68H94.34a2.14,2.14,0,0,1,0-4.28h9.15a2.14,2.14,0,0,1,0,4.28Z"/><path class="cls-8" d="M103.49,78.19H94.34a2.14,2.14,0,0,1,0-4.28h9.15a2.14,2.14,0,0,1,0,4.28Z"/><path class="cls-8" d="M120.77,71.68H109.11a2.14,2.14,0,1,1,0-4.28h11.66a2.14,2.14,0,0,1,0,4.28Z"/><path class="cls-8" d="M120.77,78.19H109.11a2.14,2.14,0,1,1,0-4.28h11.66a2.14,2.14,0,0,1,0,4.28Z"/><path class="cls-9" d="M105.8,34.83a1.43,1.43,0,0,1-1.43,1.43h-3.14a1.44,1.44,0,0,1-1.43-1.43V31.69a1.44,1.44,0,0,1,1.43-1.43h3.14a1.44,1.44,0,0,1,1.43,1.43Z"/><path class="cls-9" d="M113.8,34.83a1.43,1.43,0,0,1-1.43,1.43h-3.14a1.43,1.43,0,0,1-1.43-1.43V31.69a1.44,1.44,0,0,1,1.43-1.43h3.14a1.44,1.44,0,0,1,1.43,1.43Z"/><path class="cls-9" d="M121.79,34.83a1.43,1.43,0,0,1-1.42,1.43h-3.15a1.43,1.43,0,0,1-1.42-1.43V31.69a1.43,1.43,0,0,1,1.42-1.43h3.15a1.43,1.43,0,0,1,1.42,1.43Z"/><path class="cls-10" d="M57.69,76.5H55.12a2.14,2.14,0,0,1,0-4.28h2.57a2.14,2.14,0,0,1,0,4.28Z"/><path class="cls-10" d="M48,76.5H45.41a2.14,2.14,0,1,1,0-4.28H48a2.14,2.14,0,0,1,0,4.28Z"/><path class="cls-10" d="M38.27,76.5H35.7a2.14,2.14,0,0,1,0-4.28h2.57a2.14,2.14,0,0,1,0,4.28Z"/><path class="cls-10" d="M28.56,76.5H26a2.14,2.14,0,1,1,0-4.28h2.57a2.14,2.14,0,0,1,0,4.28Z"/><path class="cls-10" d="M66,67.68a2.14,2.14,0,0,1-2.14-2.14V63a2.15,2.15,0,0,1,4.29,0v2.57A2.14,2.14,0,0,1,66,67.68Z"/><path class="cls-10" d="M66,58a2.14,2.14,0,0,1-2.14-2.14V53.26a2.15,2.15,0,0,1,4.29,0v2.57A2.14,2.14,0,0,1,66,58Z"/><path class="cls-10" d="M66,48.26a2.14,2.14,0,0,1-2.14-2.14V43.55a2.15,2.15,0,0,1,4.29,0v2.57A2.14,2.14,0,0,1,66,48.26Z"/><path class="cls-10" d="M17.49,67.68a2.14,2.14,0,0,1-2.14-2.14V63a2.15,2.15,0,0,1,4.29,0v2.57A2.14,2.14,0,0,1,17.49,67.68Z"/><path class="cls-10" d="M17.49,58a2.14,2.14,0,0,1-2.14-2.14V53.26a2.15,2.15,0,0,1,4.29,0v2.57A2.14,2.14,0,0,1,17.49,58Z"/><path class="cls-10" d="M17.49,48.26a2.14,2.14,0,0,1-2.14-2.14V43.55a2.15,2.15,0,0,1,4.29,0v2.57A2.14,2.14,0,0,1,17.49,48.26Z"/><path class="cls-10" d="M57.69,37.66H55.12a2.14,2.14,0,0,1,0-4.28h2.57a2.14,2.14,0,0,1,0,4.28Z"/><path class="cls-10" d="M48,37.66H45.41a2.14,2.14,0,0,1,0-4.28H48a2.14,2.14,0,0,1,0,4.28Z"/><path class="cls-10" d="M38.27,37.66H35.7a2.14,2.14,0,0,1,0-4.28h2.57a2.14,2.14,0,0,1,0,4.28Z"/><path class="cls-10" d="M28.56,37.66H26a2.14,2.14,0,0,1,0-4.28h2.57a2.14,2.14,0,0,1,0,4.28Z"/><path class="cls-11" d="M60.33,67.22a1.43,1.43,0,0,1-1.43,1.43H24.63a1.43,1.43,0,0,1-1.42-1.43V42.66a1.43,1.43,0,0,1,1.42-1.43H58.9a1.44,1.44,0,0,1,1.43,1.43Z"/><path class="cls-12" d="M28.87,67.22V42.66a1.44,1.44,0,0,1,1.43-1.43H24.63a1.43,1.43,0,0,0-1.42,1.43V67.22a1.43,1.43,0,0,0,1.42,1.43H30.3A1.44,1.44,0,0,1,28.87,67.22Z"/><path class="cls-13" d="M70,37.67a1.43,1.43,0,0,1-1.43,1.42h-6a1.43,1.43,0,0,1-1.43-1.42v-6a1.43,1.43,0,0,1,1.43-1.43h6A1.43,1.43,0,0,1,70,31.67Z"/><path class="cls-13" d="M22.63,38.24a1.43,1.43,0,0,1-1.42,1.43h-6a1.44,1.44,0,0,1-1.43-1.43v-6a1.43,1.43,0,0,1,1.43-1.43h6a1.43,1.43,0,0,1,1.42,1.43Z"/><path class="cls-13" d="M70,77.61A1.43,1.43,0,0,1,68.61,79h-6a1.43,1.43,0,0,1-1.43-1.43v-6a1.43,1.43,0,0,1,1.43-1.42h6A1.43,1.43,0,0,1,70,71.61Z"/><path class="cls-13" d="M22.63,77.61A1.43,1.43,0,0,1,21.21,79h-6a1.43,1.43,0,0,1-1.43-1.43v-6a1.43,1.43,0,0,1,1.43-1.42h6a1.43,1.43,0,0,1,1.42,1.42Z"/><path class="cls-14" d="M64.34,37.67v-6a1.43,1.43,0,0,1,1.42-1.43H62.62a1.43,1.43,0,0,0-1.43,1.43v6a1.43,1.43,0,0,0,1.43,1.42h3.14A1.43,1.43,0,0,1,64.34,37.67Z"/><path class="cls-14" d="M16.93,38.24v-6a1.43,1.43,0,0,1,1.43-1.43H15.21a1.43,1.43,0,0,0-1.43,1.43v6a1.44,1.44,0,0,0,1.43,1.43h3.15A1.44,1.44,0,0,1,16.93,38.24Z"/><path class="cls-14" d="M64.34,77.61v-6a1.43,1.43,0,0,1,1.42-1.42H62.62a1.43,1.43,0,0,0-1.43,1.42v6A1.43,1.43,0,0,0,62.62,79h3.14A1.43,1.43,0,0,1,64.34,77.61Z"/><path class="cls-14" d="M16.93,77.61v-6a1.43,1.43,0,0,1,1.43-1.42H15.21a1.43,1.43,0,0,0-1.43,1.42v6A1.43,1.43,0,0,0,15.21,79h3.15A1.43,1.43,0,0,1,16.93,77.61Z"/><path class="cls-11" d="M127.53,107.85a.37.37,0,0,1,0-.21h0a.65.65,0,0,1,.18,0l12,4.41v-27a1.43,1.43,0,0,0-1.43-1.43H92.9a1.43,1.43,0,0,0-1.43,1.43v32.78a1.43,1.43,0,0,0,1.43,1.43h38.83Z"/><path class="cls-12" d="M97.14,117.85V85.07a1.43,1.43,0,0,1,1.42-1.43H92.9a1.43,1.43,0,0,0-1.43,1.43v32.78a1.43,1.43,0,0,0,1.43,1.43h5.66A1.43,1.43,0,0,1,97.14,117.85Z"/><path class="cls-3" d="M127.81,107.41c-.47-.17-.72.07-.55.54l7.53,20.5a.54.54,0,0,0,1,.21l4-4a.92.92,0,0,1,1.29,0l4.61,4.61a.91.91,0,0,0,1.28,0l2.2-2.19a.92.92,0,0,0,0-1.29l-4.61-4.61a.92.92,0,0,1,0-1.29l4-4a.54.54,0,0,0-.21-1Z"/></svg>