<svg id="Layer_1" data-name="Layer 1" xmlns="http://www.w3.org/2000/svg" viewBox="0 0 150 150"><defs><style>.cls-1{fill:#445ea0}.cls-3{fill:#293d7c}.cls-4{fill:#1a2b63}.cls-11{fill:#5dc1d8}.cls-12{fill:#28a5a5}</style></defs><path class="cls-1" d="M53.04 111.58h30.84v13.19H53.04z"/><path style="fill:#2e4c89" d="M53.04 111.58h5.67v13.19h-5.67z"/><path class="cls-3" d="M98.31 131.62a1.43 1.43 0 0 1-1.43 1.43H40.05a1.44 1.44 0 0 1-1.43-1.43v-5.71a1.44 1.44 0 0 1 1.43-1.43h56.83a1.43 1.43 0 0 1 1.43 1.43z"/><path class="cls-4" d="M44.29 131.62v-5.71a1.43 1.43 0 0 1 1.43-1.43h-5.67a1.44 1.44 0 0 0-1.43 1.43v5.71a1.44 1.44 0 0 0 1.43 1.43h5.67a1.43 1.43 0 0 1-1.43-1.43z"/><path class="cls-3" d="M3.17 109A2.87 2.87 0 0 0 6 111.87h85.75V92.75H3.17z"/><path class="cls-4" d="M8.84 109V92.75H3.17V109A2.87 2.87 0 0 0 6 111.87h5.7A2.87 2.87 0 0 1 8.84 109z"/><path class="cls-1" d="M91.75 85.07a1.16 1.16 0 0 1 1.15-1.15h40.86V22.09a3.15 3.15 0 0 0-3.14-3.09H6.31a3.15 3.15 0 0 0-3.14 3.14V93h88.58z"/><path d="M91.75 85.07a1.16 1.16 0 0 1 1.15-1.15h34.58V26.66a1.43 1.43 0 0 0-1.43-1.43H10.88a1.43 1.43 0 0 0-1.43 1.43v58.67a1.43 1.43 0 0 0 1.43 1.42h80.87v-1.68z" style="fill:#eef6ff"/><circle class="cls-1" cx="68.47" cy="102.55" r="3.97"/><path d="M122.08 62.05a1.43 1.43 0 0 1-1.43 1.42H75.4a1.43 1.43 0 0 1-1.4-1.42V41.28a1.43 1.43 0 0 1 1.43-1.43h45.25a1.43 1.43 0 0 1 1.43 1.43v20.77z" style="fill:#ffaf10"/><path d="M79.64 62.05V41.28a1.43 1.43 0 0 1 1.43-1.43H75.4a1.43 1.43 0 0 0-1.4 1.43v20.77a1.43 1.43 0 0 0 1.43 1.42h5.67a1.43 1.43 0 0 1-1.46-1.42z" style="fill:#ff9518"/><path d="M88.64 71.68H76.33a2.14 2.14 0 1 1 0-4.28h12.31a2.14 2.14 0 0 1 0 4.28zm0 6.51H76.33a2.14 2.14 0 1 1 0-4.28h12.31a2.14 2.14 0 0 1 0 4.28zm14.85-6.51h-9.15a2.14 2.14 0 0 1 0-4.28h9.15a2.14 2.14 0 0 1 0 4.28zm0 6.51h-9.15a2.14 2.14 0 0 1 0-4.28h9.15a2.14 2.14 0 0 1 0 4.28zm17.28-6.51h-11.66a2.14 2.14 0 1 1 0-4.28h11.66a2.14 2.14 0 0 1 0 4.28zm0 6.51h-11.66a2.14 2.14 0 1 1 0-4.28h11.66a2.14 2.14 0 0 1 0 4.28z" style="fill:#c3ddf4"/><path d="M105.8 34.83a1.43 1.43 0 0 1-1.43 1.43h-3.14a1.44 1.44 0 0 1-1.43-1.43v-3.14a1.44 1.44 0 0 1 1.43-1.43h3.14a1.44 1.44 0 0 1 1.43 1.43zm8 0a1.43 1.43 0 0 1-1.43 1.43h-3.14a1.43 1.43 0 0 1-1.43-1.43v-3.14a1.44 1.44 0 0 1 1.43-1.43h3.14a1.44 1.44 0 0 1 1.43 1.43zm7.99 0a1.43 1.43 0 0 1-1.42 1.43h-3.15a1.43 1.43 0 0 1-1.42-1.43v-3.14a1.43 1.43 0 0 1 1.42-1.43h3.15a1.43 1.43 0 0 1 1.42 1.43z" style="fill:#ef8318"/><path d="M57.69 76.5h-2.57a2.14 2.14 0 0 1 0-4.28h2.57a2.14 2.14 0 0 1 0 4.28zm-9.69 0h-2.59a2.14 2.14 0 1 1 0-4.28H48a2.14 2.14 0 0 1 0 4.28zm-9.73 0H35.7a2.14 2.14 0 0 1 0-4.28h2.57a2.14 2.14 0 0 1 0 4.28zm-9.71 0H26a2.14 2.14 0 1 1 0-4.28h2.57a2.14 2.14 0 0 1 0 4.28zM66 67.68a2.14 2.14 0 0 1-2.14-2.14V63a2.15 2.15 0 0 1 4.29 0v2.57A2.14 2.14 0 0 1 66 67.68zM66 58a2.14 2.14 0 0 1-2.14-2.14v-2.6a2.15 2.15 0 0 1 4.29 0v2.57A2.14 2.14 0 0 1 66 58zm0-9.74a2.14 2.14 0 0 1-2.14-2.14v-2.57a2.15 2.15 0 0 1 4.29 0v2.57A2.14 2.14 0 0 1 66 48.26zM17.49 67.68a2.14 2.14 0 0 1-2.14-2.14V63a2.15 2.15 0 0 1 4.29 0v2.57a2.14 2.14 0 0 1-2.15 2.11zm0-9.68a2.14 2.14 0 0 1-2.14-2.14v-2.6a2.15 2.15 0 0 1 4.29 0v2.57A2.14 2.14 0 0 1 17.49 58zm0-9.74a2.14 2.14 0 0 1-2.14-2.14v-2.57a2.15 2.15 0 0 1 4.29 0v2.57a2.14 2.14 0 0 1-2.15 2.14zm40.2-10.6h-2.57a2.14 2.14 0 0 1 0-4.28h2.57a2.14 2.14 0 0 1 0 4.28zm-9.69 0h-2.59a2.14 2.14 0 0 1 0-4.28H48a2.14 2.14 0 0 1 0 4.28zm-9.73 0H35.7a2.14 2.14 0 0 1 0-4.28h2.57a2.14 2.14 0 0 1 0 4.28zm-9.71 0H26a2.14 2.14 0 0 1 0-4.28h2.57a2.14 2.14 0 0 1 0 4.28z" style="fill:#69cdff"/><path class="cls-11" d="M60.33 67.22a1.43 1.43 0 0 1-1.43 1.43H24.63a1.43 1.43 0 0 1-1.42-1.43V42.66a1.43 1.43 0 0 1 1.42-1.43H58.9a1.44 1.44 0 0 1 1.43 1.43z"/><path class="cls-12" d="M28.87 67.22V42.66a1.44 1.44 0 0 1 1.43-1.43h-5.67a1.43 1.43 0 0 0-1.42 1.43v24.56a1.43 1.43 0 0 0 1.42 1.43h5.67a1.44 1.44 0 0 1-1.43-1.43z"/><path d="M70 37.67a1.43 1.43 0 0 1-1.43 1.42h-6a1.43 1.43 0 0 1-1.43-1.42v-6a1.43 1.43 0 0 1 1.43-1.43h6A1.43 1.43 0 0 1 70 31.67zm-47.37.57a1.43 1.43 0 0 1-1.42 1.43h-6a1.44 1.44 0 0 1-1.43-1.43v-6a1.43 1.43 0 0 1 1.43-1.43h6a1.43 1.43 0 0 1 1.42 1.43zM70 77.61A1.43 1.43 0 0 1 68.61 79h-6a1.43 1.43 0 0 1-1.43-1.43v-6a1.43 1.43 0 0 1 1.43-1.42h6A1.43 1.43 0 0 1 70 71.61zm-47.37 0A1.43 1.43 0 0 1 21.21 79h-6a1.43 1.43 0 0 1-1.43-1.43v-6a1.43 1.43 0 0 1 1.43-1.42h6a1.43 1.43 0 0 1 1.42 1.42z" style="fill:#52bbef"/><path d="M64.34 37.67v-6a1.43 1.43 0 0 1 1.42-1.43h-3.14a1.43 1.43 0 0 0-1.43 1.43v6a1.43 1.43 0 0 0 1.43 1.42h3.14a1.43 1.43 0 0 1-1.42-1.42zm-47.41.57v-6a1.43 1.43 0 0 1 1.43-1.43h-3.15a1.43 1.43 0 0 0-1.43 1.43v6a1.44 1.44 0 0 0 1.43 1.43h3.15a1.44 1.44 0 0 1-1.43-1.43zm47.41 39.37v-6a1.43 1.43 0 0 1 1.42-1.42h-3.14a1.43 1.43 0 0 0-1.43 1.42v6A1.43 1.43 0 0 0 62.62 79h3.14a1.43 1.43 0 0 1-1.42-1.39zm-47.41 0v-6a1.43 1.43 0 0 1 1.43-1.42h-3.15a1.43 1.43 0 0 0-1.43 1.42v6A1.43 1.43 0 0 0 15.21 79h3.15a1.43 1.43 0 0 1-1.43-1.39z" style="fill:#1e99d6"/><path class="cls-11" d="M127.53 107.85a.37.37 0 0 1 0-.21.65.65 0 0 1 .18 0l12 4.41v-27a1.43 1.43 0 0 0-1.43-1.43H92.9a1.43 1.43 0 0 0-1.43 1.43v32.78a1.43 1.43 0 0 0 1.43 1.43h38.83z"/><path class="cls-12" d="M97.14 117.85V85.07a1.43 1.43 0 0 1 1.42-1.43H92.9a1.43 1.43 0 0 0-1.43 1.43v32.78a1.43 1.43 0 0 0 1.43 1.43h5.66a1.43 1.43 0 0 1-1.42-1.43z"/><path class="cls-3" d="M127.81 107.41c-.47-.17-.72.07-.55.54l7.53 20.5a.54.54 0 0 0 1 .21l4-4a.92.92 0 0 1 1.29 0l4.61 4.61a.91.91 0 0 0 1.28 0l2.2-2.19a.92.92 0 0 0 0-1.29l-4.61-4.61a.92.92 0 0 1 0-1.29l4-4a.54.54 0 0 0-.21-1z"/></svg>