<svg id="Layer_1" data-name="Layer 1" xmlns="http://www.w3.org/2000/svg" viewBox="0 0 150 150"><defs><style>.cls-1{fill:#97de3d;}.cls-2{fill:#59c36a;}.cls-3{fill:#ff641a;}.cls-4{fill:#f03800;}.cls-5{fill:#dfe7f4;}.cls-6{fill:#c7cfe1;}.cls-7{fill:#f0f7ff;}</style></defs><path class="cls-1" d="M142.52,97.86c0-23.27-22.57-43.52-51.7-43.52-30,0-51.43,21-51.43,43.52,0,24,23,43.78,51.43,43.78a58.57,58.57,0,0,0,31.59-9.44l12.79,2.12-2-11.85C139,115.36,142.52,106.35,142.52,97.86Z"/><path class="cls-2" d="M135.2,134.32l-2-11.85c5.78-7.11,9.3-16.12,9.3-24.61,0-23.27-22.57-43.52-51.7-43.52v87.3a58.57,58.57,0,0,0,31.59-9.44Z"/><path class="cls-3" d="M59.18,6.6c-28.36,0-51.7,19.79-51.7,43.79a38.65,38.65,0,0,0,9,24.58l-2,11.88,12.79-2.13A58.7,58.7,0,0,0,59.18,93.9c28.35,0,51.43-19.52,51.43-43.51S87.53,6.6,59.18,6.6Z"/><path class="cls-4" d="M110.61,50.39c0-24-23.08-43.79-51.43-43.79V93.9C87.53,93.9,110.61,74.38,110.61,50.39Z"/><path class="cls-5" d="M71,93.9H79v7.92H71Z"/><path class="cls-6" d="M102.69,93.9h7.92v7.92h-7.92Z"/><path class="cls-7" d="M59.18,70.17h-4v7.91h7.91V70.17Z"/><path class="cls-5" d="M59.18,70.17h4v7.91h-4Z"/><path class="cls-7" d="M59.18,22.69A15.85,15.85,0,0,0,43.35,38.52h7.91A7.92,7.92,0,1,1,62.2,45.83a11,11,0,0,0-3,1.91,11.75,11.75,0,0,0-4,8.87v5.64h7.91V56.61a3.7,3.7,0,0,1,2.09-3.47,15.83,15.83,0,0,0-6-30.45Z"/><path class="cls-5" d="M63.13,56.61a3.7,3.7,0,0,1,2.09-3.47,15.83,15.83,0,0,0-6-30.45V30.6a7.92,7.92,0,0,1,3,15.23,11,11,0,0,0-3,1.91V62.25h4Z"/><path class="cls-5" d="M90.82,93.9H86.87v7.92h7.91V93.9Z"/><path class="cls-6" d="M90.82,93.9h4v7.92h-4Z"/></svg>