<svg id="Layer_1" data-name="Layer 1" xmlns="http://www.w3.org/2000/svg" viewBox="0 0 150 150"><defs><style>.cls-5{fill:#dfe7f4}.cls-6{fill:#c7cfe1}.cls-7{fill:#f0f7ff}</style></defs><path d="M142.52 97.86c0-23.27-22.57-43.52-51.7-43.52-30 0-51.43 21-51.43 43.52 0 24 23 43.78 51.43 43.78a58.57 58.57 0 0 0 31.59-9.44l12.79 2.12-2-11.85c5.8-7.11 9.32-16.12 9.32-24.61z" style="fill:#97de3d"/><path d="m135.2 134.32-2-11.85c5.78-7.11 9.3-16.12 9.3-24.61 0-23.27-22.57-43.52-51.7-43.52v87.3a58.57 58.57 0 0 0 31.59-9.44z" style="fill:#59c36a"/><path d="M59.18 6.6c-28.36 0-51.7 19.79-51.7 43.79a38.65 38.65 0 0 0 9 24.58l-2 11.88 12.79-2.13a58.7 58.7 0 0 0 31.91 9.18c28.35 0 51.43-19.52 51.43-43.51S87.53 6.6 59.18 6.6z" style="fill:#ff641a"/><path d="M110.61 50.39c0-24-23.08-43.79-51.43-43.79v87.3c28.35 0 51.43-19.52 51.43-43.51z" style="fill:#f03800"/><path class="cls-5" d="M71 93.9h8v7.92h-8z"/><path class="cls-6" d="M102.69 93.9h7.92v7.92h-7.92z"/><path class="cls-7" d="M59.18 70.17h-4v7.91h7.91v-7.91z"/><path class="cls-5" d="M59.18 70.17h4v7.91h-4z"/><path class="cls-7" d="M59.18 22.69a15.85 15.85 0 0 0-15.83 15.83h7.91a7.92 7.92 0 1 1 10.94 7.31 11 11 0 0 0-3 1.91 11.75 11.75 0 0 0-4 8.87v5.64h7.91v-5.64a3.7 3.7 0 0 1 2.09-3.47 15.83 15.83 0 0 0-6-30.45z"/><path class="cls-5" d="M63.13 56.61a3.7 3.7 0 0 1 2.09-3.47 15.83 15.83 0 0 0-6-30.45v7.91a7.92 7.92 0 0 1 3 15.23 11 11 0 0 0-3 1.91v14.51h4zM90.82 93.9h-3.95v7.92h7.91V93.9z"/><path class="cls-6" d="M90.82 93.9h4v7.92h-4z"/></svg>