<?xml version="1.0" encoding="UTF-8"?>
<svg width="18px" height="18px" viewBox="0 0 18 18" version="1.1" xmlns="http://www.w3.org/2000/svg" xmlns:xlink="http://www.w3.org/1999/xlink">
    <!-- Generator: sketchtool 51.3 (57544) - http://www.bohemiancoding.com/sketch -->
    <title>02381952-E4AA-4679-B2F5-C96C5CD9D9D1</title>
    <desc>Created with sketchtool.</desc>
    <defs></defs>
    <g id="Evaluation-Guide" stroke="none" stroke-width="1" fill="none" fill-rule="evenodd">
        <g id="nav-tree-icons" transform="translate(-48.000000, -54.000000)" fill="#8791AF" fill-rule="nonzero">
            <g id="Group" transform="translate(48.000000, 54.000000)">
                <path d="M18,2 C18,3.1045695 17.1045695,4 16,4 L2,4 C0.8954305,4 2.22044605e-16,3.1045695 0,2 C-1.11022302e-16,0.8954305 0.8954305,2.22044605e-16 2,0 L16,0 C17.1045695,0 18,0.8954305 18,2 Z" id="Shape"></path>
                <path d="M12,16 C12,17.1045695 11.1045695,18 10,18 L2,18 C0.8954305,18 2.22044605e-16,17.1045695 0,16 C-1.11022302e-16,14.8954305 0.8954305,14 2,14 L10,14 C11.1045695,14 12,14.8954305 12,16 Z" id="Shape"></path>
                <path d="M12,9 C12,10.1045695 11.1045695,11 10,11 L2,11 C0.8954305,11 2.22044605e-16,10.1045695 0,9 C-1.11022302e-16,7.8954305 0.8954305,7 2,7 L10,7 C11.1045695,7 12,7.8954305 12,9 Z" id="Shape"></path>
            </g>
        </g>
    </g>
</svg>