<svg width="40" height="40" viewBox="0 0 40 40" fill="none" xmlns="http://www.w3.org/2000/svg">
<g clip-path="url(#clip0)">
<path d="M11.5936 36.4252H9.82092C9.3314 36.4252 8.93456 36.025 8.93456 35.5314C8.93456 35.0379 9.3314 34.6377 9.82092 34.6377H11.5936C12.0832 34.6377 12.48 35.0379 12.48 35.5314C12.48 36.025 12.0832 36.4252 11.5936 36.4252ZM4.50274 36.4252C3.76427 36.4243 3.03822 36.2336 2.3932 35.8711C2.18341 35.765 2.02638 35.5763 1.95925 35.3495C1.89213 35.1228 1.92086 34.8781 2.03865 34.6735C2.14746 34.4608 2.33784 34.3022 2.56554 34.2347C2.79324 34.1672 3.03842 34.1966 3.2441 34.316C3.60809 34.5192 4.01583 34.6297 4.43183 34.6377C4.66997 34.6329 4.9 34.7249 5.07008 34.8931C5.24016 35.0612 5.33597 35.2913 5.33592 35.5314C5.33592 36.025 4.93908 36.4252 4.44956 36.4252H4.50274ZM0.957286 31.2773C0.467761 31.2773 0.0709229 30.8772 0.0709229 30.3836V28.5962C0.0709229 28.1026 0.467761 27.7025 0.957286 27.7025C1.44681 27.7025 1.84365 28.1026 1.84365 28.5962V30.3836C1.84444 30.6336 1.74139 30.8724 1.55949 31.0423C1.3776 31.2121 1.13348 31.2973 0.886377 31.2773H0.957286ZM0.957286 24.1276C0.467761 24.1276 0.0709229 23.7274 0.0709229 23.2339V21.4464C0.0709229 20.9528 0.467761 20.5527 0.957286 20.5527C1.44681 20.5527 1.84365 20.9528 1.84365 21.4464V23.2339C1.83011 23.4744 1.72085 23.6992 1.54063 23.8574C1.36041 24.0155 1.1245 24.0936 0.886377 24.074L0.957286 24.1276ZM0.957286 16.9778C0.467761 16.9778 0.0709229 16.5777 0.0709229 16.0841V14.2967C0.0709229 13.8031 0.467761 13.4029 0.957286 13.4029C1.44681 13.4029 1.84365 13.8031 1.84365 14.2967V16.0841C1.78794 16.5641 1.36388 16.9125 0.886377 16.8706L0.957286 16.9778ZM0.957286 9.82806C0.467761 9.82806 0.0709229 9.42793 0.0709229 8.93434V7.1469C0.0709229 6.65331 0.467761 6.25318 0.957286 6.25318C1.44681 6.25318 1.84365 6.65331 1.84365 7.1469V8.93434C1.73929 9.37121 1.32944 9.66201 0.886377 9.61357L0.957286 9.82806ZM34.6391 9.59569C34.1496 9.59569 33.7527 9.19556 33.7527 8.70197V6.91453C33.7527 6.42094 34.1496 6.02081 34.6391 6.02081C35.1286 6.02081 35.5255 6.42094 35.5255 6.91453V8.70197C35.4445 9.16041 35.0279 9.4793 34.5682 9.43482L34.6391 9.59569ZM2.51729 3.03579C2.21507 3.03868 1.93309 2.88298 1.77274 2.62468C1.50913 2.20993 1.62806 1.65831 2.03865 1.39134C2.6602 0.969171 3.38243 0.722315 4.13047 0.676368C4.61385 0.645578 5.03223 1.01172 5.07001 1.49859C5.09463 1.73687 5.02137 1.97492 4.8673 2.15729C4.71322 2.33966 4.49178 2.45043 4.25456 2.46381C3.80577 2.49712 3.37271 2.64472 2.99592 2.89279C2.85208 2.98311 2.6867 3.03251 2.51729 3.03579ZM32.6537 2.91067C32.5054 2.90926 32.3596 2.87251 32.2282 2.80342C31.8614 2.58897 31.4466 2.4721 31.0227 2.46381C30.5332 2.46381 30.1364 2.06368 30.1364 1.57009C30.1316 1.33472 30.221 1.10732 30.3844 0.939184C30.5479 0.771045 30.7715 0.676319 31.005 0.676368C31.7544 0.67966 32.4914 0.870028 33.15 1.23047C33.3621 1.34377 33.5196 1.53896 33.5864 1.77141C33.6532 2.00386 33.6237 2.2537 33.5046 2.46381C33.3469 2.74709 33.0466 2.91909 32.7246 2.91067H32.6537ZM25.5627 2.46381H23.79C23.3005 2.46381 22.9037 2.06368 22.9037 1.57009C22.9037 1.0765 23.3005 0.676368 23.79 0.676368H25.5627C26.0523 0.676368 26.4491 1.0765 26.4491 1.57009C26.4491 2.06368 26.0523 2.46381 25.5627 2.46381ZM18.4718 2.46381H16.6991C16.2096 2.46381 15.8127 2.06368 15.8127 1.57009C15.8127 1.0765 16.2096 0.676368 16.6991 0.676368H18.4718C18.9614 0.676368 19.3582 1.0765 19.3582 1.57009C19.3582 2.06368 18.9614 2.46381 18.4718 2.46381ZM11.3809 2.46381H9.6082C9.11867 2.46381 8.72183 2.06368 8.72183 1.57009C8.72183 1.0765 9.11867 0.676368 9.6082 0.676368H11.3809C11.8704 0.676368 12.2673 1.0765 12.2673 1.57009C12.2673 2.06368 11.8704 2.46381 11.3809 2.46381Z" fill="#969696"/>
<path fill-rule="evenodd" clip-rule="evenodd" d="M13.4436 17.4444C11.8503 19.829 10.9999 22.6325 11 25.5004C10.9999 27.4045 11.3749 29.29 12.1036 31.0491C12.8322 32.8083 13.9002 34.4067 15.2466 35.7531C16.593 37.0996 18.1914 38.1676 19.9505 38.8963C21.7097 39.625 23.5951 40 25.4992 40C28.3671 40.0002 31.1706 39.1499 33.5552 37.5567C35.9399 35.9635 37.7985 33.6989 38.8961 31.0494C39.9936 28.3998 40.2809 25.4843 39.7214 22.6715C39.162 19.8587 37.7811 17.275 35.7532 15.2471C33.7253 13.2192 31.1416 11.8381 28.3289 11.2786C25.5161 10.7191 22.6006 11.0063 19.951 12.1038C17.3014 13.2013 15.0368 15.0599 13.4436 17.4444ZM25.5 31C28.5376 31 31 28.5376 31 25.5C31 22.4624 28.5376 20 25.5 20C22.4624 20 20 22.4624 20 25.5C20 28.5376 22.4624 31 25.5 31Z" fill="#CC2200"/>
</g>
<defs>
<clipPath id="clip0">
<rect width="40" height="40" fill="white"/>
</clipPath>
</defs>
</svg>
