<svg width="3803" height="2477" xmlns="http://www.w3.org/2000/svg" xmlns:xlink="http://www.w3.org/1999/xlink" overflow="hidden"><defs><clipPath id="clip0"><rect x="-119" y="0" width="3803" height="2477"/></clipPath></defs><g clip-path="url(#clip0)" transform="translate(119 0)"><rect x="-3.0001" y="0" width="1201" height="2475" fill="#F2F2F2"/><path d="M1208.5 1980.5C1481.88 1980.5 1703.5 2202.12 1703.5 2475.5L1208.5 2475.5Z" stroke="#FFFFFF" stroke-width="1.14583" stroke-miterlimit="8" fill="#FC8565" fill-rule="evenodd"/><path d="M1208.5 1485.5C1755.26 1485.5 2198.5 1928.74 2198.5 2475.5L1703.5 2475.5C1703.5 2202.12 1481.88 1980.5 1208.5 1980.5Z" stroke="#FFFFFF" stroke-width="1.14583" stroke-miterlimit="8" fill="#8DC1DD" fill-rule="evenodd"/><text fill="#FFFFFF" font-family="Calibri,Calibri_MSFontService,sans-serif" font-weight="400" font-size="83" transform="matrix(1 0 0 1 1621.05 2007)">Song</text><path d="M1208.5 990.5C1399.14 990.5 1587.99 1027.21 1764.74 1098.61L1579.34 1557.56C1461.5 1509.95 1335.59 1485.48 1208.5 1485.48Z" stroke="#FFFFFF" stroke-width="1.14583" stroke-miterlimit="8" fill="#A9DCA3" fill-rule="evenodd"/><text fill="#FFFFFF" font-family="Calibri,Calibri_MSFontService,sans-serif" font-weight="400" font-size="83" transform="matrix(1 0 0 1 1332.76 1301)">Germany</text><path d="M1764.74 1098.61C1914.28 1159.02 2052.97 1243.38 2175.37 1348.39L1853.09 1724.07C1771.49 1654.07 1679.03 1597.83 1579.34 1557.56Z" stroke="#FFFFFF" stroke-width="1.14583" stroke-miterlimit="8" fill="#248C46" fill-rule="evenodd"/><text fill="#FFFFFF" font-family="Calibri,Calibri_MSFontService,sans-serif" font-weight="400" font-size="83" transform="matrix(1 0 0 1 1780.59 1438)">Japan</text><path d="M2175.37 1348.39C2180 1352.36 2184.61 1356.37 2189.2 1360.4L1862.31 1732.08C1859.26 1729.4 1856.18 1726.73 1853.09 1724.08Z" stroke="#FFFFFF" stroke-width="1.14583" stroke-miterlimit="8" fill="#D4EECE" fill-rule="evenodd"/><path d="M2189.2 1360.4C2306.61 1463.65 2406.97 1584.8 2486.58 1719.36L2060.57 1971.4C2007.49 1881.69 1940.59 1800.92 1862.31 1732.08Z" stroke="#FFFFFF" stroke-width="1.14583" stroke-miterlimit="8" fill="#E6F5E1" fill-rule="evenodd"/><text fill="#FFFFFF" font-family="Calibri,Calibri_MSFontService,sans-serif" font-weight="400" font-size="83" transform="matrix(1 0 0 1 2126.09 1693)">UK</text><path d="M2486.58 1719.36C2622.04 1948.32 2693.5 2209.47 2693.5 2475.5L2198.52 2475.5C2198.52 2298.14 2150.88 2124.04 2060.57 1971.4Z" stroke="#FFFFFF" stroke-width="1.14583" stroke-miterlimit="8" fill="#7DC87E" fill-rule="evenodd"/><text fill="#FFFFFF" font-family="Calibri,Calibri_MSFontService,sans-serif" font-weight="400" font-size="83" transform="matrix(1 0 0 1 2331.25 2124)">US</text><path d="M1208.5 495.5C1212.75 495.5 1217 495.514 1221.25 495.541L1218.06 990.53C1214.88 990.51 1211.69 990.499 1208.5 990.499Z" stroke="#FFFFFF" stroke-width="1.14583" stroke-miterlimit="8" fill="#FDB271" fill-rule="evenodd"/><path d="M1221.25 495.539C1361.01 496.439 1500.29 512.135 1636.75 542.365L1529.69 1025.65C1427.34 1002.98 1322.88 991.207 1218.06 990.533Z" stroke="#FFFFFF" stroke-width="1.14583" stroke-miterlimit="8" fill="#FDD0A2" fill-rule="evenodd"/><text fill="#FFFFFF" font-family="Calibri,Calibri_MSFontService,sans-serif" font-weight="400" font-size="83" transform="matrix(1 0 0 1 1286.68 788)">Partners</text><path d="M1636.75 542.367C1743.73 566.067 1848.56 598.606 1950.16 639.651L1764.74 1098.61C1688.55 1067.83 1609.92 1043.42 1529.69 1025.65Z" stroke="#FFFFFF" stroke-width="1.14583" stroke-miterlimit="8" fill="#FD9344" fill-rule="evenodd"/><text fill="#FFFFFF" font-family="Calibri,Calibri_MSFontService,sans-serif" font-weight="400" font-size="83" transform="matrix(1 0 0 1 1634.93 847)">Stores</text><path d="M1950.16 639.652C1953.6 641.041 1957.03 642.44 1960.46 643.848L1772.47 1101.76C1769.9 1100.7 1767.32 1099.65 1764.74 1098.61Z" stroke="#FFFFFF" stroke-width="1.14583" stroke-miterlimit="8" fill="#E35608" fill-rule="evenodd"/><path d="M1960.46 643.848C1973.22 649.084 1985.91 654.452 1998.55 659.953L1801.04 1113.84C1791.56 1109.71 1782.04 1105.69 1772.47 1101.76Z" stroke="#FFFFFF" stroke-width="1.14583" stroke-miterlimit="8" fill="#7F2704" fill-rule="evenodd"/><path d="M1998.56 659.954C2179.58 738.731 2347.81 844.14 2497.66 972.683L2175.37 1348.39C2062.98 1251.98 1936.81 1172.92 1801.04 1113.84Z" stroke="#FFFFFF" stroke-width="1.14583" stroke-miterlimit="8" fill="#E5590A" fill-rule="evenodd"/><text fill="#FFFFFF" font-family="Calibri,Calibri_MSFontService,sans-serif" font-weight="400" font-size="83" transform="matrix(1 0 0 1 2044.36 1031)">Stores</text><path d="M2497.66 972.683C2501.75 976.191 2505.82 979.714 2509.88 983.255L2184.54 1356.31C2181.49 1353.66 2178.44 1351.02 2175.37 1348.39Z" stroke="#FFFFFF" stroke-width="1.14583" stroke-miterlimit="8" fill="#FDD2A6" fill-rule="evenodd"/><path d="M2509.88 983.255C2511.89 985.001 2513.89 986.752 2515.88 988.507L2189.04 1360.26C2187.54 1358.94 2186.04 1357.63 2184.54 1356.32Z" stroke="#FFFFFF" stroke-width="1.14583" stroke-miterlimit="8" fill="#FEECDA" fill-rule="evenodd"/><path d="M2515.88 988.508C2515.96 988.571 2516.03 988.635 2516.1 988.698L2189.2 1360.4C2189.14 1360.35 2189.09 1360.3 2189.04 1360.26Z" stroke="#FFFFFF" stroke-width="1.14583" stroke-miterlimit="8" fill="#7F2704" fill-rule="evenodd"/><path d="M2516.1 988.698C2532.98 1003.54 2549.6 1018.67 2565.96 1034.07L2226.59 1394.43C2214.32 1382.87 2201.85 1371.53 2189.2 1360.4Z" stroke="#FFFFFF" stroke-width="1.14583" stroke-miterlimit="8" fill="#FD9446" fill-rule="evenodd"/><path d="M2565.95 1034.07C2632.95 1097.17 2695.47 1164.86 2753.06 1236.65L2366.92 1546.36C2323.73 1492.52 2276.84 1441.75 2226.59 1394.43Z" stroke="#FFFFFF" stroke-width="1.14583" stroke-miterlimit="8" fill="#FEDCB9" fill-rule="evenodd"/><text fill="#FFFFFF" font-family="Calibri,Calibri_MSFontService,sans-serif" font-weight="400" font-size="83" transform="matrix(1 0 0 1 2349.1 1317)">Partners</text><path d="M2753.06 1236.65C2811.62 1309.67 2864.94 1386.75 2912.6 1467.32L2486.57 1719.36C2450.83 1658.94 2410.84 1601.13 2366.92 1546.37Z" stroke="#FFFFFF" stroke-width="1.14583" stroke-miterlimit="8" fill="#FFF5EB" fill-rule="evenodd"/><text fill="#FFFFFF" font-family="Calibri,Calibri_MSFontService,sans-serif" font-weight="400" font-size="83" transform="matrix(1 0 0 1 2534.76 1505)">Stores</text><path d="M2912.6 1467.32C2930.23 1497.11 2947.08 1527.37 2963.12 1558.05L2524.46 1787.41C2512.43 1764.4 2499.8 1741.71 2486.58 1719.36Z" stroke="#FFFFFF" stroke-width="1.14583" stroke-miterlimit="8" fill="#DE5005" fill-rule="evenodd"/><path d="M2963.12 1558.05C3003.28 1634.85 3038.35 1714.22 3068.11 1795.62L2603.21 1965.59C2580.89 1904.54 2554.58 1845.02 2524.46 1787.41Z" stroke="#FFFFFF" stroke-width="1.14583" stroke-miterlimit="8" fill="#FDD1A3" fill-rule="evenodd"/><text fill="#FFFFFF" font-family="Calibri,Calibri_MSFontService,sans-serif" font-weight="400" font-size="83" transform="matrix(1 0 0 1 2655.57 1789)">Partners</text><path d="M3068.12 1795.62C3147.75 2013.45 3188.5 2243.57 3188.5 2475.5L2693.5 2475.5C2693.5 2301.55 2662.94 2128.96 2603.21 1965.59Z" stroke="#FFFFFF" stroke-width="1.14583" stroke-miterlimit="8" fill="#FA8532" fill-rule="evenodd"/><text fill="#FFFFFF" font-family="Calibri,Calibri_MSFontService,sans-serif" font-weight="400" font-size="83" transform="matrix(1 0 0 1 2790.86 2163)">Stores</text><path d="M1208.5 0.499836C1209.9 0.499836 1211.31 0.50103 1212.71 0.503417L1211.87 495.505C1210.74 495.503 1209.62 495.502 1208.5 495.502Z" stroke="#FFFFFF" stroke-width="1.14583" stroke-miterlimit="8" fill="#E0E0EE" fill-rule="evenodd"/><path d="M1212.71 0.505249C1212.74 0.505297 1212.77 0.505345 1212.8 0.505394L1211.94 495.505C1211.92 495.505 1211.89 495.505 1211.87 495.505Z" stroke="#FFFFFF" stroke-width="1.14583" stroke-miterlimit="8" fill="#FCFBFD" fill-rule="evenodd"/><path d="M1212.79 0.505249C1212.95 0.505518 1213.1 0.505801 1213.26 0.506099L1212.31 495.505C1212.18 495.505 1212.06 495.505 1211.93 495.505Z" stroke="#FFFFFF" stroke-width="1.14583" stroke-miterlimit="8" fill="#3F007D" fill-rule="evenodd"/><path d="M1213.26 0.505249C1213.41 0.505547 1213.57 0.505858 1213.72 0.506184L1212.68 495.505C1212.56 495.505 1212.43 495.505 1212.31 495.505Z" stroke="#FFFFFF" stroke-width="1.14583" stroke-miterlimit="8" fill="#3F007D" fill-rule="evenodd"/><path d="M1213.72 0.505249C1213.8 0.5054 1213.87 0.505553 1213.94 0.50571L1212.85 495.505C1212.79 495.505 1212.73 495.505 1212.68 495.505Z" stroke="#FFFFFF" stroke-width="1.14583" stroke-miterlimit="8" fill="#F8F7FB" fill-rule="evenodd"/><path d="M1213.94 0.505249C1214.68 0.506886 1215.43 0.508859 1216.17 0.511169L1214.64 495.511C1214.04 495.509 1213.45 495.507 1212.85 495.506Z" stroke="#FFFFFF" stroke-width="1.14583" stroke-miterlimit="8" fill="#8C88BF" fill-rule="evenodd"/><path d="M1216.17 0.510663C1217 0.513222 1217.82 0.516195 1218.65 0.519582L1216.62 495.516C1215.96 495.513 1215.3 495.511 1214.64 495.509Z" stroke="#FFFFFF" stroke-width="1.14583" stroke-miterlimit="8" fill="#D3D3E8" fill-rule="evenodd"/><path d="M1218.65 0.52149C1218.74 0.521873 1218.84 0.522262 1218.93 0.522657L1216.84 495.516C1216.77 495.516 1216.69 495.515 1216.62 495.515Z" stroke="#FFFFFF" stroke-width="1.14583" stroke-miterlimit="8" fill="#E6E5F1" fill-rule="evenodd"/><path d="M1218.93 0.52149C1219.09 0.522142 1219.24 0.522809 1219.4 0.52349L1217.22 495.522C1217.09 495.521 1216.97 495.52 1216.84 495.52Z" stroke="#FFFFFF" stroke-width="1.14583" stroke-miterlimit="8" fill="#3F007D" fill-rule="evenodd"/><path d="M1219.39 0.52149C1220.22 0.525124 1221.04 0.529172 1221.87 0.533634L1219.2 495.527C1218.54 495.523 1217.88 495.52 1217.22 495.517Z" stroke="#FFFFFF" stroke-width="1.14583" stroke-miterlimit="8" fill="#D3D3E8" fill-rule="evenodd"/><path d="M1221.87 0.53773C1221.9 0.537883 1221.93 0.538036 1221.96 0.53819L1219.27 495.527C1219.24 495.527 1219.22 495.527 1219.2 495.527Z" stroke="#FFFFFF" stroke-width="1.14583" stroke-miterlimit="8" fill="#7D77B7" fill-rule="evenodd"/><path d="M1221.96 0.53773C1222.78 0.542219 1223.61 0.547122 1224.44 0.552439L1221.25 495.543C1220.59 495.539 1219.93 495.535 1219.27 495.531Z" stroke="#FFFFFF" stroke-width="1.14583" stroke-miterlimit="8" fill="#D3D3E8" fill-rule="evenodd"/><path d="M1224.43 0.548556C1248.09 0.700894 1271.75 1.19257 1295.4 2.02342L1278.02 496.723C1259.11 496.059 1240.18 495.665 1221.25 495.543Z" stroke="#FFFFFF" stroke-width="1.14583" stroke-miterlimit="8" fill="#E8E7F2" fill-rule="evenodd"/><path d="M1295.4 2.02641C1295.62 2.0341 1295.84 2.04183 1296.06 2.04958L1278.55 496.74C1278.37 496.733 1278.2 496.727 1278.02 496.721Z" stroke="#FFFFFF" stroke-width="1.14583" stroke-miterlimit="8" fill="#D3D3E8" fill-rule="evenodd"/><path d="M1296.06 2.04806C1301.95 2.2564 1307.83 2.48574 1313.72 2.73608L1292.67 497.292C1287.97 497.091 1283.26 496.908 1278.55 496.741Z" stroke="#FFFFFF" stroke-width="1.14583" stroke-miterlimit="8" fill="#AFAED4" fill-rule="evenodd"/><path d="M1313.71 2.73556C1325.76 3.24786 1337.79 3.84808 1349.82 4.53619L1321.56 498.732C1311.93 498.181 1302.3 497.701 1292.67 497.291Z" stroke="#FFFFFF" stroke-width="1.14583" stroke-miterlimit="8" fill="#DDDDEC" fill-rule="evenodd"/><path d="M1349.82 4.53822C1361.85 5.22633 1373.88 6.0023 1385.9 6.86607L1350.42 500.594C1340.8 499.903 1331.18 499.282 1321.56 498.732Z" stroke="#FFFFFF" stroke-width="1.14583" stroke-miterlimit="8" fill="#DDDDEC" fill-rule="evenodd"/><path d="M1385.9 6.86598C1392.2 7.31907 1398.51 7.79632 1404.81 8.29771L1365.55 501.736C1360.51 501.335 1355.46 500.953 1350.42 500.591Z" stroke="#FFFFFF" stroke-width="1.14583" stroke-miterlimit="8" fill="#E9E8F2" fill-rule="evenodd"/><path d="M1404.81 8.29511C1417.82 9.33043 1430.83 10.4687 1443.82 11.7097L1396.76 504.47C1386.36 503.477 1375.96 502.566 1365.55 501.738Z" stroke="#FFFFFF" stroke-width="1.14583" stroke-miterlimit="8" fill="#AAA8D0" fill-rule="evenodd"/><path d="M1443.82 11.711C1467.39 13.9617 1490.92 16.5505 1514.41 19.4764L1453.22 510.684C1434.43 508.344 1415.6 506.273 1396.75 504.472Z" stroke="#FFFFFF" stroke-width="1.14583" stroke-miterlimit="8" fill="#DEDEED" fill-rule="evenodd"/><path d="M1514.41 19.4792C1530.45 21.4775 1546.47 23.6329 1562.47 25.9452L1491.68 515.854C1478.88 514.004 1466.06 512.28 1453.22 510.681Z" stroke="#FFFFFF" stroke-width="1.14583" stroke-miterlimit="8" fill="#BEBFDD" fill-rule="evenodd"/><path d="M1562.48 25.9428C1574.4 27.6663 1586.32 29.4769 1598.22 31.3745L1520.27 520.201C1510.75 518.683 1501.22 517.235 1491.68 515.856Z" stroke="#FFFFFF" stroke-width="1.14583" stroke-miterlimit="8" fill="#DDDDEC" fill-rule="evenodd"/><path d="M1598.22 31.3778C1621.59 35.1053 1644.92 39.1681 1668.18 43.5648L1576.24 529.951C1557.63 526.433 1538.98 523.183 1520.27 520.201Z" stroke="#FFFFFF" stroke-width="1.14583" stroke-miterlimit="8" fill="#DEDEED" fill-rule="evenodd"/><path d="M1668.18 43.5633C1670.21 43.9469 1672.24 44.333 1674.26 44.7217L1581.11 530.876C1579.49 530.565 1577.87 530.256 1576.24 529.95Z" stroke="#FFFFFF" stroke-width="1.14583" stroke-miterlimit="8" fill="#DADAEB" fill-rule="evenodd"/><path d="M1674.27 44.7218C1697.52 49.1767 1720.7 53.965 1743.82 59.0851L1636.75 542.369C1618.26 538.273 1599.71 534.442 1581.11 530.878Z" stroke="#FFFFFF" stroke-width="1.14583" stroke-miterlimit="8" fill="#DEDEED" fill-rule="evenodd"/><path d="M1743.81 59.0835C1757.31 62.0725 1770.77 65.1744 1784.21 68.389L1669.07 549.812C1658.32 547.241 1647.55 544.759 1636.75 542.368Z" stroke="#FFFFFF" stroke-width="1.14583" stroke-miterlimit="8" fill="#ACAAD1" fill-rule="evenodd"/><path d="M1784.21 68.3891C1787.21 69.1048 1790.2 69.8261 1793.19 70.5529L1676.25 551.545C1673.86 550.963 1671.46 550.386 1669.07 549.814Z" stroke="#FFFFFF" stroke-width="1.14583" stroke-miterlimit="8" fill="#4C1788" fill-rule="evenodd"/><path d="M1793.18 70.5545C1799.88 72.1821 1806.57 73.8377 1813.25 75.5212L1692.3 555.518C1686.96 554.171 1681.6 552.847 1676.25 551.545Z" stroke="#FFFFFF" stroke-width="1.14583" stroke-miterlimit="8" fill="#8B87BF" fill-rule="evenodd"/><path d="M1813.25 75.5185C1819.93 77.202 1826.61 78.9134 1833.27 80.6527L1708.32 559.621C1702.98 558.23 1697.65 556.861 1692.3 555.514Z" stroke="#FFFFFF" stroke-width="1.14583" stroke-miterlimit="8" fill="#8B87BF" fill-rule="evenodd"/><path d="M1833.27 80.6558C1839.81 82.363 1846.35 84.097 1852.88 85.8578L1724.01 563.784C1718.78 562.376 1713.55 560.988 1708.32 559.623Z" stroke="#FFFFFF" stroke-width="1.14583" stroke-miterlimit="8" fill="#DFDFED" fill-rule="evenodd"/><path d="M1852.88 85.8581C1862.07 88.3364 1871.25 90.8676 1880.41 93.4518L1746.03 569.858C1738.7 567.791 1731.36 565.766 1724.01 563.783Z" stroke="#FFFFFF" stroke-width="1.14583" stroke-miterlimit="8" fill="#8582BC" fill-rule="evenodd"/><path d="M1880.41 93.4477C1900.63 99.1515 1920.78 105.113 1940.85 111.329L1794.38 584.166C1778.32 579.192 1762.21 574.423 1746.03 569.86Z" stroke="#FFFFFF" stroke-width="1.14583" stroke-miterlimit="8" fill="#B7B7D9" fill-rule="evenodd"/><path d="M1940.85 111.333C1956.87 116.296 1972.84 121.421 1988.75 126.708L1832.7 596.465C1819.97 592.235 1807.19 588.135 1794.38 584.166Z" stroke="#FFFFFF" stroke-width="1.14583" stroke-miterlimit="8" fill="#7363AD" fill-rule="evenodd"/><path d="M1988.75 126.708C1995.29 128.88 2001.82 131.079 2008.34 133.306L1848.37 601.743C1843.16 599.962 1837.93 598.202 1832.7 596.465Z" stroke="#FFFFFF" stroke-width="1.14583" stroke-miterlimit="8" fill="#8B87BF" fill-rule="evenodd"/><path d="M2008.34 133.301C2028.22 140.091 2048.02 147.133 2067.72 154.427L1895.88 618.644C1880.11 612.809 1864.28 607.174 1848.37 601.743Z" stroke="#FFFFFF" stroke-width="1.14583" stroke-miterlimit="8" fill="#B7B7D9" fill-rule="evenodd"/><path d="M2067.72 154.429C2070.76 155.556 2073.8 156.688 2076.84 157.826L1903.17 621.361C1900.74 620.451 1898.31 619.545 1895.88 618.644Z" stroke="#FFFFFF" stroke-width="1.14583" stroke-miterlimit="8" fill="#AEACD2" fill-rule="evenodd"/><path d="M2076.84 157.824C2096.51 165.195 2116.09 172.816 2135.57 180.686L1950.16 639.653C1934.58 633.357 1918.91 627.26 1903.17 621.363Z" stroke="#FFFFFF" stroke-width="1.14583" stroke-miterlimit="8" fill="#B7B7D9" fill-rule="evenodd"/><path d="M2135.58 180.69C2136.01 180.866 2136.45 181.042 2136.88 181.218L1951.21 640.075C1950.86 639.934 1950.51 639.793 1950.16 639.653Z" stroke="#FFFFFF" stroke-width="1.14583" stroke-miterlimit="8" fill="#3F007D" fill-rule="evenodd"/><path d="M2136.88 181.215C2137.16 181.33 2137.45 181.445 2137.73 181.559L1951.89 640.351C1951.66 640.259 1951.43 640.167 1951.21 640.076Z" stroke="#FFFFFF" stroke-width="1.14583" stroke-miterlimit="8" fill="#6E5AA8" fill-rule="evenodd"/><path d="M2137.73 181.561C2137.79 181.585 2137.85 181.609 2137.91 181.634L1952.03 640.405C1951.98 640.386 1951.93 640.367 1951.89 640.348Z" stroke="#FFFFFF" stroke-width="1.14583" stroke-miterlimit="8" fill="#B8B8D9" fill-rule="evenodd"/><path d="M2137.91 181.632C2137.97 181.656 2138.03 181.68 2138.09 181.704L1952.17 640.465C1952.12 640.446 1952.07 640.427 1952.03 640.407Z" stroke="#FFFFFF" stroke-width="1.14583" stroke-miterlimit="8" fill="#B8B8D9" fill-rule="evenodd"/><path d="M2138.09 181.708C2138.47 181.863 2138.85 182.019 2139.24 182.175L1953.09 640.838C1952.78 640.714 1952.48 640.589 1952.17 640.465Z" stroke="#FFFFFF" stroke-width="1.14583" stroke-miterlimit="8" fill="#A4A1CC" fill-rule="evenodd"/><path d="M2139.24 182.173C2139.8 182.398 2140.35 182.624 2140.91 182.85L1954.43 641.38C1953.98 641.199 1953.54 641.019 1953.09 640.838Z" stroke="#FFFFFF" stroke-width="1.14583" stroke-miterlimit="8" fill="#6E5AA8" fill-rule="evenodd"/><path d="M2140.91 182.85C2141.29 183.006 2141.67 183.162 2142.06 183.318L1955.35 641.753C1955.04 641.628 1954.73 641.503 1954.43 641.379Z" stroke="#FFFFFF" stroke-width="1.14583" stroke-miterlimit="8" fill="#A4A1CC" fill-rule="evenodd"/><path d="M2142.05 183.321C2142.25 183.401 2142.45 183.481 2142.65 183.561L1955.82 641.948C1955.66 641.884 1955.5 641.82 1955.35 641.756Z" stroke="#FFFFFF" stroke-width="1.14583" stroke-miterlimit="8" fill="#ACAAD1" fill-rule="evenodd"/><path d="M2142.65 183.559C2142.7 183.583 2142.76 183.607 2142.82 183.631L1955.96 642.002C1955.91 641.983 1955.86 641.964 1955.82 641.944Z" stroke="#FFFFFF" stroke-width="1.14583" stroke-miterlimit="8" fill="#B8B8D9" fill-rule="evenodd"/><path d="M2142.82 183.629C2143.38 183.856 2143.93 184.082 2144.49 184.309L1957.29 642.549C1956.85 642.368 1956.4 642.186 1955.96 642.005Z" stroke="#FFFFFF" stroke-width="1.14583" stroke-miterlimit="8" fill="#6E5AA8" fill-rule="evenodd"/><path d="M2144.49 184.311C2144.87 184.468 2145.26 184.625 2145.64 184.782L1958.21 642.923C1957.9 642.797 1957.6 642.672 1957.29 642.546Z" stroke="#FFFFFF" stroke-width="1.14583" stroke-miterlimit="8" fill="#A4A1CC" fill-rule="evenodd"/><path d="M2145.64 184.782C2146.19 185.009 2146.75 185.236 2147.3 185.464L1959.54 643.469C1959.1 643.287 1958.66 643.106 1958.21 642.924Z" stroke="#FFFFFF" stroke-width="1.14583" stroke-miterlimit="8" fill="#6E5AA8" fill-rule="evenodd"/><path d="M2147.31 185.464C2147.69 185.622 2148.07 185.779 2148.46 185.936L1960.46 643.848C1960.16 643.722 1959.85 643.596 1959.54 643.471Z" stroke="#FFFFFF" stroke-width="1.14583" stroke-miterlimit="8" fill="#A4A1CC" fill-rule="evenodd"/><path d="M2148.45 185.935C2148.95 186.138 2149.44 186.34 2149.93 186.543L1961.65 644.335C1961.25 644.173 1960.86 644.012 1960.47 643.85Z" stroke="#FFFFFF" stroke-width="1.14583" stroke-miterlimit="8" fill="#3F007D" fill-rule="evenodd"/><path d="M2149.93 186.542C2150.26 186.677 2150.59 186.813 2150.92 186.949L1962.44 644.66C1962.18 644.552 1961.91 644.443 1961.65 644.335Z" stroke="#FFFFFF" stroke-width="1.14583" stroke-miterlimit="8" fill="#3F007D" fill-rule="evenodd"/><path d="M2150.92 186.948C2151.21 187.065 2151.49 187.183 2151.78 187.301L1963.12 644.942C1962.89 644.847 1962.66 644.753 1962.43 644.659Z" stroke="#FFFFFF" stroke-width="1.14583" stroke-miterlimit="8" fill="#3F007D" fill-rule="evenodd"/><path d="M2151.78 187.3C2152.06 187.417 2152.35 187.535 2152.64 187.653L1963.81 645.223C1963.58 645.129 1963.35 645.035 1963.12 644.94Z" stroke="#FFFFFF" stroke-width="1.14583" stroke-miterlimit="8" fill="#3F007D" fill-rule="evenodd"/><path d="M2152.64 187.657C2154.66 188.491 2156.68 189.329 2158.7 190.169L1968.66 647.232C1967.04 646.56 1965.43 645.89 1963.81 645.222Z" stroke="#FFFFFF" stroke-width="1.14583" stroke-miterlimit="8" fill="#3F007D" fill-rule="evenodd"/><path d="M2158.7 190.169C2160.43 190.886 2162.15 191.605 2163.87 192.326L1972.8 648.958C1971.42 648.382 1970.04 647.806 1968.66 647.233Z" stroke="#FFFFFF" stroke-width="1.14583" stroke-miterlimit="8" fill="#3F007D" fill-rule="evenodd"/><path d="M2163.87 192.323C2165.89 193.168 2167.91 194.015 2169.92 194.865L1977.64 650.994C1976.03 650.314 1974.41 649.636 1972.8 648.961Z" stroke="#FFFFFF" stroke-width="1.14583" stroke-miterlimit="8" fill="#3F007D" fill-rule="evenodd"/><path d="M2169.92 194.867C2170.9 195.279 2171.87 195.691 2172.85 196.104L1979.98 651.985C1979.2 651.654 1978.42 651.325 1977.64 650.996Z" stroke="#FFFFFF" stroke-width="1.14583" stroke-miterlimit="8" fill="#3F007D" fill-rule="evenodd"/><path d="M2172.85 196.102C2173.14 196.222 2173.42 196.343 2173.71 196.463L1980.67 652.271C1980.44 652.175 1980.21 652.078 1979.98 651.982Z" stroke="#FFFFFF" stroke-width="1.14583" stroke-miterlimit="8" fill="#3F007D" fill-rule="evenodd"/><path d="M2173.71 196.464C2175.43 197.193 2177.15 197.923 2178.86 198.656L1984.79 654.025C1983.42 653.44 1982.04 652.855 1980.66 652.272Z" stroke="#FFFFFF" stroke-width="1.14583" stroke-miterlimit="8" fill="#3F007D" fill-rule="evenodd"/><path d="M2178.87 198.657C2180.88 199.515 2182.89 200.375 2184.9 201.238L1989.62 656.088C1988.01 655.397 1986.4 654.709 1984.79 654.023Z" stroke="#FFFFFF" stroke-width="1.14583" stroke-miterlimit="8" fill="#3F007D" fill-rule="evenodd"/><path d="M2184.9 201.239C2186.62 201.976 2188.33 202.715 2190.05 203.456L1993.74 657.864C1992.37 657.271 1990.99 656.68 1989.62 656.09Z" stroke="#FFFFFF" stroke-width="1.14583" stroke-miterlimit="8" fill="#3F007D" fill-rule="evenodd"/><path d="M2190.04 203.453C2192.05 204.321 2194.06 205.191 2196.07 206.064L1998.56 659.953C1996.95 659.255 1995.35 658.558 1993.74 657.864Z" stroke="#FFFFFF" stroke-width="1.14583" stroke-miterlimit="8" fill="#3F007D" fill-rule="evenodd"/><path d="M2196.07 206.068C2198.42 207.089 2200.76 208.115 2203.11 209.144L2004.19 662.411C2002.31 661.588 2000.43 660.767 1998.56 659.95Z" stroke="#FFFFFF" stroke-width="1.14583" stroke-miterlimit="8" fill="#817EBB" fill-rule="evenodd"/><path d="M2203.11 209.143C2217.32 215.382 2231.48 221.755 2245.58 228.261L2038.17 677.709C2026.89 672.504 2015.56 667.406 2004.19 662.415Z" stroke="#FFFFFF" stroke-width="1.14583" stroke-miterlimit="8" fill="#3F007D" fill-rule="evenodd"/><path d="M2245.58 228.257C2247.07 228.944 2248.55 229.632 2250.04 230.321L2041.73 679.36C2040.55 678.809 2039.36 678.258 2038.17 677.709Z" stroke="#FFFFFF" stroke-width="1.14583" stroke-miterlimit="8" fill="#7261AB" fill-rule="evenodd"/><path d="M2250.04 230.325C2251.53 231.014 2253.01 231.705 2254.5 232.398L2045.3 681.017C2044.11 680.463 2042.92 679.91 2041.73 679.359Z" stroke="#FFFFFF" stroke-width="1.14583" stroke-miterlimit="8" fill="#7261AB" fill-rule="evenodd"/><path d="M2254.5 232.393C2288.9 248.435 2322.92 265.266 2356.55 282.873L2126.94 721.4C2100.04 707.315 2072.82 693.85 2045.3 681.017Z" stroke="#FFFFFF" stroke-width="1.14583" stroke-miterlimit="8" fill="#9E9AC8" fill-rule="evenodd"/><path d="M2356.55 282.873C2374.26 292.144 2391.85 301.628 2409.33 311.325L2169.16 744.164C2155.18 736.406 2141.1 728.818 2126.94 721.402Z" stroke="#FFFFFF" stroke-width="1.14583" stroke-miterlimit="8" fill="#4F1D8B" fill-rule="evenodd"/><path d="M2409.32 311.326C2442.52 329.742 2475.28 348.919 2507.59 368.843L2247.77 790.177C2221.93 774.239 2195.72 758.897 2169.16 744.164Z" stroke="#FFFFFF" stroke-width="1.14583" stroke-miterlimit="8" fill="#9E9AC8" fill-rule="evenodd"/><path d="M2507.59 368.843C2517.41 374.902 2527.2 381.03 2536.94 387.226L2271.25 804.88C2263.46 799.923 2255.63 795.021 2247.77 790.174Z" stroke="#FFFFFF" stroke-width="1.14583" stroke-miterlimit="8" fill="#9793C5" fill-rule="evenodd"/><path d="M2536.94 387.227C2538.32 388.106 2539.7 388.987 2541.08 389.869L2274.56 806.997C2273.46 806.291 2272.35 805.587 2271.25 804.883Z" stroke="#FFFFFF" stroke-width="1.14583" stroke-miterlimit="8" fill="#7261AB" fill-rule="evenodd"/><path d="M2541.08 389.868C2557.92 400.629 2574.63 411.594 2591.21 422.759L2314.67 833.306C2301.4 824.373 2288.04 815.602 2274.56 806.993Z" stroke="#FFFFFF" stroke-width="1.14583" stroke-miterlimit="8" fill="#4F1D8B" fill-rule="evenodd"/><path d="M2591.21 422.76C2622.69 443.966 2653.68 465.893 2684.15 488.524L2389.02 885.919C2364.65 867.814 2339.85 850.272 2314.67 833.307Z" stroke="#FFFFFF" stroke-width="1.14583" stroke-miterlimit="8" fill="#9E9AC8" fill-rule="evenodd"/><path d="M2684.16 488.527C2700.2 500.444 2716.1 512.554 2731.85 524.855L2427.18 914.983C2414.58 905.142 2401.86 895.454 2389.03 885.921Z" stroke="#FFFFFF" stroke-width="1.14583" stroke-miterlimit="8" fill="#4F1D8B" fill-rule="evenodd"/><path d="M2731.85 524.851C2761.77 548.214 2791.14 572.262 2819.95 596.976L2497.66 972.679C2474.61 952.908 2451.11 933.67 2427.18 914.979Z" stroke="#FFFFFF" stroke-width="1.14583" stroke-miterlimit="8" fill="#9E9AC8" fill-rule="evenodd"/><path d="M2819.95 596.979C2822.68 599.322 2825.41 601.67 2828.13 604.024L2504.21 978.32C2502.03 976.436 2499.85 974.558 2497.66 972.684Z" stroke="#FFFFFF" stroke-width="1.14583" stroke-miterlimit="8" fill="#EEECF5" fill-rule="evenodd"/><path d="M2828.13 604.022C2828.48 604.327 2828.83 604.632 2829.18 604.937L2505.05 979.051C2504.77 978.806 2504.49 978.562 2504.2 978.318Z" stroke="#FFFFFF" stroke-width="1.14583" stroke-miterlimit="8" fill="#E0E0EE" fill-rule="evenodd"/><path d="M2829.19 604.937C2831.2 606.685 2833.22 608.437 2835.23 610.191L2509.88 983.251C2508.27 981.847 2506.66 980.446 2505.05 979.048Z" stroke="#FFFFFF" stroke-width="1.14583" stroke-miterlimit="8" fill="#B5B5D7" fill-rule="evenodd"/><path d="M2835.23 610.193C2835.77 610.668 2836.32 611.143 2836.86 611.618L2511.19 984.394C2510.75 984.014 2510.32 983.634 2509.88 983.254Z" stroke="#FFFFFF" stroke-width="1.14583" stroke-miterlimit="8" fill="#FCFBFD" fill-rule="evenodd"/><path d="M2836.86 611.617C2837.91 612.535 2838.96 613.454 2840.01 614.374L2513.71 986.597C2512.87 985.861 2512.03 985.126 2511.19 984.392Z" stroke="#FFFFFF" stroke-width="1.14583" stroke-miterlimit="8" fill="#F3F1F7" fill-rule="evenodd"/><path d="M2840.01 614.372C2840.92 615.167 2841.82 615.962 2842.73 616.757L2515.88 988.508C2515.16 987.871 2514.43 987.235 2513.71 986.6Z" stroke="#FFFFFF" stroke-width="1.14583" stroke-miterlimit="8" fill="#EFEDF5" fill-rule="evenodd"/><path d="M2842.74 616.765C2842.79 616.809 2842.84 616.853 2842.89 616.897L2516.01 988.616C2515.97 988.581 2515.93 988.546 2515.89 988.511Z" stroke="#FFFFFF" stroke-width="1.14583" stroke-miterlimit="8" fill="#776AB0" fill-rule="evenodd"/><path d="M2842.89 616.895C2842.93 616.928 2842.96 616.962 2843 616.995L2516.1 988.697C2516.07 988.671 2516.04 988.644 2516.01 988.617Z" stroke="#FFFFFF" stroke-width="1.14583" stroke-miterlimit="8" fill="#3F007D" fill-rule="evenodd"/><path d="M2843 616.998C2847.56 621.003 2852.1 625.025 2856.62 629.064L2527 998.349C2523.38 995.118 2519.74 991.901 2516.1 988.697Z" stroke="#FFFFFF" stroke-width="1.14583" stroke-miterlimit="8" fill="#CECFE5" fill-rule="evenodd"/><path d="M2856.62 629.059C2856.8 629.227 2856.99 629.395 2857.18 629.563L2527.44 998.755C2527.29 998.621 2527.14 998.486 2526.99 998.352Z" stroke="#FFFFFF" stroke-width="1.14583" stroke-miterlimit="8" fill="#B5B5D7" fill-rule="evenodd"/><path d="M2857.18 629.568C2858.19 630.466 2859.19 631.364 2860.2 632.264L2529.86 1000.91C2529.06 1000.19 2528.25 999.471 2527.45 998.753Z" stroke="#FFFFFF" stroke-width="1.14583" stroke-miterlimit="8" fill="#A29FCB" fill-rule="evenodd"/><path d="M2860.19 632.264C2861.2 633.163 2862.2 634.064 2863.2 634.965L2532.26 1003.07C2531.46 1002.35 2530.66 1001.63 2529.85 1000.91Z" stroke="#FFFFFF" stroke-width="1.14583" stroke-miterlimit="8" fill="#A29FCB" fill-rule="evenodd"/><path d="M2863.2 634.965C2863.99 635.669 2864.77 636.374 2865.55 637.079L2534.14 1004.76C2533.52 1004.2 2532.89 1003.64 2532.26 1003.07Z" stroke="#FFFFFF" stroke-width="1.14583" stroke-miterlimit="8" fill="#B3B3D6" fill-rule="evenodd"/><path d="M2865.55 637.076C2869.11 640.279 2872.65 643.491 2876.18 646.714L2542.65 1012.47C2539.82 1009.89 2536.98 1007.32 2534.14 1004.76Z" stroke="#FFFFFF" stroke-width="1.14583" stroke-miterlimit="8" fill="#AEADD3" fill-rule="evenodd"/><path d="M2876.19 646.717C2878.89 649.185 2881.59 651.659 2884.29 654.139L2549.13 1018.41C2546.97 1016.43 2544.81 1014.45 2542.65 1012.47Z" stroke="#FFFFFF" stroke-width="1.14583" stroke-miterlimit="8" fill="#827FBB" fill-rule="evenodd"/><path d="M2884.29 654.139C2885.28 655.052 2886.27 655.965 2887.26 656.879L2551.51 1020.6C2550.71 1019.87 2549.92 1019.14 2549.13 1018.41Z" stroke="#FFFFFF" stroke-width="1.14583" stroke-miterlimit="8" fill="#A29FCB" fill-rule="evenodd"/><path d="M2887.26 656.878C2889.95 659.363 2892.64 661.853 2895.32 664.35L2557.95 1026.58C2555.81 1024.58 2553.66 1022.59 2551.51 1020.6Z" stroke="#FFFFFF" stroke-width="1.14583" stroke-miterlimit="8" fill="#827FBB" fill-rule="evenodd"/><path d="M2895.32 664.349C2895.98 664.965 2896.64 665.581 2897.3 666.198L2559.54 1028.06C2559.01 1027.56 2558.48 1027.07 2557.95 1026.58Z" stroke="#FFFFFF" stroke-width="1.14583" stroke-miterlimit="8" fill="#C8C8E2" fill-rule="evenodd"/><path d="M2897.3 666.2C2899.98 668.699 2902.65 671.204 2905.32 673.715L2565.96 1034.07C2563.82 1032.06 2561.69 1030.06 2559.54 1028.06Z" stroke="#FFFFFF" stroke-width="1.14583" stroke-miterlimit="8" fill="#827FBB" fill-rule="evenodd"/><path d="M2905.31 673.714C2906.68 675.003 2908.05 676.294 2909.42 677.586L2569.24 1037.17C2568.14 1036.13 2567.05 1035.1 2565.95 1034.07Z" stroke="#FFFFFF" stroke-width="1.14583" stroke-miterlimit="8" fill="#FCFBFD" fill-rule="evenodd"/><path d="M2909.42 677.584C2912.77 680.755 2916.11 683.935 2919.45 687.125L2577.26 1044.8C2574.59 1042.25 2571.92 1039.71 2569.24 1037.17Z" stroke="#FFFFFF" stroke-width="1.14583" stroke-miterlimit="8" fill="#B1B1D5" fill-rule="evenodd"/><path d="M2919.45 687.123C2920.58 688.203 2921.71 689.284 2922.83 690.366L2579.97 1047.39C2579.06 1046.53 2578.16 1045.66 2577.26 1044.8Z" stroke="#FFFFFF" stroke-width="1.14583" stroke-miterlimit="8" fill="#EEECF5" fill-rule="evenodd"/><path d="M2922.83 690.371C2923.96 691.453 2925.08 692.536 2926.21 693.62L2582.67 1049.99C2581.77 1049.13 2580.87 1048.26 2579.96 1047.39Z" stroke="#FFFFFF" stroke-width="1.14583" stroke-miterlimit="8" fill="#EEECF5" fill-rule="evenodd"/><path d="M2926.21 693.619C2928.26 695.597 2930.31 697.578 2932.36 699.563L2587.58 1054.75C2585.95 1053.16 2584.31 1051.58 2582.67 1050Z" stroke="#FFFFFF" stroke-width="1.14583" stroke-miterlimit="8" fill="#F2F0F7" fill-rule="evenodd"/><path d="M2932.35 699.563C2934.53 701.672 2936.7 703.785 2938.86 705.902L2592.79 1059.82C2591.06 1058.12 2589.32 1056.43 2587.58 1054.75Z" stroke="#FFFFFF" stroke-width="1.14583" stroke-miterlimit="8" fill="#E9E8F2" fill-rule="evenodd"/><path d="M2938.86 705.902C2950.74 717.524 2962.51 729.266 2974.16 741.125L2621.03 1088C2611.71 1078.51 2602.3 1069.12 2592.79 1059.82Z" stroke="#FFFFFF" stroke-width="1.14583" stroke-miterlimit="8" fill="#DEDDED" fill-rule="evenodd"/><path d="M2974.16 741.121C2980.23 747.301 2986.27 753.512 2992.27 759.755L2635.52 1102.9C2630.71 1097.91 2625.88 1092.94 2621.03 1088Z" stroke="#FFFFFF" stroke-width="1.14583" stroke-miterlimit="8" fill="#F4F2F8" fill-rule="evenodd"/><path d="M2992.28 759.754C3003.8 771.735 3015.2 783.832 3026.48 796.043L2662.89 1131.94C2653.86 1122.17 2644.74 1112.49 2635.52 1102.9Z" stroke="#FFFFFF" stroke-width="1.14583" stroke-miterlimit="8" fill="#DEDDED" fill-rule="evenodd"/><path d="M3026.48 796.046C3029.44 799.25 3032.4 802.463 3035.34 805.683L2669.97 1139.64C2667.61 1137.07 2665.25 1134.5 2662.88 1131.93Z" stroke="#FFFFFF" stroke-width="1.14583" stroke-miterlimit="8" fill="#B5B5D7" fill-rule="evenodd"/><path d="M3035.34 805.681C3036.39 806.835 3037.45 807.989 3038.5 809.144L2672.5 1142.42C2671.65 1141.49 2670.81 1140.57 2669.97 1139.65Z" stroke="#FFFFFF" stroke-width="1.14583" stroke-miterlimit="8" fill="#EEECF5" fill-rule="evenodd"/><path d="M3038.5 809.146C3044.33 815.551 3050.13 821.986 3055.89 828.452L2686.41 1157.86C2681.8 1152.69 2677.16 1147.54 2672.5 1142.42Z" stroke="#FFFFFF" stroke-width="1.14583" stroke-miterlimit="8" fill="#F4F2F8" fill-rule="evenodd"/><path d="M3055.89 828.45C3056.62 829.267 3057.35 830.084 3058.08 830.902L2688.16 1159.82C2687.58 1159.17 2686.99 1158.51 2686.41 1157.86Z" stroke="#FFFFFF" stroke-width="1.14583" stroke-miterlimit="8" fill="#E6E5F1" fill-rule="evenodd"/><path d="M3058.08 830.902C3069.12 843.325 3080.04 855.859 3090.84 868.502L2714.37 1189.9C2705.73 1179.79 2697 1169.76 2688.16 1159.82Z" stroke="#FFFFFF" stroke-width="1.14583" stroke-miterlimit="8" fill="#DEDDED" fill-rule="evenodd"/><path d="M3090.84 868.504C3096.46 875.092 3102.05 881.709 3107.61 888.356L2727.78 1205.78C2723.34 1200.47 2718.87 1195.17 2714.37 1189.9Z" stroke="#FFFFFF" stroke-width="1.14583" stroke-miterlimit="8" fill="#F4F2F8" fill-rule="evenodd"/><path d="M3107.6 888.355C3118.26 901.11 3128.79 913.973 3139.19 926.94L2753.06 1236.65C2744.74 1226.28 2736.31 1215.99 2727.78 1205.78Z" stroke="#FFFFFF" stroke-width="1.14583" stroke-miterlimit="8" fill="#DEDDED" fill-rule="evenodd"/><path d="M3139.19 926.941C3140.31 928.327 3141.42 929.714 3142.52 931.102L2755.72 1239.98C2754.83 1238.87 2753.95 1237.76 2753.06 1236.65Z" stroke="#FFFFFF" stroke-width="1.14583" stroke-miterlimit="8" fill="#FCFBFD" fill-rule="evenodd"/><path d="M3142.52 931.099C3143.56 932.392 3144.59 933.686 3145.62 934.981L2758.2 1243.09C2757.37 1242.05 2756.55 1241.02 2755.72 1239.98Z" stroke="#FFFFFF" stroke-width="1.14583" stroke-miterlimit="8" fill="#BDBEDC" fill-rule="evenodd"/><path d="M3145.62 934.986C3145.92 935.368 3146.23 935.75 3146.53 936.132L2758.93 1244C2758.68 1243.7 2758.44 1243.39 2758.2 1243.09Z" stroke="#FFFFFF" stroke-width="1.14583" stroke-miterlimit="8" fill="#FCFBFD" fill-rule="evenodd"/><path d="M3146.53 936.128C3146.83 936.51 3147.14 936.892 3147.44 937.275L2759.65 1244.92C2759.41 1244.62 2759.17 1244.31 2758.92 1244.01Z" stroke="#FFFFFF" stroke-width="1.14583" stroke-miterlimit="8" fill="#FCFBFD" fill-rule="evenodd"/><path d="M3147.44 937.275C3148.79 938.98 3150.14 940.686 3151.49 942.394L2762.89 1249.02C2761.82 1247.65 2760.74 1246.29 2759.65 1244.92Z" stroke="#FFFFFF" stroke-width="1.14583" stroke-miterlimit="8" fill="#FCFBFD" fill-rule="evenodd"/><path d="M3151.49 942.396C3153.05 944.377 3154.61 946.361 3156.17 948.346L2766.64 1253.77C2765.39 1252.19 2764.14 1250.6 2762.89 1249.01Z" stroke="#FFFFFF" stroke-width="1.14583" stroke-miterlimit="8" fill="#BFC0DE" fill-rule="evenodd"/><path d="M3156.17 948.346C3168.38 963.92 3180.41 979.64 3192.24 995.503L2795.49 1291.5C2786.03 1278.81 2776.41 1266.23 2766.64 1253.77Z" stroke="#FFFFFF" stroke-width="1.14583" stroke-miterlimit="8" fill="#F8F7FA" fill-rule="evenodd"/><path d="M3192.24 995.502C3196.8 1001.61 3201.33 1007.74 3205.83 1013.89L2806.36 1306.21C2802.76 1301.29 2799.14 1296.39 2795.49 1291.5Z" stroke="#FFFFFF" stroke-width="1.14583" stroke-miterlimit="8" fill="#FCFBFD" fill-rule="evenodd"/><path d="M3205.83 1013.89C3217.52 1029.86 3229.01 1045.97 3240.31 1062.22L2833.95 1344.88C2824.91 1331.88 2815.71 1318.99 2806.36 1306.21Z" stroke="#FFFFFF" stroke-width="1.14583" stroke-miterlimit="8" fill="#F8F7FA" fill-rule="evenodd"/><path d="M3240.31 1062.22C3242.27 1065.04 3244.23 1067.86 3246.18 1070.69L2838.64 1351.65C2837.08 1349.39 2835.52 1347.13 2833.95 1344.88Z" stroke="#FFFFFF" stroke-width="1.14583" stroke-miterlimit="8" fill="#6A51A3" fill-rule="evenodd"/><path d="M3246.18 1070.69C3246.46 1071.09 3246.73 1071.49 3247.01 1071.89L2839.3 1352.61C2839.08 1352.29 2838.86 1351.97 2838.64 1351.65Z" stroke="#FFFFFF" stroke-width="1.14583" stroke-miterlimit="8" fill="#FCFBFD" fill-rule="evenodd"/><path d="M3247.01 1071.9C3251.33 1078.17 3255.62 1084.47 3259.89 1090.79L2849.61 1367.73C2846.2 1362.67 2842.77 1357.63 2839.31 1352.61Z" stroke="#FFFFFF" stroke-width="1.14583" stroke-miterlimit="8" fill="#FCFBFD" fill-rule="evenodd"/><path d="M3259.89 1090.79C3260.95 1092.36 3262.01 1093.94 3263.07 1095.52L2852.16 1371.52C2851.31 1370.25 2850.46 1368.99 2849.61 1367.73Z" stroke="#FFFFFF" stroke-width="1.14583" stroke-miterlimit="8" fill="#FCFBFD" fill-rule="evenodd"/><path d="M3263.08 1095.52C3274.11 1111.95 3284.95 1128.51 3295.58 1145.2L2878.17 1411.26C2869.66 1397.9 2860.99 1384.66 2852.16 1371.51Z" stroke="#FFFFFF" stroke-width="1.14583" stroke-miterlimit="8" fill="#F8F7FA" fill-rule="evenodd"/><path d="M3295.58 1145.2C3299.68 1151.63 3303.75 1158.07 3307.78 1164.54L2887.93 1426.73C2884.7 1421.55 2881.44 1416.4 2878.17 1411.26Z" stroke="#FFFFFF" stroke-width="1.14583" stroke-miterlimit="8" fill="#FCFBFD" fill-rule="evenodd"/><path d="M3307.78 1164.53C3318.27 1181.32 3328.55 1198.23 3338.63 1215.27L2912.6 1467.32C2904.54 1453.69 2896.31 1440.16 2887.93 1426.73Z" stroke="#FFFFFF" stroke-width="1.14583" stroke-miterlimit="8" fill="#F8F7FA" fill-rule="evenodd"/><path d="M3338.63 1215.27C3345.06 1226.14 3351.41 1237.06 3357.68 1248.03L2927.84 1493.53C2922.83 1484.75 2917.75 1476.01 2912.6 1467.32Z" stroke="#FFFFFF" stroke-width="1.14583" stroke-miterlimit="8" fill="#E5E4F0" fill-rule="evenodd"/><path d="M3357.67 1248.03C3358.31 1249.15 3358.95 1250.26 3359.58 1251.38L2929.37 1496.2C2928.86 1495.31 2928.35 1494.42 2927.84 1493.53Z" stroke="#FFFFFF" stroke-width="1.14583" stroke-miterlimit="8" fill="#3F007D" fill-rule="evenodd"/><path d="M3359.58 1251.38C3360.21 1252.49 3360.85 1253.61 3361.48 1254.72L2930.89 1498.88C2930.38 1497.99 2929.87 1497.1 2929.37 1496.2Z" stroke="#FFFFFF" stroke-width="1.14583" stroke-miterlimit="8" fill="#3F007D" fill-rule="evenodd"/><path d="M3361.48 1254.73C3365.09 1261.08 3368.66 1267.45 3372.21 1273.83L2939.46 1514.17C2936.63 1509.06 2933.77 1503.97 2930.88 1498.88Z" stroke="#FFFFFF" stroke-width="1.14583" stroke-miterlimit="8" fill="#3F007D" fill-rule="evenodd"/><path d="M3372.21 1273.84C3372.83 1274.96 3373.45 1276.08 3374.08 1277.2L2940.96 1516.86C2940.46 1515.96 2939.96 1515.06 2939.46 1514.17Z" stroke="#FFFFFF" stroke-width="1.14583" stroke-miterlimit="8" fill="#3F007D" fill-rule="evenodd"/><path d="M3374.07 1277.2C3377.61 1283.59 3381.11 1290 3384.59 1296.42L2949.37 1532.23C2946.59 1527.1 2943.79 1521.97 2940.96 1516.86Z" stroke="#FFFFFF" stroke-width="1.14583" stroke-miterlimit="8" fill="#3F007D" fill-rule="evenodd"/><path d="M3384.59 1296.42C3388.07 1302.84 3391.53 1309.28 3394.95 1315.73L2957.66 1547.68C2954.92 1542.52 2952.16 1537.37 2949.38 1532.23Z" stroke="#FFFFFF" stroke-width="1.14583" stroke-miterlimit="8" fill="#3F007D" fill-rule="evenodd"/><path d="M3394.95 1315.73C3397.24 1320.04 3399.51 1324.36 3401.77 1328.69L2963.12 1558.05C2961.31 1554.59 2959.49 1551.13 2957.66 1547.69Z" stroke="#FFFFFF" stroke-width="1.14583" stroke-miterlimit="8" fill="#9390C3" fill-rule="evenodd"/><path d="M3401.77 1328.68C3405.56 1335.93 3409.32 1343.2 3413.03 1350.49L2972.13 1575.49C2969.15 1569.66 2966.15 1563.85 2963.12 1558.05Z" stroke="#FFFFFF" stroke-width="1.14583" stroke-miterlimit="8" fill="#FCFBFD" fill-rule="evenodd"/><path d="M3413.04 1350.49C3423.95 1371.87 3434.55 1393.41 3444.83 1415.1L2997.56 1627.18C2989.34 1609.83 2980.86 1592.6 2972.13 1575.49Z" stroke="#FFFFFF" stroke-width="1.14583" stroke-miterlimit="8" fill="#8582BC" fill-rule="evenodd"/><path d="M3444.83 1415.09C3446.02 1417.61 3447.21 1420.13 3448.4 1422.65L3000.42 1633.22C2999.47 1631.2 2998.52 1629.19 2997.56 1627.18Z" stroke="#FFFFFF" stroke-width="1.14583" stroke-miterlimit="8" fill="#D0D1E6" fill-rule="evenodd"/><path d="M3448.4 1422.65C3449.58 1425.17 3450.76 1427.69 3451.94 1430.22L3003.25 1639.27C3002.31 1637.25 3001.36 1635.24 3000.42 1633.22Z" stroke="#FFFFFF" stroke-width="1.14583" stroke-miterlimit="8" fill="#D0D1E6" fill-rule="evenodd"/><path d="M3451.94 1430.22C3453.43 1433.43 3454.92 1436.64 3456.4 1439.85L3006.82 1646.98C3005.64 1644.41 3004.45 1641.84 3003.25 1639.27Z" stroke="#FFFFFF" stroke-width="1.14583" stroke-miterlimit="8" fill="#EAE9F3" fill-rule="evenodd"/><path d="M3456.4 1439.85C3464.22 1456.82 3471.84 1473.88 3479.28 1491.03L3025.12 1687.92C3019.18 1674.2 3013.08 1660.55 3006.82 1646.98Z" stroke="#FFFFFF" stroke-width="1.14583" stroke-miterlimit="8" fill="#E8E7F2" fill-rule="evenodd"/><path d="M3479.28 1491.02C3481.86 1496.98 3484.42 1502.94 3486.95 1508.91L3031.26 1702.24C3029.24 1697.46 3027.19 1692.68 3025.12 1687.92Z" stroke="#FFFFFF" stroke-width="1.14583" stroke-miterlimit="8" fill="#A5A2CD" fill-rule="evenodd"/><path d="M3486.95 1508.92C3488.04 1511.48 3489.12 1514.05 3490.2 1516.61L3033.86 1708.39C3033 1706.34 3032.13 1704.28 3031.26 1702.23Z" stroke="#FFFFFF" stroke-width="1.14583" stroke-miterlimit="8" fill="#D0D1E6" fill-rule="evenodd"/><path d="M3490.2 1516.61C3497.44 1533.84 3504.48 1551.15 3511.33 1568.53L3050.77 1749.93C3045.29 1736.02 3039.65 1722.17 3033.86 1708.39Z" stroke="#FFFFFF" stroke-width="1.14583" stroke-miterlimit="8" fill="#E8E7F2" fill-rule="evenodd"/><path d="M3511.33 1568.54C3511.81 1569.76 3512.29 1570.98 3512.77 1572.2L3051.92 1752.86C3051.54 1751.88 3051.15 1750.9 3050.77 1749.93Z" stroke="#FFFFFF" stroke-width="1.14583" stroke-miterlimit="8" fill="#AFAED4" fill-rule="evenodd"/><path d="M3512.77 1572.21C3519.59 1589.6 3526.22 1607.08 3532.64 1624.63L3067.81 1794.8C3062.67 1780.76 3057.38 1766.78 3051.92 1752.86Z" stroke="#FFFFFF" stroke-width="1.14583" stroke-miterlimit="8" fill="#E8E7F2" fill-rule="evenodd"/><path d="M3532.64 1624.62C3532.77 1624.97 3532.89 1625.31 3533.02 1625.65L3068.11 1795.62C3068.01 1795.35 3067.91 1795.07 3067.81 1794.8Z" stroke="#FFFFFF" stroke-width="1.14583" stroke-miterlimit="8" fill="#F8F7FA" fill-rule="evenodd"/><path d="M3533.02 1625.65C3537.65 1638.33 3542.19 1651.05 3546.61 1663.8L3078.99 1826.14C3075.45 1815.94 3071.82 1805.76 3068.11 1795.62Z" stroke="#FFFFFF" stroke-width="1.14583" stroke-miterlimit="8" fill="#DCDCEC" fill-rule="evenodd"/><path d="M3546.61 1663.8C3560.69 1704.36 3573.72 1745.28 3585.67 1786.52L3110.23 1924.32C3100.67 1891.33 3090.25 1858.59 3078.99 1826.14Z" stroke="#FFFFFF" stroke-width="1.14583" stroke-miterlimit="8" fill="#3F007D" fill-rule="evenodd"/><path d="M3585.67 1786.52C3586.7 1790.06 3587.71 1793.61 3588.73 1797.15L3112.68 1932.82C3111.87 1929.99 3111.06 1927.15 3110.24 1924.32Z" stroke="#FFFFFF" stroke-width="1.14583" stroke-miterlimit="8" fill="#4D1B89" fill-rule="evenodd"/><path d="M3588.72 1797.15C3589.73 1800.7 3590.74 1804.25 3591.73 1807.8L3115.08 1941.34C3114.29 1938.5 3113.49 1935.66 3112.68 1932.82Z" stroke="#FFFFFF" stroke-width="1.14583" stroke-miterlimit="8" fill="#4D1B89" fill-rule="evenodd"/><path d="M3591.73 1807.8C3594.51 1817.69 3597.22 1827.61 3599.87 1837.54L3121.59 1965.13C3119.47 1957.19 3117.3 1949.25 3115.08 1941.34Z" stroke="#FFFFFF" stroke-width="1.14583" stroke-miterlimit="8" fill="#A3A0CB" fill-rule="evenodd"/><path d="M3599.87 1837.54C3615.14 1894.79 3628.35 1952.56 3639.48 2010.76L3153.28 2103.71C3144.38 2057.15 3133.81 2010.93 3121.59 1965.13Z" stroke="#FFFFFF" stroke-width="1.14583" stroke-miterlimit="8" fill="#C2C3DF" fill-rule="evenodd"/><path d="M3639.48 2010.77C3643.23 2030.4 3646.75 2050.09 3650.03 2069.81L3161.72 2150.95C3159.1 2135.17 3156.29 2119.42 3153.28 2103.71Z" stroke="#FFFFFF" stroke-width="1.14583" stroke-miterlimit="8" fill="#6D57A6" fill-rule="evenodd"/><path d="M3650.02 2069.81C3650.63 2073.45 3651.22 2077.09 3651.81 2080.72L3163.15 2159.68C3162.68 2156.77 3162.2 2153.85 3161.72 2150.95Z" stroke="#FFFFFF" stroke-width="1.14583" stroke-miterlimit="8" fill="#4D1B89" fill-rule="evenodd"/><path d="M3651.82 2080.72C3661.27 2139.22 3668.61 2198.03 3673.84 2257.05L3180.78 2300.74C3176.59 2253.52 3170.71 2206.47 3163.15 2159.68Z" stroke="#FFFFFF" stroke-width="1.14583" stroke-miterlimit="8" fill="#C2C3DF" fill-rule="evenodd"/><path d="M3673.84 2257.05C3674.4 2263.39 3674.94 2269.74 3675.46 2276.08L3182.06 2315.97C3181.65 2310.89 3181.22 2305.81 3180.77 2300.74Z" stroke="#FFFFFF" stroke-width="1.14583" stroke-miterlimit="8" fill="#C2C3DF" fill-rule="evenodd"/><path d="M3675.46 2276.08C3680.23 2335.14 3682.88 2394.35 3683.41 2453.6L3188.42 2457.98C3188 2410.58 3185.88 2363.22 3182.06 2315.97Z" stroke="#FFFFFF" stroke-width="1.14583" stroke-miterlimit="8" fill="#C2C3DF" fill-rule="evenodd"/><path d="M3683.4 2453.6C3683.47 2460.9 3683.5 2468.2 3683.5 2475.5L3188.5 2475.5C3188.5 2469.66 3188.47 2463.82 3188.42 2457.98Z" stroke="#FFFFFF" stroke-width="1.14583" stroke-miterlimit="8" fill="#B7B7D9" fill-rule="evenodd"/><text font-family="Calibri,Calibri_MSFontService,sans-serif" font-weight="400" font-size="248" transform="matrix(1 0 0 1 29.5625 1240)">9,553<tspan font-size="83" x="-0.000360489" y="-221">S</tspan><tspan font-size="66" x="37.2163" y="-221">ALES</tspan><tspan font-size="248" x="0" y="466">+10.4%</tspan><tspan font-size="83" x="-0.000360489" y="246">G</tspan><tspan font-size="66" x="52.1351" y="246">ROWTH</tspan></text></g></svg>