<svg width="4237" height="4531" xmlns="http://www.w3.org/2000/svg" xmlns:xlink="http://www.w3.org/1999/xlink" overflow="hidden"><defs><clipPath id="clip0"><rect x="85" y="100" width="4237" height="4531"/></clipPath><clipPath id="clip1"><rect x="88" y="-111" width="523" height="540"/></clipPath><clipPath id="clip2"><rect x="610" y="-111" width="926" height="540"/></clipPath><clipPath id="clip3"><rect x="1535" y="-111" width="927" height="540"/></clipPath><clipPath id="clip4"><rect x="2461" y="-111" width="926" height="540"/></clipPath><clipPath id="clip5"><rect x="3386" y="-111" width="927" height="540"/></clipPath><clipPath id="clip6"><rect x="88" y="-793" width="523" height="2388"/></clipPath><clipPath id="clip7"><rect x="88" y="-793" width="523" height="2388"/></clipPath><clipPath id="clip8"><rect x="88" y="-793" width="523" height="2388"/></clipPath><clipPath id="clip9"><rect x="610" y="-925" width="926" height="2696"/></clipPath><clipPath id="clip10"><rect x="610" y="-925" width="926" height="2696"/></clipPath><clipPath id="clip11"><rect x="610" y="-925" width="926" height="2696"/></clipPath><clipPath id="clip12"><rect x="610" y="-925" width="926" height="2696"/></clipPath><clipPath id="clip13"><rect x="610" y="-925" width="926" height="2696"/></clipPath><clipPath id="clip14"><rect x="1535" y="-4390" width="927" height="10781"/></clipPath><clipPath id="clip15"><rect x="1535" y="-4390" width="927" height="10781"/></clipPath><clipPath id="clip16"><rect x="1535" y="-4390" width="927" height="10781"/></clipPath><clipPath id="clip17"><rect x="1535" y="-4390" width="927" height="10781"/></clipPath><clipPath id="clip18"><rect x="1535" y="-4390" width="927" height="10781"/></clipPath><clipPath id="clip19"><rect x="1535" y="-4390" width="927" height="10781"/></clipPath><clipPath id="clip20"><rect x="1535" y="-4390" width="927" height="10781"/></clipPath><clipPath id="clip21"><rect x="1535" y="-4390" width="927" height="10781"/></clipPath><clipPath id="clip22"><rect x="1535" y="-4390" width="927" height="10781"/></clipPath><clipPath id="clip23"><rect x="1535" y="-4390" width="927" height="10781"/></clipPath><clipPath id="clip24"><rect x="1535" y="-4390" width="927" height="10781"/></clipPath><clipPath id="clip25"><rect x="1535" y="-4390" width="927" height="10781"/></clipPath><clipPath id="clip26"><rect x="1535" y="-4390" width="927" height="10781"/></clipPath><clipPath id="clip27"><rect x="1535" y="-4390" width="927" height="10781"/></clipPath><clipPath id="clip28"><rect x="1535" y="-4390" width="927" height="10781"/></clipPath><clipPath id="clip29"><rect x="1535" y="-4390" width="927" height="10781"/></clipPath><clipPath id="clip30"><rect x="1535" y="-4390" width="927" height="10781"/></clipPath><clipPath id="clip31"><rect x="2461" y="-1387" width="926" height="3774"/></clipPath><clipPath id="clip32"><rect x="2461" y="-1387" width="926" height="3774"/></clipPath><clipPath id="clip33"><rect x="2461" y="-1387" width="926" height="3774"/></clipPath><clipPath id="clip34"><rect x="2461" y="-1387" width="926" height="3774"/></clipPath><clipPath id="clip35"><rect x="2461" y="-1387" width="926" height="3774"/></clipPath><clipPath id="clip36"><rect x="2461" y="-1387" width="926" height="3774"/></clipPath><clipPath id="clip37"><rect x="2461" y="-1387" width="926" height="3774"/></clipPath><clipPath id="clip38"><rect x="2461" y="-1387" width="926" height="3774"/></clipPath><clipPath id="clip39"><rect x="3386" y="-2773" width="927" height="7008"/></clipPath><clipPath id="clip40"><rect x="3386" y="-2773" width="927" height="7008"/></clipPath><clipPath id="clip41"><rect x="3386" y="-2773" width="927" height="7008"/></clipPath><clipPath id="clip42"><rect x="3386" y="-2773" width="927" height="7008"/></clipPath><clipPath id="clip43"><rect x="3386" y="-2773" width="927" height="7008"/></clipPath><clipPath id="clip44"><rect x="3386" y="-2773" width="927" height="7008"/></clipPath><clipPath id="clip45"><rect x="3386" y="-2773" width="927" height="7008"/></clipPath><clipPath id="clip46"><rect x="3386" y="-2773" width="927" height="7008"/></clipPath><clipPath id="clip47"><rect x="3386" y="-2773" width="927" height="7008"/></clipPath><clipPath id="clip48"><rect x="3386" y="-2773" width="927" height="7008"/></clipPath><clipPath id="clip49"><rect x="3386" y="-2773" width="927" height="7008"/></clipPath><clipPath id="clip50"><rect x="88" y="780" width="523" height="2388"/></clipPath><clipPath id="clip51"><rect x="88" y="780" width="523" height="2388"/></clipPath><clipPath id="clip52"><rect x="88" y="780" width="523" height="2388"/></clipPath><clipPath id="clip53"><rect x="610" y="-276" width="926" height="4852"/></clipPath><clipPath id="clip54"><rect x="610" y="-276" width="926" height="4852"/></clipPath><clipPath id="clip55"><rect x="610" y="-276" width="926" height="4852"/></clipPath><clipPath id="clip56"><rect x="610" y="-276" width="926" height="4852"/></clipPath><clipPath id="clip57"><rect x="610" y="-276" width="926" height="4852"/></clipPath><clipPath id="clip58"><rect x="610" y="-276" width="926" height="4852"/></clipPath><clipPath id="clip59"><rect x="610" y="-276" width="926" height="4852"/></clipPath><clipPath id="clip60"><rect x="610" y="-276" width="926" height="4852"/></clipPath><clipPath id="clip61"><rect x="610" y="-276" width="926" height="4852"/></clipPath><clipPath id="clip62"><rect x="2461" y="-276" width="926" height="4852"/></clipPath><clipPath id="clip63"><rect x="2461" y="-276" width="926" height="4852"/></clipPath><clipPath id="clip64"><rect x="2461" y="-276" width="926" height="4852"/></clipPath><clipPath id="clip65"><rect x="2461" y="-276" width="926" height="4852"/></clipPath><clipPath id="clip66"><rect x="2461" y="-276" width="926" height="4852"/></clipPath><clipPath id="clip67"><rect x="2461" y="-276" width="926" height="4852"/></clipPath><clipPath id="clip68"><rect x="2461" y="-276" width="926" height="4852"/></clipPath><clipPath id="clip69"><rect x="2461" y="-276" width="926" height="4852"/></clipPath><clipPath id="clip70"><rect x="3386" y="417" width="927" height="3235"/></clipPath><clipPath id="clip71"><rect x="3386" y="417" width="927" height="3235"/></clipPath><clipPath id="clip72"><rect x="3386" y="417" width="927" height="3235"/></clipPath><clipPath id="clip73"><rect x="3386" y="417" width="927" height="3235"/></clipPath><clipPath id="clip74"><rect x="3386" y="417" width="927" height="3235"/></clipPath><clipPath id="clip75"><rect x="3386" y="417" width="927" height="3235"/></clipPath><clipPath id="clip76"><rect x="88" y="1506" width="523" height="2388"/></clipPath><clipPath id="clip77"><rect x="88" y="1506" width="523" height="2388"/></clipPath><clipPath id="clip78"><rect x="88" y="1506" width="523" height="2388"/></clipPath><clipPath id="clip79"><rect x="610" y="912" width="926" height="3774"/></clipPath><clipPath id="clip80"><rect x="610" y="912" width="926" height="3774"/></clipPath><clipPath id="clip81"><rect x="610" y="912" width="926" height="3774"/></clipPath><clipPath id="clip82"><rect x="610" y="912" width="926" height="3774"/></clipPath><clipPath id="clip83"><rect x="610" y="912" width="926" height="3774"/></clipPath><clipPath id="clip84"><rect x="3386" y="2298" width="927" height="540"/></clipPath><clipPath id="clip85"><rect x="88" y="2078" width="523" height="2388"/></clipPath><clipPath id="clip86"><rect x="88" y="2078" width="523" height="2388"/></clipPath><clipPath id="clip87"><rect x="88" y="2078" width="523" height="2388"/></clipPath><clipPath id="clip88"><rect x="1535" y="2408" width="927" height="1618"/></clipPath><clipPath id="clip89"><rect x="1535" y="2408" width="927" height="1618"/></clipPath><clipPath id="clip90"><rect x="88" y="2452" width="523" height="2388"/></clipPath><clipPath id="clip91"><rect x="88" y="2452" width="523" height="2388"/></clipPath><clipPath id="clip92"><rect x="88" y="2452" width="523" height="2388"/></clipPath><clipPath id="clip93"><rect x="88" y="2826" width="523" height="2388"/></clipPath><clipPath id="clip94"><rect x="88" y="2826" width="523" height="2388"/></clipPath><clipPath id="clip95"><rect x="88" y="2826" width="523" height="2388"/></clipPath><clipPath id="clip96"><rect x="1535" y="3618" width="927" height="540"/></clipPath><clipPath id="clip97"><rect x="2461" y="3387" width="926" height="1079"/></clipPath><clipPath id="clip98"><rect x="2461" y="3387" width="926" height="1079"/></clipPath><clipPath id="clip99"><rect x="88" y="3200" width="523" height="2388"/></clipPath><clipPath id="clip100"><rect x="88" y="3200" width="523" height="2388"/></clipPath><clipPath id="clip101"><rect x="88" y="3200" width="523" height="2388"/></clipPath><clipPath id="clip102"><rect x="1535" y="3992" width="927" height="540"/></clipPath><clipPath id="clip103"><rect x="2461" y="3761" width="926" height="1079"/></clipPath><clipPath id="clip104"><rect x="2461" y="3761" width="926" height="1079"/></clipPath></defs><g clip-path="url(#clip0)" transform="translate(-85 -100)"><path d="M88.0007 103.62 610.48 103.62 610.48 213.62 88.0007 213.62Z" fill="#6D8FFB" fill-rule="evenodd"/><path d="M610.48 103.62 1535.86 103.62 1535.86 213.62 610.48 213.62Z" fill="#6D8FFB" fill-rule="evenodd"/><path d="M1535.86 103.62 2461.24 103.62 2461.24 213.62 1535.86 213.62Z" fill="#6D8FFB" fill-rule="evenodd"/><path d="M2461.24 103.62 3386.62 103.62 3386.62 213.62 2461.24 213.62Z" fill="#6D8FFB" fill-rule="evenodd"/><path d="M3386.62 103.62 4312 103.62 4312 213.62 3386.62 213.62Z" fill="#6D8FFB" fill-rule="evenodd"/><path d="M88.0007 213.62 610.48 213.62 610.48 1786.62 88.0007 1786.62Z" fill="#D4DBFD" fill-rule="evenodd"/><path d="M610.48 213.62 1535.86 213.62 1535.86 1786.62 610.48 1786.62Z" fill="#D4DBFD" fill-rule="evenodd"/><path d="M1535.86 213.62 2461.24 213.62 2461.24 1786.62 1535.86 1786.62Z" fill="#D4DBFD" fill-rule="evenodd"/><path d="M2461.24 213.62 3386.62 213.62 3386.62 1786.62 2461.24 1786.62Z" fill="#D4DBFD" fill-rule="evenodd"/><path d="M3386.62 213.62 4312 213.62 4312 1786.62 3386.62 1786.62Z" fill="#D4DBFD" fill-rule="evenodd"/><path d="M88.0007 1786.62 610.48 1786.62 610.48 2512.62 88.0007 2512.62Z" fill="#EBEEFE" fill-rule="evenodd"/><path d="M610.48 1786.62 1535.86 1786.62 1535.86 2512.62 610.48 2512.62Z" fill="#EBEEFE" fill-rule="evenodd"/><path d="M1535.86 1786.62 2461.24 1786.62 2461.24 2512.62 1535.86 2512.62Z" fill="#EBEEFE" fill-rule="evenodd"/><path d="M2461.24 1786.62 3386.62 1786.62 3386.62 2512.62 2461.24 2512.62Z" fill="#EBEEFE" fill-rule="evenodd"/><path d="M3386.62 1786.62 4312 1786.62 4312 2512.62 3386.62 2512.62Z" fill="#EBEEFE" fill-rule="evenodd"/><path d="M88.0007 2512.62 610.48 2512.62 610.48 3084.62 88.0007 3084.62Z" fill="#D4DBFD" fill-rule="evenodd"/><path d="M610.48 2512.62 1535.86 2512.62 1535.86 3084.62 610.48 3084.62Z" fill="#D4DBFD" fill-rule="evenodd"/><path d="M1535.86 2512.62 2461.24 2512.62 2461.24 3084.62 1535.86 3084.62Z" fill="#D4DBFD" fill-rule="evenodd"/><path d="M2461.24 2512.62 3386.62 2512.62 3386.62 3084.62 2461.24 3084.62Z" fill="#D4DBFD" fill-rule="evenodd"/><path d="M3386.62 2512.62 4312 2512.62 4312 3084.62 3386.62 3084.62Z" fill="#D4DBFD" fill-rule="evenodd"/><path d="M88.0007 3084.62 610.48 3084.62 610.48 3458.62 88.0007 3458.62Z" fill="#EBEEFE" fill-rule="evenodd"/><path d="M610.48 3084.62 1535.86 3084.62 1535.86 3458.62 610.48 3458.62Z" fill="#EBEEFE" fill-rule="evenodd"/><path d="M1535.86 3084.62 2461.24 3084.62 2461.24 3458.62 1535.86 3458.62Z" fill="#EBEEFE" fill-rule="evenodd"/><path d="M2461.24 3084.62 3386.62 3084.62 3386.62 3458.62 2461.24 3458.62Z" fill="#EBEEFE" fill-rule="evenodd"/><path d="M3386.62 3084.62 4312 3084.62 4312 3458.62 3386.62 3458.62Z" fill="#EBEEFE" fill-rule="evenodd"/><path d="M88.0007 3458.62 610.48 3458.62 610.48 3832.62 88.0007 3832.62Z" fill="#D4DBFD" fill-rule="evenodd"/><path d="M610.48 3458.62 1535.86 3458.62 1535.86 3832.62 610.48 3832.62Z" fill="#D4DBFD" fill-rule="evenodd"/><path d="M1535.86 3458.62 2461.24 3458.62 2461.24 3832.62 1535.86 3832.62Z" fill="#D4DBFD" fill-rule="evenodd"/><path d="M2461.24 3458.62 3386.62 3458.62 3386.62 3832.62 2461.24 3832.62Z" fill="#D4DBFD" fill-rule="evenodd"/><path d="M3386.62 3458.62 4312 3458.62 4312 3832.62 3386.62 3832.62Z" fill="#D4DBFD" fill-rule="evenodd"/><path d="M88.0007 3832.62 610.48 3832.62 610.48 4206.62 88.0007 4206.62Z" fill="#EBEEFE" fill-rule="evenodd"/><path d="M610.48 3832.62 1535.86 3832.62 1535.86 4206.62 610.48 4206.62Z" fill="#EBEEFE" fill-rule="evenodd"/><path d="M1535.86 3832.62 2461.24 3832.62 2461.24 4206.62 1535.86 4206.62Z" fill="#EBEEFE" fill-rule="evenodd"/><path d="M2461.24 3832.62 3386.62 3832.62 3386.62 4206.62 2461.24 4206.62Z" fill="#EBEEFE" fill-rule="evenodd"/><path d="M3386.62 3832.62 4312 3832.62 4312 4206.62 3386.62 4206.62Z" fill="#EBEEFE" fill-rule="evenodd"/><path d="M88.0007 4206.62 610.48 4206.62 610.48 4580.62 88.0007 4580.62Z" fill="#D4DBFD" fill-rule="evenodd"/><path d="M610.48 4206.62 1535.86 4206.62 1535.86 4580.62 610.48 4580.62Z" fill="#D4DBFD" fill-rule="evenodd"/><path d="M1535.86 4206.62 2461.24 4206.62 2461.24 4580.62 1535.86 4580.62Z" fill="#D4DBFD" fill-rule="evenodd"/><path d="M2461.24 4206.62 3386.62 4206.62 3386.62 4580.62 2461.24 4580.62Z" fill="#D4DBFD" fill-rule="evenodd"/><path d="M3386.62 4206.62 4312 4206.62 4312 4580.62 3386.62 4580.62Z" fill="#D4DBFD" fill-rule="evenodd"/><path d="M610.48 101.328 610.48 4582.91" stroke="#FFFFFF" stroke-width="4.58333" stroke-linejoin="round" stroke-miterlimit="10" fill="none" fill-rule="evenodd"/><path d="M1535.86 101.328 1535.86 4582.91" stroke="#FFFFFF" stroke-width="4.58333" stroke-linejoin="round" stroke-miterlimit="10" fill="none" fill-rule="evenodd"/><path d="M2461.24 101.328 2461.24 4582.91" stroke="#FFFFFF" stroke-width="4.58333" stroke-linejoin="round" stroke-miterlimit="10" fill="none" fill-rule="evenodd"/><path d="M3386.62 101.328 3386.62 4582.91" stroke="#FFFFFF" stroke-width="4.58333" stroke-linejoin="round" stroke-miterlimit="10" fill="none" fill-rule="evenodd"/><path d="M85.7091 213.62 4314.29 213.62" stroke="#FFFFFF" stroke-width="13.75" stroke-linejoin="round" stroke-miterlimit="10" fill="none" fill-rule="evenodd"/><path d="M85.7091 1786.62 4314.29 1786.62" stroke="#FFFFFF" stroke-width="4.58333" stroke-linejoin="round" stroke-miterlimit="10" fill="none" fill-rule="evenodd"/><path d="M85.7091 2512.62 4314.29 2512.62" stroke="#FFFFFF" stroke-width="4.58333" stroke-linejoin="round" stroke-miterlimit="10" fill="none" fill-rule="evenodd"/><path d="M85.7091 3084.62 4314.29 3084.62" stroke="#FFFFFF" stroke-width="4.58333" stroke-linejoin="round" stroke-miterlimit="10" fill="none" fill-rule="evenodd"/><path d="M85.7091 3458.62 4314.29 3458.62" stroke="#FFFFFF" stroke-width="4.58333" stroke-linejoin="round" stroke-miterlimit="10" fill="none" fill-rule="evenodd"/><path d="M85.7091 3832.62 4314.29 3832.62" stroke="#FFFFFF" stroke-width="4.58333" stroke-linejoin="round" stroke-miterlimit="10" fill="none" fill-rule="evenodd"/><path d="M85.7091 4206.62 4314.29 4206.62" stroke="#FFFFFF" stroke-width="4.58333" stroke-linejoin="round" stroke-miterlimit="10" fill="none" fill-rule="evenodd"/><path d="M88.0007 101.328 88.0007 4582.91" stroke="#FFFFFF" stroke-width="4.58333" stroke-linejoin="round" stroke-miterlimit="10" fill="none" fill-rule="evenodd"/><path d="M4312 101.328 4312 4582.91" stroke="#FFFFFF" stroke-width="4.58333" stroke-linejoin="round" stroke-miterlimit="10" fill="none" fill-rule="evenodd"/><path d="M85.7091 103.62 4314.29 103.62" stroke="#FFFFFF" stroke-width="4.58333" stroke-linejoin="round" stroke-miterlimit="10" fill="none" fill-rule="evenodd"/><path d="M85.7091 4580.62 4314.29 4580.62" stroke="#FFFFFF" stroke-width="4.58333" stroke-linejoin="round" stroke-miterlimit="10" fill="none" fill-rule="evenodd"/><g clip-path="url(#clip1)"><text fill="#FFFFFF" font-family="Arial,Arial_MSFontService,sans-serif" font-weight="700" font-size="64" transform="matrix(1 0 0 1 121.001 182)">Release</text></g><g clip-path="url(#clip2)"><text fill="#FFFFFF" font-family="Arial,Arial_MSFontService,sans-serif" font-weight="700" font-size="64" transform="matrix(1 0 0 1 643.48 182)">Components</text></g><g clip-path="url(#clip3)"><text fill="#FFFFFF" font-family="Arial,Arial_MSFontService,sans-serif" font-weight="700" font-size="64" transform="matrix(1 0 0 1 1568.86 182)">Microservices</text></g><g clip-path="url(#clip4)"><text fill="#FFFFFF" font-family="Arial,Arial_MSFontService,sans-serif" font-weight="700" font-size="64" transform="matrix(1 0 0 1 2494.24 182)">Apps</text></g><g clip-path="url(#clip5)"><text fill="#FFFFFF" font-family="Arial,Arial_MSFontService,sans-serif" font-weight="700" font-size="64" transform="matrix(1 0 0 1 3419.62 182)">Others</text></g><g clip-path="url(#clip6)"><text font-family="Arial,Arial_MSFontService,sans-serif" font-weight="400" font-size="64" transform="matrix(1 0 0 1 121.001 292)">1.72</text></g><g clip-path="url(#clip7)"><text font-family="Arial,Arial_MSFontService,sans-serif" font-weight="700" font-size="110" transform="matrix(1 0 0 1 121.001 414)">Sep </text></g><g clip-path="url(#clip8)"><text font-family="Arial,Arial_MSFontService,sans-serif" font-weight="700" font-size="110" transform="matrix(1 0 0 1 121.001 546)">2021</text></g><g clip-path="url(#clip9)"><text font-family="Arial,Arial_MSFontService,sans-serif" font-weight="700" font-size="64" transform="matrix(1 0 0 1 643.48 292)">UIFactory</text></g><text font-family="Arial,Arial_MSFontService,sans-serif" font-weight="700" font-size="64" transform="matrix(1 0 0 1 956.293 292)">Vega charts<tspan font-weight="400" font-size="64" x="376.887" y="0">let </tspan></text><g clip-path="url(#clip10)"><text font-family="Arial,Arial_MSFontService,sans-serif" font-weight="400" font-size="64" transform="matrix(1 0 0 1 643.48 369)">you embed customizable </text></g><g clip-path="url(#clip11)"><text font-family="Arial,Arial_MSFontService,sans-serif" font-weight="400" font-size="64" transform="matrix(1 0 0 1 643.48 446)">charts in web pages with a </text></g><g clip-path="url(#clip12)"><text font-family="Arial,Arial_MSFontService,sans-serif" font-weight="400" font-size="64" transform="matrix(1 0 0 1 643.48 523)">simple </text></g><text font-family="Arial,Arial_MSFontService,sans-serif" font-weight="700" font-size="64" transform="matrix(1 0 0 1 846.293 523)">standard<tspan font-weight="400" font-size="64" x="287.604" y="0">chart </tspan></text><g clip-path="url(#clip13)"><text font-family="Arial,Arial_MSFontService,sans-serif" font-weight="400" font-size="64" transform="matrix(1 0 0 1 643.48 600)">specification </text></g><text font-family="Arial,Arial_MSFontService,sans-serif" font-weight="400" font-size="64" transform="matrix(1 0 0 1 1013.58 600)">(G18)</text><g clip-path="url(#clip14)"><text font-family="Arial,Arial_MSFontService,sans-serif" font-weight="700" font-size="64" transform="matrix(1 0 0 1 1568.86 292)">TopCause</text></g><text font-family="Arial,Arial_MSFontService,sans-serif" font-weight="400" font-size="64" transform="matrix(1 0 0 1 1890.66 292)">is part of </text><g clip-path="url(#clip15)"><text font-family="Arial,Arial_MSFontService,sans-serif" font-weight="400" font-size="64" transform="matrix(1 0 0 1 1568.86 369)">MLHandler</text></g><text font-family="Arial,Arial_MSFontService,sans-serif" font-weight="400" font-size="64" transform="matrix(1 0 0 1 1878.14 369)">. It discovers the </text><g clip-path="url(#clip16)"><text font-family="Arial,Arial_MSFontService,sans-serif" font-weight="400" font-size="64" transform="matrix(1 0 0 1 1568.86 446)">single biggest driver of any </text></g><g clip-path="url(#clip17)"><text font-family="Arial,Arial_MSFontService,sans-serif" font-weight="400" font-size="64" transform="matrix(1 0 0 1 1568.86 523)">output, and the impact of </text></g><g clip-path="url(#clip18)"><text font-family="Arial,Arial_MSFontService,sans-serif" font-weight="400" font-size="64" transform="matrix(1 0 0 1 1568.86 600)">changing it. (G35, MS28)</text></g><g clip-path="url(#clip19)"><text font-family="Arial,Arial_MSFontService,sans-serif" font-weight="700" font-size="64" transform="matrix(1 0 0 1 1568.86 754)">OpenAPIHandler</text></g><g clip-path="url(#clip20)"><text font-family="Arial,Arial_MSFontService,sans-serif" font-weight="400" font-size="64" transform="matrix(1 0 0 1 1568.86 831)">automatically documents any </text></g><g clip-path="url(#clip21)"><text font-family="Arial,Arial_MSFontService,sans-serif" font-weight="400" font-size="64" transform="matrix(1 0 0 1 1568.86 908)">microservice you write and </text></g><g clip-path="url(#clip22)"><text font-family="Arial,Arial_MSFontService,sans-serif" font-weight="400" font-size="64" transform="matrix(1 0 0 1 1568.86 985)">creates an API test interface </text></g><g clip-path="url(#clip23)"><text font-family="Arial,Arial_MSFontService,sans-serif" font-weight="400" font-size="64" transform="matrix(1 0 0 1 1568.86 1062)">(G49, MS029)</text></g><g clip-path="url(#clip24)"><text font-family="Arial,Arial_MSFontService,sans-serif" font-weight="400" font-size="64" transform="matrix(1 0 0 1 1568.86 1216)">FormHandler</text></g><text font-family="Arial,Arial_MSFontService,sans-serif" font-weight="400" font-size="64" transform="matrix(1 0 0 1 1959.59 1216)">supports </text><g clip-path="url(#clip25)"><text font-family="Arial,Arial_MSFontService,sans-serif" font-weight="700" font-size="64" transform="matrix(1 0 0 1 1568.86 1293)">MongoDB</text></g><text font-family="Arial,Arial_MSFontService,sans-serif" font-weight="400" font-size="64" transform="matrix(1 0 0 1 1888.55 1293)">write<tspan font-size="64" x="135.208" y="0">-</tspan><tspan font-size="64" x="156.406" y="0">back </tspan></text><g clip-path="url(#clip26)"><text font-family="Arial,Arial_MSFontService,sans-serif" font-weight="400" font-size="64" transform="matrix(1 0 0 1 1568.86 1370)">capability (G58)</text></g><g clip-path="url(#clip27)"><text font-family="Arial,Arial_MSFontService,sans-serif" font-weight="700" font-size="64" transform="matrix(1 0 0 1 1568.86 1524)">ComicHandler</text></g><text font-family="Arial,Arial_MSFontService,sans-serif" font-weight="400" font-size="64" transform="matrix(1 0 0 1 2020.89 1524)">supports </text><g clip-path="url(#clip28)"><text font-family="Arial,Arial_MSFontService,sans-serif" font-weight="400" font-size="64" transform="matrix(1 0 0 1 1568.86 1601)">templates that combine </text></g><g clip-path="url(#clip29)"><text font-family="Arial,Arial_MSFontService,sans-serif" font-weight="400" font-size="64" transform="matrix(1 0 0 1 1568.86 1678)">multiple characters into a </text></g><g clip-path="url(#clip30)"><text font-family="Arial,Arial_MSFontService,sans-serif" font-weight="400" font-size="64" transform="matrix(1 0 0 1 1568.86 1755)">single strip</text></g><text font-family="Arial,Arial_MSFontService,sans-serif" font-weight="400" font-size="64" transform="matrix(1 0 0 1 1892.56 1755)">(G60, MS027)</text><g clip-path="url(#clip31)"><text font-family="Arial,Arial_MSFontService,sans-serif" font-weight="700" font-size="64" transform="matrix(1 0 0 1 2494.24 292)">LogViewer</text></g><g clip-path="url(#clip32)"><text font-family="Arial,Arial_MSFontService,sans-serif" font-weight="400" font-size="64" transform="matrix(1 0 0 1 2834.53 292)">allows developers </text></g><g clip-path="url(#clip33)"><text font-family="Arial,Arial_MSFontService,sans-serif" font-weight="400" font-size="64" transform="matrix(1 0 0 1 2494.24 369)">to add custom metrics, and to </text></g><g clip-path="url(#clip34)"><text font-family="Arial,Arial_MSFontService,sans-serif" font-weight="400" font-size="64" transform="matrix(1 0 0 1 2494.24 446)">create custom dashboards </text></g><g clip-path="url(#clip35)"><text font-family="Arial,Arial_MSFontService,sans-serif" font-weight="400" font-size="64" transform="matrix(1 0 0 1 2494.24 523)">and storylines. It also lets </text></g><g clip-path="url(#clip36)"><text font-family="Arial,Arial_MSFontService,sans-serif" font-weight="400" font-size="64" transform="matrix(1 0 0 1 2494.24 600)">developers access the </text></g><g clip-path="url(#clip37)"><text font-family="Arial,Arial_MSFontService,sans-serif" font-weight="400" font-size="64" transform="matrix(1 0 0 1 2494.24 677)">underlying log database for </text></g><g clip-path="url(#clip38)"><text font-family="Arial,Arial_MSFontService,sans-serif" font-weight="400" font-size="64" transform="matrix(1 0 0 1 2494.24 754)">ad hoc analysis (G2)</text></g><g clip-path="url(#clip39)"><text font-family="Arial,Arial_MSFontService,sans-serif" font-weight="400" font-size="64" transform="matrix(1 0 0 1 3419.62 292)">Gramex</text></g><text font-family="Arial,Arial_MSFontService,sans-serif" font-weight="400" font-size="64" transform="matrix(1 0 0 1 3664.83 292)">IDE will pilot feature </text><g clip-path="url(#clip40)"><text font-family="Arial,Arial_MSFontService,sans-serif" font-weight="400" font-size="64" transform="matrix(1 0 0 1 3419.62 369)">a </text></g><text font-family="Arial,Arial_MSFontService,sans-serif" font-weight="700" font-size="64" transform="matrix(1 0 0 1 3472.9 369)">new user experience<tspan font-weight="400" font-size="64" x="646.823" y="0">in </tspan></text><g clip-path="url(#clip41)"><text font-family="Arial,Arial_MSFontService,sans-serif" font-weight="400" font-size="64" transform="matrix(1 0 0 1 3419.62 446)">parts of the application (I141)</text></g><g clip-path="url(#clip42)"><text font-family="Arial,Arial_MSFontService,sans-serif" font-weight="400" font-size="64" transform="matrix(1 0 0 1 3419.62 600)">The </text></g><text font-family="Arial,Arial_MSFontService,sans-serif" font-weight="700" font-size="64" transform="matrix(1 0 0 1 3547.38 600)">release and patch</text><g clip-path="url(#clip43)"><text font-family="Arial,Arial_MSFontService,sans-serif" font-weight="400" font-size="64" transform="matrix(1 0 0 1 3419.62 677)">process for </text></g><text font-family="Arial,Arial_MSFontService,sans-serif" font-weight="400" font-size="64" transform="matrix(1 0 0 1 3753.63 677)">Gramex<tspan font-size="64" x="245.208" y="0">will be </tspan></text><g clip-path="url(#clip44)"><text font-family="Arial,Arial_MSFontService,sans-serif" font-weight="400" font-size="64" transform="matrix(1 0 0 1 3419.62 754)">published (G66)</text></g><g clip-path="url(#clip45)"><text font-family="Arial,Arial_MSFontService,sans-serif" font-weight="400" font-size="64" transform="matrix(1 0 0 1 3419.62 908)">3 more modules of the </text></g><g clip-path="url(#clip46)"><text font-family="Arial,Arial_MSFontService,sans-serif" font-weight="700" font-size="64" transform="matrix(1 0 0 1 3419.62 985)">Gramex</text></g><text font-family="Arial,Arial_MSFontService,sans-serif" font-weight="700" font-size="64" transform="matrix(1 0 0 1 3676.29 985)">Course<tspan font-weight="400" font-size="64" x="238.333" y="0">will be </tspan></text><g clip-path="url(#clip47)"><text font-family="Arial,Arial_MSFontService,sans-serif" font-weight="400" font-size="64" transform="matrix(1 0 0 1 3419.62 1062)">published: Create </text></g><g clip-path="url(#clip48)"><text font-family="Arial,Arial_MSFontService,sans-serif" font-weight="400" font-size="64" transform="matrix(1 0 0 1 3419.62 1139)">microservices, Analyze data, </text></g><g clip-path="url(#clip49)"><text font-family="Arial,Arial_MSFontService,sans-serif" font-weight="400" font-size="64" transform="matrix(1 0 0 1 3419.62 1216)">Create charts (G41)</text></g><g clip-path="url(#clip50)"><text font-family="Arial,Arial_MSFontService,sans-serif" font-weight="400" font-size="64" transform="matrix(1 0 0 1 121.001 1865)">1.73</text></g><g clip-path="url(#clip51)"><text font-family="Arial,Arial_MSFontService,sans-serif" font-weight="700" font-size="110" transform="matrix(1 0 0 1 121.001 1987)">Oct </text></g><g clip-path="url(#clip52)"><text font-family="Arial,Arial_MSFontService,sans-serif" font-weight="700" font-size="110" transform="matrix(1 0 0 1 121.001 2119)">2021</text></g><g clip-path="url(#clip53)"><text font-family="Arial,Arial_MSFontService,sans-serif" font-weight="700" font-size="64" transform="matrix(1 0 0 1 643.48 1865)">Gramex</text></g><text font-family="Arial,Arial_MSFontService,sans-serif" font-weight="700" font-size="64" transform="matrix(1 0 0 1 900.147 1865)">Charts</text><g clip-path="url(#clip54)"><text font-family="Arial,Arial_MSFontService,sans-serif" font-weight="400" font-size="64" transform="matrix(1 0 0 1 1120.72 1865)">will provide a </text></g><g clip-path="url(#clip55)"><text font-family="Arial,Arial_MSFontService,sans-serif" font-weight="400" font-size="64" transform="matrix(1 0 0 1 643.48 1942)">UI to edit </text></g><text font-family="Arial,Arial_MSFontService,sans-serif" font-weight="400" font-size="64" transform="matrix(1 0 0 1 917.334 1942)">UIFactory<tspan font-size="64" x="295.052" y="0">Vega </tspan></text><g clip-path="url(#clip56)"><text font-family="Arial,Arial_MSFontService,sans-serif" font-weight="400" font-size="64" transform="matrix(1 0 0 1 643.48 2019)">charts, migrating away from </text></g><g clip-path="url(#clip57)"><text font-family="Arial,Arial_MSFontService,sans-serif" font-weight="400" font-size="64" transform="matrix(1 0 0 1 643.48 2096)">native Vega charts</text></g><text font-family="Arial,Arial_MSFontService,sans-serif" font-weight="400" font-size="64" transform="matrix(1 0 0 1 1187.66 2096)">(G42)</text><g clip-path="url(#clip58)"><text font-family="Arial,Arial_MSFontService,sans-serif" font-weight="700" font-size="64" transform="matrix(1 0 0 1 643.48 2250)">UIFactory</text></g><text font-family="Arial,Arial_MSFontService,sans-serif" font-weight="400" font-size="64" transform="matrix(1 0 0 1 956.293 2250)">will support </text><g clip-path="url(#clip59)"><text font-family="Arial,Arial_MSFontService,sans-serif" font-weight="400" font-size="64" transform="matrix(1 0 0 1 643.48 2327)">attribute inheritance and </text></g><g clip-path="url(#clip60)"><text font-family="Arial,Arial_MSFontService,sans-serif" font-weight="400" font-size="64" transform="matrix(1 0 0 1 643.48 2404)">events, making interactive </text></g><g clip-path="url(#clip61)"><text font-family="Arial,Arial_MSFontService,sans-serif" font-weight="400" font-size="64" transform="matrix(1 0 0 1 643.48 2481)">components easier</text></g><g clip-path="url(#clip62)"><text font-family="Arial,Arial_MSFontService,sans-serif" font-weight="700" font-size="64" transform="matrix(1 0 0 1 2494.24 1865)">Digital Twin</text></g><text font-family="Arial,Arial_MSFontService,sans-serif" font-weight="400" font-size="64" transform="matrix(1 0 0 1 2865.88 1865)">app allows </text><g clip-path="url(#clip63)"><text font-family="Arial,Arial_MSFontService,sans-serif" font-weight="400" font-size="64" transform="matrix(1 0 0 1 2494.24 1942)">citizen developers to create a </text></g><g clip-path="url(#clip64)"><text font-family="Arial,Arial_MSFontService,sans-serif" font-weight="400" font-size="64" transform="matrix(1 0 0 1 2494.24 2019)">digital twin from </text></g><text font-family="Arial,Arial_MSFontService,sans-serif" font-weight="400" font-size="64" transform="matrix(1 0 0 1 2956.58 2019)">InfluxDB<tspan font-size="64" x="260.104" y="0">via </tspan></text><g clip-path="url(#clip65)"><text font-family="Arial,Arial_MSFontService,sans-serif" font-weight="400" font-size="64" transform="matrix(1 0 0 1 2494.24 2096)">drag</text></g><text font-family="Arial,Arial_MSFontService,sans-serif" font-weight="400" font-size="64" transform="matrix(1 0 0 1 2622 2096)">-<tspan font-size="64" x="21.198" y="0">and</tspan><tspan font-size="64" x="127.761" y="0">-</tspan><tspan font-size="64" x="148.958" y="0">drop (I166, AP12)</tspan></text><g clip-path="url(#clip66)"><text font-family="Arial,Arial_MSFontService,sans-serif" font-weight="700" font-size="64" transform="matrix(1 0 0 1 2494.24 2250)">Admin</text></g><text font-family="Arial,Arial_MSFontService,sans-serif" font-weight="400" font-size="64" transform="matrix(1 0 0 1 2711.38 2250)">app allows admins to </text><g clip-path="url(#clip67)"><text font-family="Arial,Arial_MSFontService,sans-serif" font-weight="400" font-size="64" transform="matrix(1 0 0 1 2494.24 2327)">add users without passwords, </text></g><g clip-path="url(#clip68)"><text font-family="Arial,Arial_MSFontService,sans-serif" font-weight="400" font-size="64" transform="matrix(1 0 0 1 2494.24 2404)">and manage users and roles </text></g><g clip-path="url(#clip69)"><text font-family="Arial,Arial_MSFontService,sans-serif" font-weight="400" font-size="64" transform="matrix(1 0 0 1 2494.24 2481)">from a UI (G</text></g><text font-family="Arial,Arial_MSFontService,sans-serif" font-weight="400" font-size="64" transform="matrix(1 0 0 1 2846.01 2481)">10)</text><g clip-path="url(#clip70)"><text font-family="Arial,Arial_MSFontService,sans-serif" font-weight="400" font-size="64" transform="matrix(1 0 0 1 3419.62 1865)">Gramex</text></g><g clip-path="url(#clip71)"><text font-family="Arial,Arial_MSFontService,sans-serif" font-weight="400" font-size="64" transform="matrix(1 0 0 1 3664.83 1865)">IDE will switch fully to </text></g><g clip-path="url(#clip72)"><text font-family="Arial,Arial_MSFontService,sans-serif" font-weight="400" font-size="64" transform="matrix(1 0 0 1 3419.62 1942)">a </text></g><text font-family="Arial,Arial_MSFontService,sans-serif" font-weight="700" font-size="64" transform="matrix(1 0 0 1 3472.9 1942)">new user experience<tspan font-weight="400" font-size="64" x="629.063" y="0">.</tspan></text><g clip-path="url(#clip73)"><text font-family="Arial,Arial_MSFontService,sans-serif" font-weight="700" font-size="64" transform="matrix(1 0 0 1 3419.62 2096)">Gramex</text></g><text font-family="Arial,Arial_MSFontService,sans-serif" font-weight="700" font-size="64" transform="matrix(1 0 0 1 3676.29 2096)">Course</text><g clip-path="url(#clip74)"><text font-family="Arial,Arial_MSFontService,sans-serif" font-weight="400" font-size="64" transform="matrix(1 0 0 1 3914.62 2096)">published as </text></g><g clip-path="url(#clip75)"><text font-family="Arial,Arial_MSFontService,sans-serif" font-weight="400" font-size="64" transform="matrix(1 0 0 1 3419.62 2173)">an online self</text></g><text font-family="Arial,Arial_MSFontService,sans-serif" font-weight="400" font-size="64" transform="matrix(1 0 0 1 3796.6 2173)">-<tspan font-size="64" x="21.1978" y="0">paced course.</tspan></text><g clip-path="url(#clip76)"><text font-family="Arial,Arial_MSFontService,sans-serif" font-weight="400" font-size="64" transform="matrix(1 0 0 1 121.001 2591)">1.74</text></g><g clip-path="url(#clip77)"><text font-family="Arial,Arial_MSFontService,sans-serif" font-weight="700" font-size="110" transform="matrix(1 0 0 1 121.001 2713)">Nov </text></g><g clip-path="url(#clip78)"><text font-family="Arial,Arial_MSFontService,sans-serif" font-weight="700" font-size="110" transform="matrix(1 0 0 1 121.001 2845)">2021</text></g><g clip-path="url(#clip79)"><text font-family="Arial,Arial_MSFontService,sans-serif" font-weight="700" font-size="64" transform="matrix(1 0 0 1 643.48 2591)">TextGen</text></g><text font-family="Arial,Arial_MSFontService,sans-serif" font-weight="400" font-size="64" transform="matrix(1 0 0 1 911.995 2591)">lets you create </text><g clip-path="url(#clip80)"><text font-family="Arial,Arial_MSFontService,sans-serif" font-weight="400" font-size="64" transform="matrix(1 0 0 1 643.48 2668)">narratives from data (G45)</text></g><g clip-path="url(#clip81)"><text font-family="Arial,Arial_MSFontService,sans-serif" font-weight="400" font-size="64" transform="matrix(1 0 0 1 643.48 2822)">Charts Integration</text></g><g clip-path="url(#clip82)"><text font-family="Arial,Arial_MSFontService,sans-serif" font-weight="700" font-size="64" transform="matrix(1 0 0 1 643.48 2976)">UIFactory</text></g><text font-family="Arial,Arial_MSFontService,sans-serif" font-weight="400" font-size="64" transform="matrix(1 0 0 1 956.293 2976)">features more </text><g clip-path="url(#clip83)"><text font-family="Arial,Arial_MSFontService,sans-serif" font-weight="400" font-size="64" transform="matrix(1 0 0 1 643.48 3053)">components.</text></g><g clip-path="url(#clip84)"><text font-family="Arial,Arial_MSFontService,sans-serif" font-weight="400" font-size="64" transform="matrix(1 0 0 1 3419.62 2591)">AWS Deployment</text></g><g clip-path="url(#clip85)"><text font-family="Arial,Arial_MSFontService,sans-serif" font-weight="400" font-size="64" transform="matrix(1 0 0 1 121.001 3163)">1.75</text></g><g clip-path="url(#clip86)"><text font-family="Arial,Arial_MSFontService,sans-serif" font-weight="700" font-size="110" transform="matrix(1 0 0 1 121.001 3285)">Dec </text></g><g clip-path="url(#clip87)"><text font-family="Arial,Arial_MSFontService,sans-serif" font-weight="700" font-size="110" transform="matrix(1 0 0 1 121.001 3417)">2021</text></g><g clip-path="url(#clip88)"><text font-family="Arial,Arial_MSFontService,sans-serif" font-weight="400" font-size="64" transform="matrix(1 0 0 1 1568.86 3163)">Deep learning integration</text></g><g clip-path="url(#clip89)"><text font-family="Arial,Arial_MSFontService,sans-serif" font-weight="400" font-size="64" transform="matrix(1 0 0 1 1568.86 3317)">API Keys (G61)</text></g><g clip-path="url(#clip90)"><text font-family="Arial,Arial_MSFontService,sans-serif" font-weight="400" font-size="64" transform="matrix(1 0 0 1 121.001 3537)">1.76</text></g><g clip-path="url(#clip91)"><text font-family="Arial,Arial_MSFontService,sans-serif" font-weight="700" font-size="110" transform="matrix(1 0 0 1 121.001 3659)">Jan </text></g><g clip-path="url(#clip92)"><text font-family="Arial,Arial_MSFontService,sans-serif" font-weight="700" font-size="110" transform="matrix(1 0 0 1 121.001 3791)">2022</text></g><g clip-path="url(#clip93)"><text font-family="Arial,Arial_MSFontService,sans-serif" font-weight="400" font-size="64" transform="matrix(1 0 0 1 121.001 3911)">1.77</text></g><g clip-path="url(#clip94)"><text font-family="Arial,Arial_MSFontService,sans-serif" font-weight="700" font-size="110" transform="matrix(1 0 0 1 121.001 4033)">Feb </text></g><g clip-path="url(#clip95)"><text font-family="Arial,Arial_MSFontService,sans-serif" font-weight="700" font-size="110" transform="matrix(1 0 0 1 121.001 4165)">2022</text></g><g clip-path="url(#clip96)"><text font-family="Arial,Arial_MSFontService,sans-serif" font-weight="400" font-size="64" transform="matrix(1 0 0 1 1568.86 3911)">Design2Code</text></g><g clip-path="url(#clip97)"><text font-family="Arial,Arial_MSFontService,sans-serif" font-weight="700" font-size="64" transform="matrix(1 0 0 1 2494.24 3911)">DataOps</text></g><text font-family="Arial,Arial_MSFontService,sans-serif" font-weight="700" font-size="64" transform="matrix(1 0 0 1 2774.97 3911)">framework<tspan font-weight="400" font-size="64" x="342.031" y="0">to </tspan></text><g clip-path="url(#clip98)"><text font-family="Arial,Arial_MSFontService,sans-serif" font-weight="400" font-size="64" transform="matrix(1 0 0 1 2494.24 3988)">create ETL flows (G62)</text></g><g clip-path="url(#clip99)"><text font-family="Arial,Arial_MSFontService,sans-serif" font-weight="400" font-size="64" transform="matrix(1 0 0 1 121.001 4285)">1.78</text></g><g clip-path="url(#clip100)"><text font-family="Arial,Arial_MSFontService,sans-serif" font-weight="700" font-size="110" transform="matrix(1 0 0 1 121.001 4407)">Mar </text></g><g clip-path="url(#clip101)"><text font-family="Arial,Arial_MSFontService,sans-serif" font-weight="700" font-size="110" transform="matrix(1 0 0 1 121.001 4539)">2022</text></g><g clip-path="url(#clip102)"><text font-family="Arial,Arial_MSFontService,sans-serif" font-weight="400" font-size="64" transform="matrix(1 0 0 1 1568.86 4285)">Config State Management</text></g><g clip-path="url(#clip103)"><text font-family="Arial,Arial_MSFontService,sans-serif" font-weight="700" font-size="64" transform="matrix(1 0 0 1 2494.24 4285)">DataOps</text></g><text font-family="Arial,Arial_MSFontService,sans-serif" font-weight="700" font-size="64" transform="matrix(1 0 0 1 2774.97 4285)">app<tspan font-weight="400" font-size="64" x="131.198" y="0">to create ETL </tspan></text><g clip-path="url(#clip104)"><text font-family="Arial,Arial_MSFontService,sans-serif" font-weight="400" font-size="64" transform="matrix(1 0 0 1 2494.24 4362)">flows via drag</text></g><text font-family="Arial,Arial_MSFontService,sans-serif" font-weight="400" font-size="64" transform="matrix(1 0 0 1 2885.54 4362)">-<tspan font-size="64" x="21.1978" y="0">and</tspan><tspan font-size="64" x="127.76" y="0">-</tspan><tspan font-size="64" x="148.958" y="0">drop (G65)</tspan></text></g></svg>