<svg width="663" height="580" xmlns="http://www.w3.org/2000/svg" overflow="hidden"><defs><clipPath id="a"><path d="M339 19h663v580H339z" fill-rule="evenodd" clip-rule="evenodd"/></clipPath></defs><g clip-path="url(#a)" transform="translate(-339 -19)"><text font-family="Arial,Arial_MSFontService,sans-serif" font-weight="700" font-size="32" transform="translate(434.583 60)">Rate of New Entrepreneurs<tspan font-weight="400" font-size="19" x="7.333" y="43">Percent of population that starts a new business</tspan><tspan font-size="19" x="134.973" y="163">BY STATE, 2019</tspan><tspan font-weight="400" font-size="12" x="-73.917" y="77">This indicator captures all new business owners, including those who own incorporated or unincorporated </tspan><tspan font-weight="400" font-size="12" x="45.083" y="91">businesses, and those who are employers or non</tspan><tspan font-weight="400" font-size="12" x="306.417" y="91">-</tspan><tspan font-weight="400" font-size="12" x="310.417" y="91">employers</tspan></text><path stroke="#FFF" stroke-width="1.333" stroke-miterlimit="8" fill="#114AA4" d="M377.5 308.5h48v48h-48z"/><text fill="#FFF" font-family="Arial,Arial_MSFontService,sans-serif" font-weight="700" font-size="14" transform="translate(389.438 331)">WA<tspan font-weight="400" font-size="11" x="-3.587" y="16">0.32%</tspan></text><path stroke="#FFF" stroke-width="1.333" stroke-miterlimit="8" fill="#1762DB" d="M377.5 356.5h48v48h-48z"/><text fill="#FFF" font-family="Arial,Arial_MSFontService,sans-serif" font-weight="700" font-size="14" transform="translate(390.604 379)">OR<tspan font-weight="400" font-size="11" x="-4.753" y="16">0.26%</tspan></text><path stroke="#FFF" stroke-width="1.333" stroke-miterlimit="8" fill="#0C316D" d="M377.5 404.5h48v48h-48z"/><text fill="#FFF" font-family="Arial,Arial_MSFontService,sans-serif" font-weight="700" font-size="14" transform="translate(390.938 427)">CA<tspan font-weight="400" font-size="11" x="-5.087" y="16">0.42%</tspan></text><path stroke="#FFF" stroke-width="1.333" stroke-miterlimit="8" fill="#114AA4" d="M377.5 548.5h48v48h-48z"/><text fill="#FFF" font-family="Arial,Arial_MSFontService,sans-serif" font-weight="700" font-size="14" transform="translate(394.104 571)">HI<tspan font-weight="400" font-size="11" x="-8.253" y="16">0.34%</tspan></text><path stroke="#FFF" stroke-width="1.333" stroke-miterlimit="8" fill="#114AA4" d="M425.5 308.5h48v48h-48z"/><text fill="#FFF" font-family="Arial,Arial_MSFontService,sans-serif" font-weight="700" font-size="14" transform="translate(442.104 331)">ID<tspan font-weight="400" font-size="11" x="-8.253" y="16">0.38%</tspan></text><path stroke="#FFF" stroke-width="1.333" stroke-miterlimit="8" fill="#114AA4" d="M425.5 356.5h48v48h-48z"/><text fill="#FFF" font-family="Arial,Arial_MSFontService,sans-serif" font-weight="700" font-size="14" transform="translate(439.351 379)">NV<tspan font-weight="400" font-size="11" x="-5.5" y="16">0.34%</tspan></text><path stroke="#FFF" stroke-width="1.333" stroke-miterlimit="8" fill="#1762DB" d="M425.5 404.5h48v48h-48z"/><text fill="#FFF" font-family="Arial,Arial_MSFontService,sans-serif" font-weight="700" font-size="14" transform="translate(439.771 427)">UT<tspan font-weight="400" font-size="11" x="-5.92" y="16">0.24%</tspan></text><path stroke="#FFF" stroke-width="1.333" stroke-miterlimit="8" fill="#114AA4" d="M425.5 452.5h48v48h-48z"/><text fill="#FFF" font-family="Arial,Arial_MSFontService,sans-serif" font-weight="700" font-size="14" transform="translate(439.771 475)">AZ<tspan font-weight="400" font-size="11" x="-5.92" y="16">0.33%</tspan></text><path stroke="#FFF" stroke-width="1.333" stroke-miterlimit="8" fill="#114AA4" d="M473.5 308.5h48v48h-48z"/><text fill="#FFF" font-family="Arial,Arial_MSFontService,sans-serif" font-weight="700" font-size="14" transform="translate(487.018 331)">MT<tspan font-weight="400" font-size="11" x="-5.167" y="16">0.34%</tspan></text><path stroke="#FFF" stroke-width="1.333" stroke-miterlimit="8" fill="#114AA4" d="M473.5 356.5h48v48h-48z"/><text fill="#FFF" font-family="Arial,Arial_MSFontService,sans-serif" font-weight="700" font-size="14" transform="translate(485.851 379)">WY<tspan font-weight="400" font-size="11" x="-4" y="16">0.39%</tspan></text><path stroke="#FFF" stroke-width="1.333" stroke-miterlimit="8" fill="#114AA4" d="M473.5 404.5h48v48h-48z"/><text fill="#FFF" font-family="Arial,Arial_MSFontService,sans-serif" font-weight="700" font-size="14" transform="translate(486.604 427)">CO<tspan font-weight="400" font-size="11" x="-4.753" y="16">0.30%</tspan></text><path stroke="#FFF" stroke-width="1.333" stroke-miterlimit="8" fill="#0C316D" d="M473.5 452.5h48v48h-48z"/><text fill="#FFF" font-family="Arial,Arial_MSFontService,sans-serif" font-weight="700" font-size="14" transform="translate(486.184 475)">NM<tspan font-weight="400" font-size="11" x="-4.333" y="16">0.40%</tspan></text><path stroke="#FFF" stroke-width="1.333" stroke-miterlimit="8" fill="#114AA4" d="M521.5 308.5h48v48h-48z"/><text fill="#FFF" font-family="Arial,Arial_MSFontService,sans-serif" font-weight="700" font-size="14" transform="translate(534.938 331)">ND<tspan font-weight="400" font-size="11" x="-5.087" y="16">0.38%</tspan></text><path stroke="#FFF" stroke-width="1.333" stroke-miterlimit="8" fill="#1762DB" d="M521.5 356.5h48v48h-48z"/><text fill="#FFF" font-family="Arial,Arial_MSFontService,sans-serif" font-weight="700" font-size="14" transform="translate(535.351 379)">SD<tspan font-weight="400" font-size="11" x="-5.5" y="16">0.29%</tspan></text><path stroke="#FFF" stroke-width="1.333" stroke-miterlimit="8" fill="#1762DB" d="M521.5 404.5h48v48h-48z"/><text fill="#FFF" font-family="Arial,Arial_MSFontService,sans-serif" font-weight="700" font-size="14" transform="translate(535.351 427)">NE<tspan font-weight="400" font-size="11" x="-5.5" y="16">0.27%</tspan></text><path stroke="#FFF" stroke-width="1.333" stroke-miterlimit="8" fill="#1762DB" d="M521.5 452.5h48v48h-48z"/><text fill="#FFF" font-family="Arial,Arial_MSFontService,sans-serif" font-weight="700" font-size="14" transform="translate(535.351 475)">KS<tspan font-weight="400" font-size="11" x="-5.5" y="16">0.27%</tspan></text><path stroke="#FFF" stroke-width="1.333" stroke-miterlimit="8" fill="#114AA4" d="M521.5 500.5h48v48h-48z"/><text fill="#FFF" font-family="Arial,Arial_MSFontService,sans-serif" font-weight="700" font-size="14" transform="translate(534.604 523)">OK<tspan font-weight="400" font-size="11" x="-4.753" y="16">0.39%</tspan></text><path stroke="#FFF" stroke-width="1.333" stroke-miterlimit="8" fill="#6D9FF0" d="M569.5 308.5h48v48h-48z"/><text fill="#FFF" font-family="Arial,Arial_MSFontService,sans-serif" font-weight="700" font-size="14" transform="translate(582.184 331)">MN<tspan font-weight="400" font-size="11" x="-4.333" y="16">0.18%</tspan></text><path stroke="#FFF" stroke-width="1.333" stroke-miterlimit="8" fill="#114AA4" d="M569.5 356.5h48v48h-48z"/><text fill="#FFF" font-family="Arial,Arial_MSFontService,sans-serif" font-weight="700" font-size="14" transform="translate(586.104 379)">IA<tspan font-weight="400" font-size="11" x="-8.253" y="16">0.31%</tspan></text><path stroke="#FFF" stroke-width="1.333" stroke-miterlimit="8" fill="#114AA4" d="M569.5 404.5h48v48h-48z"/><text fill="#FFF" font-family="Arial,Arial_MSFontService,sans-serif" font-weight="700" font-size="14" transform="translate(581.851 427)">MO<tspan font-weight="400" font-size="11" x="-4" y="16">0.37%</tspan></text><path stroke="#FFF" stroke-width="1.333" stroke-miterlimit="8" fill="#114AA4" d="M569.5 452.5h48v48h-48z"/><text fill="#FFF" font-family="Arial,Arial_MSFontService,sans-serif" font-weight="700" font-size="14" transform="translate(582.938 475)">AR<tspan font-weight="400" font-size="11" x="-5.087" y="16">0.32%</tspan></text><path stroke="#FFF" stroke-width="1.333" stroke-miterlimit="8" fill="#114AA4" d="M569.5 500.5h48v48h-48z"/><text fill="#FFF" font-family="Arial,Arial_MSFontService,sans-serif" font-weight="700" font-size="14" transform="translate(583.771 523)">LA<tspan font-weight="400" font-size="11" x="-5.92" y="16">0.36%</tspan></text><path stroke="#FFF" stroke-width="1.333" stroke-miterlimit="8" fill="#0C316D" d="M569.5 548.5h48v48h-48z"/><text fill="#FFF" font-family="Arial,Arial_MSFontService,sans-serif" font-weight="700" font-size="14" transform="translate(584.184 571)">TX<tspan font-weight="400" font-size="11" x="-6.333" y="16">0.41%</tspan></text><path stroke="#FFF" stroke-width="1.333" stroke-miterlimit="8" fill="#1762DB" d="M617.5 308.5h48v48h-48z"/><text fill="#FFF" font-family="Arial,Arial_MSFontService,sans-serif" font-weight="700" font-size="14" transform="translate(634.938 331)">IL<tspan font-weight="400" font-size="11" x="-9.087" y="16">0.27%</tspan></text><path stroke="#FFF" stroke-width="1.333" stroke-miterlimit="8" fill="#1762DB" d="M617.5 356.5h48v48h-48z"/><text fill="#FFF" font-family="Arial,Arial_MSFontService,sans-serif" font-weight="700" font-size="14" transform="translate(634.104 379)">IN<tspan font-weight="400" font-size="11" x="-8.253" y="16">0.25%</tspan></text><path stroke="#FFF" stroke-width="1.333" stroke-miterlimit="8" fill="#1762DB" d="M617.5 404.5h48v48h-48z"/><text fill="#FFF" font-family="Arial,Arial_MSFontService,sans-serif" font-weight="700" font-size="14" transform="translate(631.351 427)">KY<tspan font-weight="400" font-size="11" x="-5.5" y="16">0.26%</tspan></text><path stroke="#FFF" stroke-width="1.333" stroke-miterlimit="8" fill="#1762DB" d="M617.5 452.5h48v48h-48z"/><text fill="#FFF" font-family="Arial,Arial_MSFontService,sans-serif" font-weight="700" font-size="14" transform="translate(631.771 475)">TN<tspan font-weight="400" font-size="11" x="-5.92" y="16">0.29%</tspan></text><path stroke="#FFF" stroke-width="1.333" stroke-miterlimit="8" fill="#114AA4" d="M617.5 500.5h48v48h-48z"/><text fill="#FFF" font-family="Arial,Arial_MSFontService,sans-serif" font-weight="700" font-size="14" transform="translate(630.604 523)">MS<tspan font-weight="400" font-size="11" x="-4.753" y="16">0.33%</tspan></text><path stroke="#FFF" stroke-width="1.333" stroke-miterlimit="8" fill="#1762DB" d="M665.5 308.5h48v48h-48z"/><text fill="#FFF" font-family="Arial,Arial_MSFontService,sans-serif" font-weight="700" font-size="14" transform="translate(680.604 331)">WI<tspan font-weight="400" font-size="11" x="-6.753" y="16">0.22%</tspan></text><path stroke="#FFF" stroke-width="1.333" stroke-miterlimit="8" fill="#6D9FF0" d="M665.5 356.5h48v48h-48z"/><text fill="#FFF" font-family="Arial,Arial_MSFontService,sans-serif" font-weight="700" font-size="14" transform="translate(678.604 379)">OH<tspan font-weight="400" font-size="11" x="-4.753" y="16">0.20%</tspan></text><path stroke="#FFF" stroke-width="1.333" stroke-miterlimit="8" fill="#6D9FF0" d="M665.5 404.5h48v48h-48z"/><text fill="#FFF" font-family="Arial,Arial_MSFontService,sans-serif" font-weight="700" font-size="14" transform="translate(677.851 427)">WV<tspan font-weight="400" font-size="11" x="-4" y="16">0.18%</tspan></text><path stroke="#FFF" stroke-width="1.333" stroke-miterlimit="8" fill="#1762DB" d="M665.5 452.5h48v48h-48z"/><text fill="#FFF" font-family="Arial,Arial_MSFontService,sans-serif" font-weight="700" font-size="14" transform="translate(678.938 475)">NC<tspan font-weight="400" font-size="11" x="-5.087" y="16">0.25%</tspan></text><path stroke="#FFF" stroke-width="1.333" stroke-miterlimit="8" fill="#1762DB" d="M665.5 500.5h48v48h-48z"/><text fill="#FFF" font-family="Arial,Arial_MSFontService,sans-serif" font-weight="700" font-size="14" transform="translate(679.771 523)">AL<tspan font-weight="400" font-size="11" x="-5.92" y="16">0.23%</tspan></text><path stroke="#FFF" stroke-width="1.333" stroke-miterlimit="8" fill="#1762DB" d="M713.5 308.5h48v48h-48z"/><text fill="#FFF" font-family="Arial,Arial_MSFontService,sans-serif" font-weight="700" font-size="14" transform="translate(729.351 331)">MI<tspan font-weight="400" font-size="11" x="-7.5" y="16">0.25%</tspan></text><path stroke="#FFF" stroke-width="1.333" stroke-miterlimit="8" fill="#1762DB" d="M713.5 356.5h48v48h-48z"/><text fill="#FFF" font-family="Arial,Arial_MSFontService,sans-serif" font-weight="700" font-size="14" transform="translate(727.351 379)">PA<tspan font-weight="400" font-size="11" x="-5.5" y="16">0.20%</tspan></text><path stroke="#FFF" stroke-width="1.333" stroke-miterlimit="8" fill="#1762DB" d="M713.5 404.5h48v48h-48z"/><text fill="#FFF" font-family="Arial,Arial_MSFontService,sans-serif" font-weight="700" font-size="14" transform="translate(727.351 427)">VA<tspan font-weight="400" font-size="11" x="-5.5" y="16">0.20%</tspan></text><path stroke="#FFF" stroke-width="1.333" stroke-miterlimit="8" fill="#1762DB" d="M713.5 452.5h48v48h-48z"/><text fill="#FFF" font-family="Arial,Arial_MSFontService,sans-serif" font-weight="700" font-size="14" transform="translate(727.351 475)">SC<tspan font-weight="400" font-size="11" x="-5.5" y="16">0.26%</tspan></text><path stroke="#FFF" stroke-width="1.333" stroke-miterlimit="8" fill="#0C316D" d="M713.5 500.5h48v48h-48z"/><text fill="#FFF" font-family="Arial,Arial_MSFontService,sans-serif" font-weight="700" font-size="14" transform="translate(726.604 523)">GA<tspan font-weight="400" font-size="11" x="-4.753" y="16">0.41%</tspan></text><path stroke="#FFF" stroke-width="1.333" stroke-miterlimit="8" fill="#114AA4" d="M761.5 308.5h48v48h-48z"/><text fill="#FFF" font-family="Arial,Arial_MSFontService,sans-serif" font-weight="700" font-size="14" transform="translate(775.351 331)">NY<tspan font-weight="400" font-size="11" x="-5.5" y="16">0.30%</tspan></text><path stroke="#FFF" stroke-width="1.333" stroke-miterlimit="8" fill="#114AA4" d="M761.5 356.5h48v48h-48z"/><text fill="#FFF" font-family="Arial,Arial_MSFontService,sans-serif" font-weight="700" font-size="14" transform="translate(776.104 379)">NJ<tspan font-weight="400" font-size="11" x="-6.253" y="16">0.31%</tspan></text><path stroke="#FFF" stroke-width="1.333" stroke-miterlimit="8" fill="#1762DB" d="M761.5 404.5h48v48h-48z"/><text fill="#FFF" font-family="Arial,Arial_MSFontService,sans-serif" font-weight="700" font-size="14" transform="translate(774.184 427)">MD<tspan font-weight="400" font-size="11" x="-4.333" y="16">0.30%</tspan></text><path stroke="#FFF" stroke-width="1.333" stroke-miterlimit="8" fill="#1762DB" d="M761.5 452.5h48v48h-48z"/><text fill="#FFF" font-family="Arial,Arial_MSFontService,sans-serif" font-weight="700" font-size="14" transform="translate(774.938 475)">DC<tspan font-weight="400" font-size="11" x="-5.087" y="16">0.25%</tspan></text><path stroke="#FFF" stroke-width="1.333" stroke-miterlimit="8" fill="#0C316D" d="M761.5 548.5h48v48h-48z"/><text fill="#FFF" font-family="Arial,Arial_MSFontService,sans-serif" font-weight="700" font-size="14" transform="translate(776.604 571)">FL<tspan font-weight="400" font-size="11" x="-6.753" y="16">0.47%</tspan></text><path stroke="#FFF" stroke-width="1.333" stroke-miterlimit="8" fill="#6D9FF0" d="M809.5 308.5h48v48h-48z"/><text fill="#FFF" font-family="Arial,Arial_MSFontService,sans-serif" font-weight="700" font-size="14" transform="translate(826.104 331)">RI<tspan font-weight="400" font-size="11" x="-8.253" y="16">0.17%</tspan></text><path stroke="#FFF" stroke-width="1.333" stroke-miterlimit="8" fill="#6D9FF0" d="M809.5 356.5h48v48h-48z"/><text fill="#FFF" font-family="Arial,Arial_MSFontService,sans-serif" font-weight="700" font-size="14" transform="translate(823.771 379)">CT<tspan font-weight="400" font-size="11" x="-5.92" y="16">0.19%</tspan></text><path stroke="#FFF" stroke-width="1.333" stroke-miterlimit="8" fill="#1762DB" d="M809.5 404.5h48v48h-48z"/><text fill="#FFF" font-family="Arial,Arial_MSFontService,sans-serif" font-weight="700" font-size="14" transform="translate(823.351 427)">DE<tspan font-weight="400" font-size="11" x="-5.5" y="16">0.25%</tspan></text><path stroke="#FFF" stroke-width="1.333" stroke-miterlimit="8" fill="#114AA4" d="M809.5 260.5h48v48h-48z"/><text fill="#FFF" font-family="Arial,Arial_MSFontService,sans-serif" font-weight="700" font-size="14" transform="translate(824.184 283)">VT<tspan font-weight="400" font-size="11" x="-6.333" y="16">0.34%</tspan></text><path stroke="#FFF" stroke-width="1.333" stroke-miterlimit="8" fill="#1762DB" d="M857.5 308.5h48v48h-48z"/><text fill="#FFF" font-family="Arial,Arial_MSFontService,sans-serif" font-weight="700" font-size="14" transform="translate(870.184 331)">MA<tspan font-weight="400" font-size="11" x="-4.333" y="16">0.24%</tspan></text><path stroke="#FFF" stroke-width="1.333" stroke-miterlimit="8" fill="#1762DB" d="M857.5 260.5h48v48h-48z"/><text fill="#FFF" font-family="Arial,Arial_MSFontService,sans-serif" font-weight="700" font-size="14" transform="translate(870.938 283)">NH<tspan font-weight="400" font-size="11" x="-5.087" y="16">0.28%</tspan></text><path stroke="#FFF" stroke-width="1.333" stroke-miterlimit="8" fill="#0C316D" d="M377.5 260.5h48v48h-48z"/><text fill="#FFF" font-family="Arial,Arial_MSFontService,sans-serif" font-weight="700" font-size="14" transform="translate(390.938 283)">AK<tspan font-weight="400" font-size="11" x="-5.087" y="16">0.44%</tspan></text><path stroke="#FFF" stroke-width="1.333" stroke-miterlimit="8" fill="#114AA4" d="M857.5 212.5h48v48h-48z"/><text fill="#FFF" font-family="Arial,Arial_MSFontService,sans-serif" font-weight="700" font-size="14" transform="translate(870.604 235)">ME<tspan font-weight="400" font-size="11" x="-4.753" y="16">0.37%</tspan></text><path stroke="#FFF" stroke-width="1.333" stroke-miterlimit="8" fill="#6D9FF0" d="M888.5 514.5h17v19h-17z"/><text font-family="Arial,Arial_MSFontService,sans-serif" font-weight="400" font-size="11" transform="translate(914.701 527)">Less than 0.2%</text><path stroke="#FFF" stroke-width="1.333" stroke-miterlimit="8" fill="#1762DB" d="M888.5 535.5h17v19h-17z"/><text font-family="Arial,Arial_MSFontService,sans-serif" font-weight="400" font-size="11" transform="translate(914.701 548)">0.2 –<tspan x="27" y="0">0.29%</tspan></text><path stroke="#FFF" stroke-width="1.333" stroke-miterlimit="8" fill="#114AA4" d="M888.5 556.5h17v19h-17z"/><text font-family="Arial,Arial_MSFontService,sans-serif" font-weight="400" font-size="11" transform="translate(914.701 569)">0.3 –<tspan x="27" y="0">0.39%</tspan></text><path stroke="#FFF" stroke-width="1.333" stroke-miterlimit="8" fill="#0C316D" d="M888.5 576.5h17v19h-17z"/><text font-family="Arial,Arial_MSFontService,sans-serif" font-weight="400" font-size="11" transform="translate(914.701 589)">0.4% or greater</text></g></svg>