<svg width="4230" height="1628" xmlns="http://www.w3.org/2000/svg" xmlns:xlink="http://www.w3.org/1999/xlink" overflow="hidden"><defs><clipPath id="clip0"><rect x="82" y="431" width="4230" height="1628"/></clipPath></defs><g clip-path="url(#clip0)" transform="translate(-82 -431)"><rect x="88" y="440" width="1320" height="231" fill="#20186F"/><text fill="#FFFFFF" font-family="Arial,Arial_MSFontService,sans-serif" font-weight="400" font-size="83" transform="matrix(1 0 0 1 310.292 537)">Major versions released<tspan font-size="83" x="153.542" y="99">every 4</tspan><tspan font-size="83" x="423.958" y="99">-</tspan>6 years</text><rect x="1540" y="440" width="1320" height="231" fill="#20186F"/><text fill="#FFFFFF" font-family="Arial,Arial_MSFontService,sans-serif" font-weight="400" font-size="83" transform="matrix(1 0 0 1 1633.96 537)">Minor versions are released on<tspan font-size="83" x="168.713" y="99">the 1</tspan><tspan font-size="55" x="352.046" y="74">st</tspan><tspan font-size="83" x="417.931" y="99">of every month</tspan></text><rect x="2992" y="440" width="1320" height="231" fill="#20186F"/><text fill="#FFFFFF" font-family="Arial,Arial_MSFontService,sans-serif" font-weight="400" font-size="83" transform="matrix(1 0 0 1 3140.96 537)">Patch versions are released<tspan font-size="83" x="114.583" y="99">as and when required</tspan><tspan fill="#000000" font-size="64" x="-3019.96" y="212">Gramex 0.0: Nov 2011</tspan><tspan fill="#000000" font-size="64" x="-3019.96" y="289">Gramex 1.0: Sep 2015</tspan><tspan fill="#000000" font-size="64" x="-3019.96" y="366">Gramex 2.0: Sometime in 2022</tspan><tspan fill="#DD3B4E" font-weight="700" font-size="64" x="-3019.96" y="520">Major versions contain</tspan><tspan fill="#000000" font-size="64" x="-3019.96" y="597">•</tspan><tspan fill="#000000" font-size="64" x="-2958.08" y="597">Significant architectural changes</tspan><tspan fill="#000000" font-size="64" x="-3019.96" y="674">•</tspan><tspan fill="#000000" font-size="64" x="-2958.08" y="674">New features / UX etc.</tspan><tspan fill="#000000" font-size="64" x="-3019.96" y="751">•</tspan><tspan fill="#000000" font-size="64" x="-2958.08" y="751">Changes for performance &amp; productivity</tspan><tspan fill="#DD3B4E" font-weight="700" font-size="64" x="-3019.96" y="905">Major versions</tspan><tspan fill="#000000" font-size="64" x="-2550.74" y="905">may </tspan><tspan fill="#000000" font-weight="700" font-size="64" x="-2412.09" y="905">NOT</tspan><tspan fill="#000000" font-size="64" x="-2259.13" y="905">be backward </tspan><tspan fill="#000000" font-size="64" x="-3019.96" y="982">compatible.</tspan><tspan fill="#DD3B4E" font-weight="700" font-size="64" x="-3019.96" y="1136">Examples</tspan><tspan fill="#000000" font-size="50" x="-3019.96" y="1200">•</tspan><tspan fill="#000000" font-weight="700" font-size="50" x="-2916.83" y="1200">Gramex 1.0</tspan><tspan fill="#000000" font-size="50" x="-2632.09" y="1200">moved from code</tspan><tspan fill="#000000" font-size="50" x="-2243.66" y="1200">-</tspan><tspan fill="#000000" font-size="50" x="-2227.04" y="1200">based to </tspan><tspan fill="#000000" font-size="50" x="-2916.83" y="1261">configuration</tspan><tspan fill="#000000" font-size="50" x="-2628.08" y="1261">-</tspan><tspan fill="#000000" font-size="50" x="-2611.47" y="1261">based development.</tspan><tspan fill="#000000" font-size="50" x="-3019.96" y="1321">•</tspan><tspan fill="#000000" font-weight="700" font-size="50" x="-2916.83" y="1321">Gramex 2.0</tspan><tspan fill="#000000" font-size="50" x="-2632.09" y="1321">will move from configuration</tspan><tspan fill="#000000" font-size="50" x="-2007.61" y="1321">-</tspan><tspan fill="#000000" font-size="50" x="-1991" y="1321">based to </tspan><tspan fill="#000000" font-size="50" x="-2916.83" y="1382">UI</tspan><tspan fill="#000000" font-size="50" x="-2866.42" y="1382">-</tspan><tspan fill="#000000" font-size="50" x="-2849.8" y="1382">based development.</tspan><tspan fill="#000000" font-size="64" x="-1567.96" y="212">Gramex 1.65: 1 Nov 2020</tspan><tspan fill="#000000" font-size="64" x="-1567.96" y="289">Gramex 1.66: 1 Dec 2020</tspan><tspan fill="#000000" font-size="64" x="-1567.96" y="366">Gramex 1.67: 1 Jan 2021</tspan><tspan fill="#DD3B4E" font-weight="700" font-size="64" x="-1567.96" y="520">Minor versions contain</tspan><tspan fill="#000000" font-size="64" x="-1567.96" y="597">•</tspan><tspan fill="#000000" font-size="64" x="-1506.08" y="597">New features</tspan><tspan fill="#000000" font-size="64" x="-1567.96" y="674">•</tspan><tspan fill="#000000" font-size="64" x="-1506.08" y="674">Enhancements to existing features</tspan><tspan fill="#000000" font-size="64" x="-1567.96" y="751">•</tspan><tspan fill="#000000" font-size="64" x="-1506.08" y="751">Bug fixes and consolidated patches</tspan><tspan fill="#DD3B4E" font-weight="700" font-size="64" x="-1567.96" y="905">Minor versions</tspan><tspan fill="#000000" font-size="64" x="-1095.3" y="905">are backward </tspan><tspan fill="#000000" font-weight="700" font-size="64" x="-693.688" y="905">compatible</tspan><tspan fill="#000000" font-size="64" x="-1567.96" y="982">unless explicitly deprecated.</tspan><tspan fill="#DD3B4E" font-weight="700" font-size="64" x="-1567.96" y="1136">Examples</tspan><tspan fill="#000000" font-size="50" x="-1567.96" y="1200">•</tspan><tspan fill="#000000" font-weight="700" font-size="50" x="-1506.08" y="1200">Gramex 1.66</tspan><tspan fill="#000000" font-size="50" x="-1193.27" y="1200">automatically created tables when </tspan><tspan fill="#000000" font-size="50" x="-1506.08" y="1261">users insert a row of data.</tspan><tspan fill="#000000" font-size="50" x="-1567.96" y="1321">•</tspan><tspan fill="#000000" font-weight="700" font-size="50" x="-1506.08" y="1321">Gramex 1.67</tspan><tspan fill="#000000" font-size="50" x="-1193.27" y="1321">trains and deploys ML models based </tspan><tspan fill="#000000" font-size="50" x="-1506.08" y="1382">without requiring code.</tspan><tspan fill="#000000" font-size="64" x="-115.959" y="212">Gramex 1.63.0: 1 Sep 2020</tspan><tspan fill="#000000" font-size="64" x="-115.959" y="289">Gramex 1.63.1: 15 Sep 2020</tspan><tspan fill="#000000" font-size="64" x="-115.959" y="366">Gramex 1.63.2: 22 Sep 2020</tspan><tspan fill="#DD3B4E" font-weight="700" font-size="64" x="-115.959" y="520">Patch versions contain</tspan><tspan fill="#000000" font-size="64" x="-115.959" y="597">•</tspan><tspan fill="#000000" font-size="64" x="-54.0835" y="597">Critical Bug Fixes</tspan><tspan fill="#000000" font-size="64" x="-115.959" y="674">•</tspan><tspan fill="#000000" font-size="64" x="-54.0835" y="674">Reported Security issues</tspan><tspan fill="#000000" font-size="64" x="-115.959" y="751">•</tspan><tspan fill="#000000" font-size="64" x="-54.0835" y="751">Minor feature enhancements</tspan><tspan fill="#DD3B4E" font-weight="700" font-size="64" x="-115.959" y="905">Patch versions</tspan><tspan fill="#000000" font-size="64" x="356.698" y="905">are backward compatible </tspan><tspan fill="#000000" font-size="64" x="-115.959" y="982">and roll </tspan><tspan fill="#000000" font-size="64" x="111.49" y="982">up into the next minor version.</tspan><tspan fill="#DD3B4E" font-weight="700" font-size="64" x="-115.959" y="1136">Examples</tspan><tspan fill="#000000" font-size="50" x="-115.959" y="1200">•</tspan><tspan fill="#000000" font-weight="700" font-size="50" x="-54.0835" y="1200">Gramex 1.63.1</tspan><tspan fill="#000000" font-size="50" x="300.552" y="1200">fixes an authentication configuration </tspan><tspan fill="#000000" font-size="50" x="-54.0835" y="1261">bug</tspan><tspan fill="#000000" font-size="50" x="-115.959" y="1321">•</tspan><tspan fill="#000000" font-weight="700" font-size="50" x="-54.0835" y="1321">Gramex 1.63.2</tspan><tspan fill="#000000" font-size="50" x="300.552" y="1321">fixes a URL redirection bug</tspan></text><path d="M1426 532.75 1478.5 532.75 1478.5 505 1531 560.5 1478.5 616 1478.5 588.25 1426 588.25Z" fill="#20186F" fill-rule="evenodd"/><path d="M2874 532.75 2926 532.75 2926 505 2978 560.5 2926 616 2926 588.25 2874 588.25Z" fill="#20186F" fill-rule="evenodd"/></g></svg>